/* XPM */
static char * walkfront2_xpm[] = {
"64 64 7 1",
" 	c None",
".	c #000000",
"+	c #5C3826",
"@	c #282626",
"#	c #727272",
"$	c #FFFFFF",
"%	c #070707",
"                                                                ",
"                                                                ",
"                                                                ",
"                                                                ",
"                                                                ",
"                                                                ",
"                                                                ",
"                                                                ",
"                        ..                                      ",
"                        ..                                      ",
"                          ....    ..                            ",
"                          ....    ..                            ",
"            ..    ....................                          ",
"            ..    ....................                          ",
"              ........................                          ",
"              ........................                          ",
"                  ....................                          ",
"                  ....................                          ",
"                    ....................                        ",
"                    ....................                        ",
"                        ................                        ",
"                        ................                        ",
"                        ..++++++++++....    ....                ",
"                        ..++++++++++....    ....                ",
"                        ..++..++..++..    ..@@..                ",
"                        ..++..++..++..    ..@@..                ",
"                        ..++++++++++..  ..@@..                  ",
"                        ..++++++++++..  ..@@..                  ",
"                        ....++++++......@@..                    ",
"                        ....++++++......@@..                    ",
"                        ....++++++....@@..                      ",
"                        ....++++++....@@..                      ",
"                      ..................                        ",
"                      ..................                        ",
"                    ..##$$$$..++..$$$$$$..                      ",
"                    ..##$$$$..++..$$$$$$..                      ",
"                    ..$$..$$......##..$$..                      ",
"                    ..$$..$$......##..$$..                      ",
"                    ..$$..$$$$..$$$$..$$..                      ",
"                    ..$$..$$$$..$$$$..$$..                      ",
"                    ..$$..##....$$$$..$$..                      ",
"                    ..$$..##....$$$$..$$..                      ",
"                    ..$$..$$..$$$$$$..$$..                      ",
"                    ..$$..$$..$$$$$$..$$..                      ",
"                    ......$$..$$$$##....%%                      ",
"                    ......$$..$$$$##....%%                      ",
"                    ..++..............++%%                      ",
"                    ..++..............++%%                      ",
"                    ......@@@@@@@@@@..%%%%                      ",
"                    ......@@@@@@@@@@..%%%%                      ",
"                        %%@@%%....@@..                          ",
"                        %%@@%%....@@..                          ",
"                        %%@@%%  ..@@..                          ",
"                        %%@@%%  ..@@..                          ",
"                        %%..%%  ......                          ",
"                        %%..%%  ......                          ",
"                        %%++%%  ..++..                          ",
"                        %%++%%  ..++..                          ",
"                        %%%%%%  ......                          ",
"                        %%%%%%  ......                          ",
"                                                                ",
"                                                                ",
"                                                                ",
"                                                                "};
