/* XPM */
static char * wf1_xpm[] = {
"124 124 85 1",
" 	c #5B3E00",
".	c #5C3F01",
"+	c #644709",
"@	c #634608",
"#	c #5D4002",
"$	c #A28545",
"%	c #997C3C",
"&	c #6D5011",
"*	c #000000",
"=	c #0E0906",
"-	c #170E0A",
";	c #110B07",
">	c #3A2318",
",	c #5C3826",
"'	c #452A1D",
")	c #614405",
"!	c #876A2B",
"~	c #42281B",
"{	c #583524",
"]	c #3E261A",
"^	c #0E0E0E",
"/	c #0F0F0F",
"(	c #160D09",
"_	c #030303",
":	c #513121",
"<	c #0C0705",
"[	c #1D1D1D",
"}	c #282828",
"|	c #282626",
"1	c #060402",
"2	c #1E1E1E",
"3	c #242424",
"4	c #0B0B0B",
"5	c #070707",
"6	c #5F4204",
"7	c #7F6223",
"8	c #2E1C13",
"9	c #563524",
"0	c #342015",
"a	c #141414",
"b	c #131212",
"c	c #141313",
"d	c #191818",
"e	c #090808",
"f	c #23150E",
"g	c #4E2F20",
"h	c #1A100B",
"i	c #101010",
"j	c #080808",
"k	c #090504",
"l	c #2B2B2B",
"m	c #727272",
"n	c #B9B9B9",
"o	c #FFFFFF",
"p	c #404040",
"q	c #232121",
"r	c #808080",
"s	c #7D7D7D",
"t	c #303030",
"u	c #848484",
"v	c #B1B1B1",
"w	c #DFDFDF",
"x	c #F3F3F3",
"y	c #EDEDED",
"z	c #EAEAEA",
"A	c #7E7E7E",
"B	c #606060",
"C	c #9F9F9F",
"D	c #565656",
"E	c #4A4A4A",
"F	c #959595",
"G	c #BFBFBF",
"H	c #CACACA",
"I	c #AAAAAA",
"J	c #161515",
"K	c #3C3C3C",
"L	c #505050",
"M	c #474747",
"N	c #2E2E2E",
"O	c #A7A7A7",
"P	c #737373",
"Q	c #383838",
"R	c #040302",
"S	c #1E1D1D",
"T	c #24160F",
"                                                                                                                            ",
"                                                                                                                            ",
"                                                                                                                            ",
"   .+++++++++++++++++++++++++++++++++++++++++++++++++++++++++++++@   #++++++++++++++++++++++++++@   #+++++++++++++++++++.   ",
"   +$$$$$$$$$$$$$$$$$$$$$$$$$$$$$$$$$$$$$$$$$$$$$$$$$$$$$$$$$$$$$%   &$$$$$$$$$$$$$$$$$$$$$$$$$$%   &$$$$$$$$$$$$$$$$$$$+   ",
"   +$$$$$$$$$$$$$$$$$$$$$$$$$$$$$$$$$$$$$$$$$$$$$$$$$$$$$$$$$$$$$%   &$$$$$$$$$$$$$$$$$$$$$$$$$$%   &$$$$$$$$$$$$$$$$$$$+   ",
"   +$$$$$$$$$$$$$$$$$$$$$$$$$$$$$$$$$$$$$$$$$$$$$$$$$$$$$$$$$$$$$%   &$$$$$$$$$$$$$$$$$$$$$$$$$$%   &$$$$$$$$$$$$$$$$$$$+   ",
"   +$$$$$$$$$$$$$$$$$$$$$$$$$$$$$$$$$$$$$$$$$$$$$$$$$$$$$$$$$$$$$%   &$$$$$$$$$$$$$$$$$$$$$$$$$$%   &$$$$$$$$$$$$$$$$$$$+   ",
"   +$$$$$$$$$$$$$$$$$$$$$$$$$$$$$$$$$$$$$$$$$$$$$$$$$$$$$$$$$$$$$%   &$$$$$$$$$$$$$$$$$$$$$$$$$$%   &$$$$$$$$$$$$$$$$$$$+   ",
"   +$$$$$$$$$$$$$$$$$$$$$$$$$$$$$$$$$$$$$$$$$$$$$$$$$$$$$$$$$$$$$%   &$$$$$$$$$$$$$$$$$$$$$$$$$$%   &$$$$$$$$$$$$$$$$$$$+   ",
"   +$$$$$$$$$$$$$$$$$$$$$$$$$$$$$$$$$$$$$$$$$$$$$$$$$$$$$$$$$$$$$%   &$$$$$$$$$$$$$$$$$$$$$$$$$$%   &$$$$$$$$$$$$$$$$$$$+   ",
"   +$$$$$$$$$$$$$$$$$$$$$$$$$$$$$$$$$$$$$$$$$$$$$$$$$$$$$$$$$$$$$%   &$$$$$$$$$$$$$$$$$$$$$$$$$$%   &$$$$$$$$$$$$$$$$$$$+   ",
"   +$$$$$$$$$$$$$$$$$$$$$$$$$$$$$$$$$$$$$$$$$$$***$$$$$$$$$$$$$$$%   &$$$$$$$$$$$$$$$$$$$$$$$$$$%   &$$$$$$$$$$$$$$$$$$$+   ",
"   +$$$$$$$$$$$$$$$$$$$$$$$$$$$$$$$$$$$$$$$$$$$***$$$$$$$$$$$$$$$%   &$$$$$$$$$$$$$$$$$$$$$$$$$$%   &$$$$$$$$$$$$$$$$$$$+   ",
"   +$$$$$$$$$$$$$$$$$$$$$$$$$$$$$$$$$$$$$$$$$$$***$$$$$$$$$$$$$$$%   &$$$$$$$$$$$$$$$$$$$$$$$$$$%   &$$$$$$$$$$$$$$$$$$$+   ",
"   +$$$$$$$$$$$$$$$$$$$$$$$$$$$$$$$$$$$$$$$$$$$$$$$$$$$$$$$$$$$$$%   &$$$$$$$$$$$$$$$$$$$$$$$$$$%   &$$$$$$$$$$$$$$$$$$$+   ",
"   +$$$$$$$$$$$$$$$$$$$$$$$$$$$$$$$$$$$$$$$$$$$$$$********$$$$$$$%****$$$$$$$$$$$$$$$$$$$$$$$$$$%   &$$$$$$$$$$$$$$$$$$$+   ",
"   +$$$$$$$$$$$$$$$$$$$$$$$$$$$$$$$$$$$$$$$$$$$$$$********$$$$$$$%****$$$$$$$$$$$$$$$$$$$$$$$$$$%   &$$$$$$$$$$$$$$$$$$$+   ",
"   +$$$$$$$$$$$$$$$$$$$$$$$$$$$$$$$$$$$$$$$$$$$$$$********$$$$$$$%****$$$$$$$$$$$$$$$$$$$$$$$$$$%   &$$$$$$$$$$$$$$$$$$$+   ",
"   +$$$$$$$$$$$$$$$$$$$$***$$$$$$$$**************************************$$$$$$$$$$$$$$$$$$$$$$$%   &$$$$$$$$$$$$$$$$$$$+   ",
"   +$$$$$$$$$$$$$$$$$$$****$$$$$$$$***************************************$$$$$$$$$$$$$$$$$$$$$$%   &$$$$$$$$$$$$$$$$$$$+   ",
"   +$$$$$$$$$$$$$$$$$$$****$$$$$$$$***************************************$$$$$$$$$$$$$$$$$$$$$$%   &$$$$$$$$$$$$$$$$$$$+   ",
"   +$$$$$$$$$$$$$$$$$$$****$$$$$$$$***************************************$$$$$$$$$$$$$$$$$$$$$$%   &$$$$$$$$$$$$$$$$$$$+   ",
"   +$$$$$$$$$$$$$$$$$$$$$$$***********************************************$$$$$$$$$$$$$$$$$$$$$$%   &$$$$$$$$$$$$$$$$$$$+   ",
"   +$$$$$$$$$$$$$$$$$$$$$$$***********************************************$$$$$$$$$$$$$$$$$$$$$$%   &$$$$$$$$$$$$$$$$$$$+   ",
"   +$$$$$$$$$$$$$$$$$$$$$$$***********************************************$$$$$$$$$$$$$$$$$$$$$$%   &$$$$$$$$$$$$$$$$$$$+   ",
"   +$$$$$$$$$$$$$$$$$$$$$$$***********************************************$$$$$$$$$$$$$$$$$$$$$$%   &$$$$$$$$$$$$$$$$$$$+   ",
"   +$$$$$$$$$$$$$$$$$$$$$$$$$$$$$$$***************************************$$$$$$$$$$$$$$$$$$$$$$%   &$$$$$$$$$$$$$$$$$$$+   ",
"   +$$$$$$$$$$$$$$$$$$$$$$$$$$$$$$$***************************************$$$$$$$$$$$$$$$$$$$$$$%   &$$$$$$$$$$$$$$$$$$$+   ",
"   +$$$$$$$$$$$$$$$$$$$$$$$$$$$$$$$***************************************$$$$$$$$$$$$$$$$$$$$$$%   &$$$$$$$$$$$$$$$$$$$+   ",
"   +$$$$$$$$$$$$$$$$$$$$$$$$$$$$$$$***************************************$$$$$$$$$$$$$$$$$$$$$$%   &$$$$$$$$$$$$$$$$$$$+   ",
"   +$$$$$$$$$$$$$$$$$$$$$$$$$$$$$$$$$$$**************************************$$$$$$$$$$$$$$$$$$$%   &$$$$$$$$$$$$$$$$$$$+   ",
"   +$$$$$$$$$$$$$$$$$$$$$$$$$$$$$$$$$$$**************************************$$$$$$$$$$$$$$$$$$$%   &$$$$$$$$$$$$$$$$$$$+   ",
"   +$$$$$$$$$$$$$$$$$$$$$$$$$$$$$$$$$$$**************************************$$$$$$$$$$$$$$$$$$$%   &$$$$$$$$$$$$$$$$$$$+   ",
"   +$$$$$$$$$$$$$$$$$$$$$$$$$$$$$$$$$$$**************************************$$$$$$$$$$$$$$$$$$$%   &$$$$$$$$$$$$$$$$$$$+   ",
"   +$$$$$$$$$$$$$$$$$$$$$$$$$$$$$$$$$$$$$$$$$$$******************************$$$$$$$$$$$$$$$$$$$%   &$$$$$$$$$$$$$$$$$$$+   ",
"   +$$$$$$$$$$$$$$$$$$$$$$$$$$$$$$$$$$$$$$$$$$$******************************$$$$$$$$$$$$$$$$$$$%   &$$$$$$$$$$$$$$$$$$$+   ",
"   +$$$$$$$$$$$$$$$$$$$$$$$$$$$$$$$$$$$$$$$$$$$******************************$$$$$$$$$$$$$$$$$$$%   &$$$$$$$$$$$$$$$$$$$+   ",
"   +$$$$$$$$$$$$$$$$$$$$$$$$$$$$$$$$$$$$$$$$$$$***=------------------;*******$$$$$$$$$$$$$$$$$$$%   &$$$$$$$$$$$$$$$$$$$+   ",
"   +$$$$$$$$$$$$$$$$$$$$$$$$$$$$$$$$$$$$$$$$$$$***>,,,,,,,,,,,,,,,,,,'*******$$$$$$$$********$$$%   &$$$$$$$$$$$$$$$$$$$+   ",
"   +$$$$$$$$$$$$$$$$$$$$$$$$$$$$$$$$$$$$$$$$$$$***>,,,,,,,,,,,,,,,,,,'*******$$$$$$$$********$$$%   &$$$$$$$$$$$$$$$$$$$+   ",
"   +$$$$$$$$$$$$$$$$$$$$$$$$$$$$$$$$$$$$$$$$$$$***>,,,,,,,,,,,,,,,,,,'*******$$$$$$$$********$$$%   &$$$$$$$$$$$$$$$$$$$+   ",
"   )!!!!!!!!!!!!!!!!!!!!!!!!!!!!!!!!!!!!!!!!!!!***>,,,~>>>{,,,>>>],,,'*******$$$$$$$$^/(/_***$$$%   &$$$$$$$$$$$$$$$$$$$+   ",
"                                               ***>,,,-***:,,,***<,,,'****$$$$$$$****[}|}1***$$$%   &$$$$$$$$$$$$$$$$$$$+   ",
"                                               ***>,,,-***:,,,***<,,,'****$$$$$$$****2||31***$$$%   &$$$$$$$$$$$$$$$$$$$+   ",
"                                               ***>,,,-***:,,,***4,,,'****$$$$$$$****2|||5***$$$%   &$$$$$$$$$$$$$$$$$$$+   ",
"   6777777777777777777777777777   6777777777777***>,,,>8889,,,8880,,,'****$$$$$$$(abccccc1$$$$$$%   &$$$$$$$$$$$$$$$$$$$+   ",
"   +$$$$$$$$$$$$$$$$$$$$$$$$$$$   +$$$$$$$$$$$$***>,,,,,,,,,,,,,,,,,,'****$$$$***d}}|e***$$$$$$$%   &$$$$$$$$$$$$$$$$$$$+   ",
"   +$$$$$$$$$$$$$$$$$$$$$$$$$$$   +$$$$$$$$$$$$***>,,,,,,,,,,,,,,,,,,'****$$$$***d}}|e***$$$$$$$%   &$$$$$$$$$$$$$$$$$$$+   ",
"   +$$$$$$$$$$$$$$$$$$$$$$$$$$$   +$$$$$$$$$$$$***>,,,,,,,,,,,,,,,,,,'****$$$$***d3}|e***$$$$$$$%   &$$$$$$$$$$$$$$$$$$$+   ",
"   +$$$$$$$$$$$$$$$$$$$$$$$$$$$   +$$$$$$$$$$$$***-fffg,,,,,,,,,,9fffh*******(dddb^(ij$$$$$$$$$$%   &$$$$$$$$$$$$$$$$$$$+   ",
"   +$$$$$$$$$$$$$$$$$$$$$$$$$$$   +$$$$$$$$$$$$*******',,,,,,,,,,:***********c|||/***$$$$$$$$$$$%   &$$$$$$$$$$$$$$$$$$$+   ",
"   +$$$$$$$$$$$$$$$$$$$$$$$$$$$   +$$$$$$$$$$$$*******',,,,,,,,,,:***********c|||/***$$$$$$$$$$$%   &$$$$$$$$$$$$$$$$$$$+   ",
"   +$$$$$$$$$$$$$$$$$$$$$$$$$$$   +$$$$$$$$$$$$*******',,,,,,,,,,:***********c|||/***$$$$$$$$$$$%   &$$$$$$$$$$$$$$$$$$$+   ",
"   +$$$$$$$$$$$$$$$$$$$$$$$$$$$   +$$$$$$$$$$$$*******',,,,,,,,,,:*******4222ce4e5$$$$$$$$$$$$$$%   &$$$$$$$$$$$$$$$$$$$+   ",
"   +$$$$$$$$$$$$$$$$$$$$$$$$$$$   +$$$$$$$$$$$$*******',,,,,,,,,,:*******^|||c***$$$$$$$$$$$$$$$%   &$$$$$$$$$$$$$$$$$$$+   ",
"   +$$$$$$$$$$$$$$$$$$$$$$$$$$$   +$$$$$$$$$$$$*******',,,,,,,,,,:*******^3}|c***$$$$$$$$$$$$$$$%   &$$$$$$$$$$$$$$$$$$$+   ",
"   +$$$$$$$$$$$$$$$$$$$$$$$$$$$   +$$$$$$$$$$$$*******',,,,,,,,,,:*******i|}|c***$$$$$$$$$$$$$$$%   &$$$$$$$$$$$$$$$$$$$+   ",
"   +$$$$$$$$$$$$$$$$$$$$$$$$$$$   +$$$$$$$$***********k<<<<<<<<<<k********1511$$$$$$$$$$$$$$$$$$%   &$$$$$$$$$$$$$$$$$$$+   ",
"   +$$$$$$$$$$$$$$$$$$$$$$$$$$$   +$$$$$$$$**********************************$$$$$$$$$$$$$$$$$$$%   &$$$$$$$$$$$$$$$$$$$+   ",
"   +$$$$$$$$$$$$$$$$$$$$$$$$$$$   +$$$$$$$$**********************************$$$$$$$$$$$$$$$$$$$%   &$$$$$$$$$$$$$$$$$$$+   ",
"   +$$$$$$$$$$$$$$$$$$$$$$$$$$$   +$$$$$$$$**********************************$$$$$$$$$$$$$$$$$$$%   &$$$$$$$$$$$$$$$$$$$+   ",
"   +$$$$$$$$$$$$$$$$$$$$$$$$$$$   +$$$$***lmmmnooooooop***:,,,***qooooooooooor***$$$$$$$$$$$$$$$%   &$$$$$$$$$$$$$$$$$$$+   ",
"   +$$$$$$$$$$$$$$$$$$$$$$$$$$$   +$$$$***lmmmnooooooop***:,,,***qooooooooooor***$$$$$$$$$$$$$$$%   &$$$$$$$$$$$$$$$$$$$+   ",
"   +$$$$$$$$$$$$$$$$$$$$$$$$$$$   +$$$$***lmmmnooooooop***:,,,***qooooooooooos***$$$$$$$$$$$$$$$%   &$$$$$$$$$$$$$$$$$$$+   ",
"   +$$$$$$$$$$$$$$$$$$$$$$$$$$$   +$$$$***tuuuvwwwxooop***':::***2yyyzwwzzoooA***$$$$$$$$$$$$$$$%   &$$$$$$$$$$$$$$$$$$$+   ",
"   +$$$$$$$$$$$$$$$$$$$$$$$$$$$   +$$$$***Booor***Cooop**********^mmmD***BoooA***$$$$$$$$$$$$$$$%   &$$$$$$$$$$$$$$$$$$$+   ",
"   +$$$$$$$$$$$$$$$$$$$$$$$$$$$   +$$$$***Booor***Cooop**********^mmmD***BoooA***$$$$$$$$$$$$$$$%   &$$$$$$$$$$$$$$$$$$$+   ",
"   +$$$$$$$$$$$$$$$$$$$$$$$$$$$   +$$$$***Booor***Cooop**********^mmmD***Booor***$$$$$$$$$$$$$$$%   &$$$$$$$$$$$$$$$$$$$+   ",
"   +$$$$$$$$$$$$$$$$$$$$$$$$$$$   +$$$$***Booor***Cooompppe***pppEFFFm***Booor***$$$$$$$$$$$$$$$%   &$$$$$$$$$$$$$$$$$$$+   ",
"   +$$$$$$$$$$$$$$$$$$$$$$$$$$$   +$$$$***Booor***Coooooooq***oooooooG***Booor***$$$$$$$$$$$$$$$%   &$$$$$$$$$$$$$$$$$$$+   ",
"   +$$$$$$$$$$$$$$$$$$$$$$$$$$$   +$$$$***Booor***Cooooooo2***oooooooG***Booor***$$$$$$$$$$$$$$$%   &$$$$$$$$$$$$$$$$$$$+   ",
"   +$$$$$$$$$$$$$$$$$$$$$$$$$$$   +$$$$***Booor***Cooooooo2***oooooooG***Booor***$$$$$$$$$$$$$$$%   &$$$$$$$$$$$$$$$$$$$+   ",
"   +$$$$$$$$$$$$$$$$$$$$$$$$$$$   +$$$$***Booor***AHHHICCCJ***oooooooG***KCCCL***$$$$$$$$$$$$$$$%   &$$$$$$$$$$$$$$$$$$$+   ",
"   +$$$$$$$$$$$$$$$$$$$$$$$$$$$   +$$$$***Booor***Mmmm2*******oooooooG***********$$$$$$$$$$$$$$$%   &$$$$$$$$$$$$$$$$$$$+   ",
"   +$$$$$$$$$$$$$$$$$$$$$$$$$$$   +$$$$***Booor***Mmmm2*******oooooooG***********$$$$$$$$$$$$$$$%   &$$$$$$$$$$$$$$$$$$$+   ",
"   +$$$$$$$$$$$$$$$$$$$$$$$$$$$   +$$$$***Booor***Emmm2*******oooooooG***********$$$$$$$$$$$$$$$%   &$$$$$$$$$$$$$$$$$$$+   ",
"   +$$$$$$$$$$$$$$$$$$$$$$$$$$$   +$$$$***Booor***mnnnN***mrrAoooooooG***;888-***$$$$$$$$$$$$$$$%   &$$$$$$$$$$$$$$$$$$$+   ",
"   +$$$$$$$$$$$$$$$$$$$$$$$$$$$   +$$$$***Booor***CoooK***wooooooooooG***f,,,8***$$$$$$$$$$$$$$$%   &$$$$$$$$$$$$$$$$$$$+   ",
"   +$$$$$$$$$$$$$$$$$$$$$$$$$$$   +$$$$***Booor***Cooop***wooooooooooG***f,,,8***$$$$$$$$$$$$$$$%   &$$$$$$$$$$$$$$$$$$$+   ",
"   +$$$$$$$$$$$$$$$$$$$$$$$$$$$   +$$$$***Booor***Cooop***wooooooooooG***f,,,8***$$$$$$$$$$$$$$$%   &$$$$$$$$$$$$$$$$$$$+   ",
"   +$$$$$$$$$$$$$$$$$$$$$$$$$$$   +$$$$***3BBBt***Cooop***wooooooxOOOA***=fff;***$$$$$$$$$$$$$$$%   &$$$$$$$$$$$$$$$$$$$+   ",
"   +$$$$$$$$$$$$$$$$$$$$$$$$$$$   +$$$$***********Cooop***wooooooymmmD***********$$$$$$$$$$$$$$$%   &$$$$$$$$$$$$$$$$$$$+   ",
"   +$$$$$$$$$$$$$$$$$$$$$$$$$$$   +$$$$***********Cooop***wooooooymmmD***********$$$$$$$$$$$$$$$%   &$$$$$$$$$$$$$$$$$$$+   ",
"   +$$$$$$$$$$$$$$$$$$$$$$$$$$$   +$$$$***********Cooop***wooooooyPmmD***********$$$$$$$$$$$$$$$%   &$$$$$$$$$$$$$$$$$$$+   ",
"   +$$$$$$$$$$$$$$$$$$$$$$$$$$$   +$$$$***h'''f***lpppi***QppppppQ222J****$$$$$$$$$$$$$$$$$$$$$$%   &$$$$$$$$$$$$$$$$$$$+   ",
"   +$$$$$$$$$$$$$$$$$$$$$$$$$$$   +$$$$***f,,,8***************************$$$$$$$$$$$$$$$$$$$$$$%   &$$$$$$$$$$$$$$$$$$$+   ",
"   +$$$$$$$$$$$$$$$$$$$$$$$$$$$   +$$$$***f,,,8***************************$$$$$$$$$$$$$$$$$$$$$$%   &$$$$$$$$$$$$$$$$$$$+   ",
"   +$$$$$$$$$$$$$$$$$$$$$$$$$$$   +$$$$***f,,,8***************************$$$$$$$$$$$$$$$$$$$$$$%   &$$$$$$$$$$$$$$$$$$$+   ",
"   +$$$$$$$$$$$$$$$$$$$$$$$$$$$   +$$$$***R<<<1***Jqqqqqqqqqqqqqqqqqqd****$$$$$$$$$$$$$$$$$$$$$$%   &$$$$$$$$$$$$$$$$$$$+   ",
"   +$$$$$$$$$$$$$$$$$$$$$$$$$$$   +$$$$***********d||||||||||||||||||2****$$$$$$$$$$$$$$$$$$$$$$%   &$$$$$$$$$$$$$$$$$$$+   ",
"   +$$$$$$$$$$$$$$$$$$$$$$$$$$$   +$$$$***********d||||||||||||||||||2****$$$$$$$$$$$$$$$$$$$$$$%   &$$$$$$$$$$$$$$$$$$$+   ",
"   +$$$$$$$$$$$$$$$$$$$$$$$$$$$   +$$$$***********d||||||||||||||||||S****$$$$$$$$$$$$$$$$$$$$$$%   &$$$$$$$$$$$$$$$$$$$+   ",
"   +$$$$$$$$$$$$$$$$$$$$$$$$$$$   +$$$$$$$$$$$$***d|||e**********1|||2****                                                  ",
"   +$$$$$$$$$$$$$$$$$$$$$$$$$$$   +$$$$$$$$$$$$***d|||e**********1|||2****                                                  ",
"   +$$$$$$$$$$$$$$$$$$$$$$$$$$$   +$$$$$$$$$$$$***d||le**********1|||2****                                                  ",
"   +$$$$$$$$$$$$$$$$$$$$$$$$$$$   +$$$$$$$$$$$$***Jqqqe**********5}}|S****++++++++++++++++++++++++++++++++++++++++++++++.   ",
"   +$$$$$$$$$$$$$$$$$$$$$$$$$$$   +$$$$$$$$$$$$***********$$$$***1|3|S****$$$$$$$$$$$$$$$$$$$$$$$$$$$$$$$$$$$$$$$$$$$$$$+   ",
"   +$$$$$$$$$$$$$$$$$$$$$$$$$$$   +$$$$$$$$$$$$***********$$$$***5|||2****$$$$$$$$$$$$$$$$$$$$$$$$$$$$$$$$$$$$$$$$$$$$$$+   ",
"   +$$$$$$$$$$$$$$$$$$$$$$$$$$$   +$$$$$$$$$$$$***********$$$$***1|||2****$$$$$$$$$$$$$$$$$$$$$$$$$$$$$$$$$$$$$$$$$$$$$$+   ",
"   +$$$$$$$$$$$$$$$$$$$$$$$$$$$   +$$$$$$$$$$$$***=---1***$$$$***1|||S****$$$$$$$$$$$$$$$$$$$$$$$$$$$$$$$$$$$$$$$$$$$$$$+   ",
"   +$$$$$$$$$$$$$$$$$$$$$$$$$$$   +$$$$$$$$$$$$***>,,,-***$$$$***5|||S****$$$$$$$$$$$$$$$$$$$$$$$$$$$$$$$$$$$$$$$$$$$$$$+   ",
"   +$$$$$$$$$$$$$$$$$$$$$$$$$$$   +$$$$$$$$$$$$***>,,,-***$$$$***5}||S****$$$$$$$$$$$$$$$$$$$$$$$$$$$$$$$$$$$$$$$$$$$$$$+   ",
"   +$$$$$$$$$$$$$$$$$$$$$$$$$$$   +$$$$$$$$$$$$***>,,,-***$$$$***1}3|S****$$$$$$$$$$$$$$$$$$$$$$$$$$$$$$$$$$$$$$$$$$$$$$+   ",
"   +$$$$$$$$$$$$$$$$$$$$$$$$$$$   +$$$$$$$$$$$$***T>>>=***$$$$***1dddi****$$$$$$$$$$$$$$$$$$$$$$$$$$$$$$$$$$$$$$$$$$$$$$+   ",
"   +$$$$$$$$$$$$$$$$$$$$$$$$$$$   +$$$$$$$$$$$$***********$$$$************$$$$$$$$$$$$$$$$$$$$$$$$$$$$$$$$$$$$$$$$$$$$$$+   ",
"   +$$$$$$$$$$$$$$$$$$$$$$$$$$$   +$$$$$$$$$$$$***********$$$$************$$$$$$$$$$$$$$$$$$$$$$$$$$$$$$$$$$$$$$$$$$$$$$+   ",
"   +$$$$$$$$$$$$$$$$$$$$$$$$$$$   +$$$$$$$$$$$$***********$$$$************$$$$$$$$$$$$$$$$$$$$$$$$$$$$$$$$$$$$$$$$$$$$$$+   ",
"   +$$$$$$$$$$$$$$$$$$$$$$$$$$$   +$$$$$$$$$$$$$$$$$$$$$$$$$$$***R888T****$$$$$$$$$$$$$$$$$$$$$$$$$$$$$$$$$$$$$$$$$$$$$$+   ",
"   +$$$$$$$$$$$$$$$$$$$$$$$$$$$   +$$$$$$$$$$$$$$$$$$$$$$$$$$$***=,,,'****$$$$$$$$$$$$$$$$$$$$$$$$$$$$$$$$$$$$$$$$$$$$$$+   ",
"   +$$$$$$$$$$$$$$$$$$$$$$$$$$$   +$$$$$$$$$$$$$$$$$$$$$$$$$$$***=,,,'****$$$$$$$$$$$$$$$$$$$$$$$$$$$$$$$$$$$$$$$$$$$$$$+   ",
"   +$$$$$$$$$$$$$$$$$$$$$$$$$$$   +$$$$$$$$$$$$$$$$$$$$$$$$$$$***k,,,'****$$$$$$$$$$$$$$$$$$$$$$$$$$$$$$$$$$$$$$$$$$$$$$+   ",
"   +$$$$$$$$$$$$$$$$$$$$$$$$$$$   +$$$$$$$$$$$$$$$$$$$$$$$$$$$***Rfffh****$$$$$$$$$$$$$$$$$$$$$$$$$$$$$$$$$$$$$$$$$$$$$$+   ",
"   +$$$$$$$$$$$$$$$$$$$$$$$$$$$   +$$$$$$$$$$$$$$$$$$$$$$$$$$$************$$$$$$$$$$$$$$$$$$$$$$$$$$$$$$$$$$$$$$$$$$$$$$+   ",
"   +$$$$$$$$$$$$$$$$$$$$$$$$$$$   +$$$$$$$$$$$$$$$$$$$$$$$$$$$************$$$$$$$$$$$$$$$$$$$$$$$$$$$$$$$$$$$$$$$$$$$$$$+   ",
"   +$$$$$$$$$$$$$$$$$$$$$$$$$$$   +$$$$$$$$$$$$$$$$$$$$$$$$$$$************$$$$$$$$$$$$$$$$$$$$$$$$$$$$$$$$$$$$$$$$$$$$$$+   ",
"   +$$$$$$$$$$$$$$$$$$$$$$$$$$$   +$$$$$$$$$$$$$$$$$$$$$$$$$$$$$$%   &$$$$$$$$$$$$$$$$$$$$$$$$$$$$$$$$$$$$$$$$$$$$$$$$$$+   ",
"   +$$$$$$$$$$$$$$$$$$$$$$$$$$$   +$$$$$$$$$$$$$$$$$$$$$$$$$$$$$$%   &$$$$$$$$$$$$$$$$$$$$$$$$$$$$$$$$$$$$$$$$$$$$$$$$$$+   ",
"   +$$$$$$$$$$$$$$$$$$$$$$$$$$$   +$$$$$$$$$$$$$$$$$$$$$$$$$$$$$$%   &$$$$$$$$$$$$$$$$$$$$$$$$$$$$$$$$$$$$$$$$$$$$$$$$$$+   ",
"   +$$$$$$$$$$$$$$$$$$$$$$$$$$$   +$$$$$$$$$$$$$$$$$$$$$$$$$$$$$$%   &$$$$$$$$$$$$$$$$$$$$$$$$$$$$$$$$$$$$$$$$$$$$$$$$$$+   ",
"   .+++++++++++++++++++++++++++   .++++++++++++++++++++++++++++++@   #++++++++++++++++++++++++++++++++++++++++++++++++++.   ",
"                                                                                                                            ",
"                                                                                                                            ",
"                                                                                                                            "};
