/* XPM */
static char * wf2_xpm[] = {
"124 124 80 1",
" 	c #5B3E00",
".	c #5C3F01",
"+	c #644709",
"@	c #634608",
"#	c #5D4002",
"$	c #A28545",
"%	c #997C3C",
"&	c #6D5011",
"*	c #000000",
"=	c #0E0906",
"-	c #170E0A",
";	c #110B07",
">	c #3A2318",
",	c #5C3826",
"'	c #452A1D",
")	c #614405",
"!	c #876A2B",
"~	c #42281B",
"{	c #583524",
"]	c #3E261A",
"^	c #0C0C0C",
"/	c #0E0E0E",
"(	c #100F0F",
"_	c #060606",
":	c #513121",
"<	c #0C0705",
"[	c #191818",
"}	c #282626",
"|	c #0A0A0A",
"1	c #5F4204",
"2	c #7F6223",
"3	c #2E1C13",
"4	c #563524",
"5	c #342015",
"6	c #141313",
"7	c #23150E",
"8	c #4E2F20",
"9	c #1A100B",
"0	c #090504",
"a	c #2B2B2B",
"b	c #727272",
"c	c #B9B9B9",
"d	c #FFFFFF",
"e	c #404040",
"f	c #232121",
"g	c #808080",
"h	c #FFFDFD",
"i	c #313131",
"j	c #848484",
"k	c #B1B1B1",
"l	c #DFDFDF",
"m	c #F3F3F3",
"n	c #1E1E1E",
"o	c #EDEDED",
"p	c #EAEAEA",
"q	c #606060",
"r	c #9F9F9F",
"s	c #565656",
"t	c #4A4A4A",
"u	c #959595",
"v	c #BFBFBF",
"w	c #807F7F",
"x	c #3C3C3C",
"y	c #505050",
"z	c #7E7E7E",
"A	c #CACACA",
"B	c #AAAAAA",
"C	c #161515",
"D	c #605F5F",
"E	c #474747",
"F	c #2E2E2E",
"G	c #A7A7A7",
"H	c #242424",
"I	c #737373",
"J	c #101010",
"K	c #383838",
"L	c #060402",
"M	c #1E1D1D",
"N	c #2B1A12",
"O	c #1D120C",
"                                                                                                                            ",
"                                                                                                                            ",
"                                                                                                                            ",
"   .+++++++++++++++++++++++++++++++++++++++++++++++++++++++++++++@   #++++++++++++++++++++++++++@   #+++++++++++++++++++.   ",
"   +$$$$$$$$$$$$$$$$$$$$$$$$$$$$$$$$$$$$$$$$$$$$$$$$$$$$$$$$$$$$$%   &$$$$$$$$$$$$$$$$$$$$$$$$$$%   &$$$$$$$$$$$$$$$$$$$+   ",
"   +$$$$$$$$$$$$$$$$$$$$$$$$$$$$$$$$$$$$$$$$$$$$$$$$$$$$$$$$$$$$$%   &$$$$$$$$$$$$$$$$$$$$$$$$$$%   &$$$$$$$$$$$$$$$$$$$+   ",
"   +$$$$$$$$$$$$$$$$$$$$$$$$$$$$$$$$$$$$$$$$$$$$$$$$$$$$$$$$$$$$$%   &$$$$$$$$$$$$$$$$$$$$$$$$$$%   &$$$$$$$$$$$$$$$$$$$+   ",
"   +$$$$$$$$$$$$$$$$$$$$$$$$$$$$$$$$$$$$$$$$$$$$$$$$$$$$$$$$$$$$$%   &$$$$$$$$$$$$$$$$$$$$$$$$$$%   &$$$$$$$$$$$$$$$$$$$+   ",
"   +$$$$$$$$$$$$$$$$$$$$$$$$$$$$$$$$$$$$$$$$$$$$$$$$$$$$$$$$$$$$$%   &$$$$$$$$$$$$$$$$$$$$$$$$$$%   &$$$$$$$$$$$$$$$$$$$+   ",
"   +$$$$$$$$$$$$$$$$$$$$$$$$$$$$$$$$$$$$$$$$$$$$$$$$$$$$$$$$$$$$$%   &$$$$$$$$$$$$$$$$$$$$$$$$$$%   &$$$$$$$$$$$$$$$$$$$+   ",
"   +$$$$$$$$$$$$$$$$$$$$$$$$$$$$$$$$$$$$$$$$$$$$$$$$$$$$$$$$$$$$$%   &$$$$$$$$$$$$$$$$$$$$$$$$$$%   &$$$$$$$$$$$$$$$$$$$+   ",
"   +$$$$$$$$$$$$$$$$$$$$$$$$$$$$$$$$$$$$$$$$$$$$$$$$$$$$$$$$$$$$$%   &$$$$$$$$$$$$$$$$$$$$$$$$$$%   &$$$$$$$$$$$$$$$$$$$+   ",
"   +$$$$$$$$$$$$$$$$$$$$$$$$$$$$$$$$$$$$$$$$$$$***$$$$$$$$$$$$$$$%   &$$$$$$$$$$$$$$$$$$$$$$$$$$%   &$$$$$$$$$$$$$$$$$$$+   ",
"   +$$$$$$$$$$$$$$$$$$$$$$$$$$$$$$$$$$$$$$$$$$$***$$$$$$$$$$$$$$$%   &$$$$$$$$$$$$$$$$$$$$$$$$$$%   &$$$$$$$$$$$$$$$$$$$+   ",
"   +$$$$$$$$$$$$$$$$$$$$$$$$$$$$$$$$$$$$$$$$$$$***$$$$$$$$$$$$$$$%   &$$$$$$$$$$$$$$$$$$$$$$$$$$%   &$$$$$$$$$$$$$$$$$$$+   ",
"   +$$$$$$$$$$$$$$$$$$$$$$$$$$$$$$$$$$$$$$$$$$$$$$$$$$$$$$$$$$$$$%   &$$$$$$$$$$$$$$$$$$$$$$$$$$%   &$$$$$$$$$$$$$$$$$$$+   ",
"   +$$$$$$$$$$$$$$$$$$$$$$$$$$$$$$$$$$$$$$$$$$$$$$********$$$$$$$%****$$$$$$$$$$$$$$$$$$$$$$$$$$%   &$$$$$$$$$$$$$$$$$$$+   ",
"   +$$$$$$$$$$$$$$$$$$$$$$$$$$$$$$$$$$$$$$$$$$$$$$********$$$$$$$%****$$$$$$$$$$$$$$$$$$$$$$$$$$%   &$$$$$$$$$$$$$$$$$$$+   ",
"   +$$$$$$$$$$$$$$$$$$$$$$$$$$$$$$$$$$$$$$$$$$$$$$********$$$$$$$%****$$$$$$$$$$$$$$$$$$$$$$$$$$%   &$$$$$$$$$$$$$$$$$$$+   ",
"   +$$$$$$$$$$$$$$$$$$$$***$$$$$$$$**************************************$$$$$$$$$$$$$$$$$$$$$$$%   &$$$$$$$$$$$$$$$$$$$+   ",
"   +$$$$$$$$$$$$$$$$$$$****$$$$$$$$***************************************$$$$$$$$$$$$$$$$$$$$$$%   &$$$$$$$$$$$$$$$$$$$+   ",
"   +$$$$$$$$$$$$$$$$$$$****$$$$$$$$***************************************$$$$$$$$$$$$$$$$$$$$$$%   &$$$$$$$$$$$$$$$$$$$+   ",
"   +$$$$$$$$$$$$$$$$$$$****$$$$$$$$***************************************$$$$$$$$$$$$$$$$$$$$$$%   &$$$$$$$$$$$$$$$$$$$+   ",
"   +$$$$$$$$$$$$$$$$$$$$$$$***********************************************$$$$$$$$$$$$$$$$$$$$$$%   &$$$$$$$$$$$$$$$$$$$+   ",
"   +$$$$$$$$$$$$$$$$$$$$$$$***********************************************$$$$$$$$$$$$$$$$$$$$$$%   &$$$$$$$$$$$$$$$$$$$+   ",
"   +$$$$$$$$$$$$$$$$$$$$$$$***********************************************$$$$$$$$$$$$$$$$$$$$$$%   &$$$$$$$$$$$$$$$$$$$+   ",
"   +$$$$$$$$$$$$$$$$$$$$$$$***********************************************$$$$$$$$$$$$$$$$$$$$$$%   &$$$$$$$$$$$$$$$$$$$+   ",
"   +$$$$$$$$$$$$$$$$$$$$$$$$$$$$$$$***************************************$$$$$$$$$$$$$$$$$$$$$$%   &$$$$$$$$$$$$$$$$$$$+   ",
"   +$$$$$$$$$$$$$$$$$$$$$$$$$$$$$$$***************************************$$$$$$$$$$$$$$$$$$$$$$%   &$$$$$$$$$$$$$$$$$$$+   ",
"   +$$$$$$$$$$$$$$$$$$$$$$$$$$$$$$$***************************************$$$$$$$$$$$$$$$$$$$$$$%   &$$$$$$$$$$$$$$$$$$$+   ",
"   +$$$$$$$$$$$$$$$$$$$$$$$$$$$$$$$***************************************$$$$$$$$$$$$$$$$$$$$$$%   &$$$$$$$$$$$$$$$$$$$+   ",
"   +$$$$$$$$$$$$$$$$$$$$$$$$$$$$$$$$$$$**************************************$$$$$$$$$$$$$$$$$$$%   &$$$$$$$$$$$$$$$$$$$+   ",
"   +$$$$$$$$$$$$$$$$$$$$$$$$$$$$$$$$$$$**************************************$$$$$$$$$$$$$$$$$$$%   &$$$$$$$$$$$$$$$$$$$+   ",
"   +$$$$$$$$$$$$$$$$$$$$$$$$$$$$$$$$$$$**************************************$$$$$$$$$$$$$$$$$$$%   &$$$$$$$$$$$$$$$$$$$+   ",
"   +$$$$$$$$$$$$$$$$$$$$$$$$$$$$$$$$$$$**************************************$$$$$$$$$$$$$$$$$$$%   &$$$$$$$$$$$$$$$$$$$+   ",
"   +$$$$$$$$$$$$$$$$$$$$$$$$$$$$$$$$$$$$$$$$$$$******************************$$$$$$$$$$$$$$$$$$$%   &$$$$$$$$$$$$$$$$$$$+   ",
"   +$$$$$$$$$$$$$$$$$$$$$$$$$$$$$$$$$$$$$$$$$$$******************************$$$$$$$$$$$$$$$$$$$%   &$$$$$$$$$$$$$$$$$$$+   ",
"   +$$$$$$$$$$$$$$$$$$$$$$$$$$$$$$$$$$$$$$$$$$$******************************$$$$$$$$$$$$$$$$$$$%   &$$$$$$$$$$$$$$$$$$$+   ",
"   +$$$$$$$$$$$$$$$$$$$$$$$$$$$$$$$$$$$$$$$$$$$***=------------------;*******$$$$$$$$$$$$$$$$$$$%   &$$$$$$$$$$$$$$$$$$$+   ",
"   +$$$$$$$$$$$$$$$$$$$$$$$$$$$$$$$$$$$$$$$$$$$***>,,,,,,,,,,,,,,,,,,'*******$$$$********$$$$$$$%   &$$$$$$$$$$$$$$$$$$$+   ",
"   +$$$$$$$$$$$$$$$$$$$$$$$$$$$$$$$$$$$$$$$$$$$***>,,,,,,,,,,,,,,,,,,'*******$$$$********$$$$$$$%   &$$$$$$$$$$$$$$$$$$$+   ",
"   +$$$$$$$$$$$$$$$$$$$$$$$$$$$$$$$$$$$$$$$$$$$***>,,,,,,,,,,,,,,,,,,'*******$$$$********$$$$$$$%   &$$$$$$$$$$$$$$$$$$$+   ",
"   )!!!!!!!!!!!!!!!!!!!!!!!!!!!!!!!!!!!!!!!!!!!***>,,,~>>>{,,,>>>],,,'*******$$$$^/(/_***$$$$$$$%   &$$$$$$$$$$$$$$$$$$$+   ",
"                                               ***>,,,-***:,,,***<,,,'****$$$$***[}}}|***$$$$$$$%   &$$$$$$$$$$$$$$$$$$$+   ",
"                                               ***>,,,-***:,,,***<,,,'****$$$$***[}}}|***$$$$$$$%   &$$$$$$$$$$$$$$$$$$$+   ",
"                                               ***>,,,-***:,,,***<,,,'****$$$$***[}}}|***$$$$$$$%   &$$$$$$$$$$$$$$$$$$$+   ",
"   1222222222222222222222222222   1222222222222***>,,,>3334,,,3335,,,'****$$$/6666666|$$$$$$$$$$%   &$$$$$$$$$$$$$$$$$$$+   ",
"   +$$$$$$$$$$$$$$$$$$$$$$$$$$$   +$$$$$$$$$$$$***>,,,,,,,,,,,,,,,,,,'*******6}}}/***$$$$$$$$$$$%   &$$$$$$$$$$$$$$$$$$$+   ",
"   +$$$$$$$$$$$$$$$$$$$$$$$$$$$   +$$$$$$$$$$$$***>,,,,,,,,,,,,,,,,,,'*******6}}}/***$$$$$$$$$$$%   &$$$$$$$$$$$$$$$$$$$+   ",
"   +$$$$$$$$$$$$$$$$$$$$$$$$$$$   +$$$$$$$$$$$$***>,,,,,,,,,,,,,,,,,,'*******6}}}/***$$$$$$$$$$$%   &$$$$$$$$$$$$$$$$$$$+   ",
"   +$$$$$$$$$$$$$$$$$$$$$$$$$$$   +$$$$$$$$$$$$***-7778,,,,,,,,,,47779***|[[[6//(|$$$$$$$$$$$$$$%   &$$$$$$$$$$$$$$$$$$$+   ",
"   +$$$$$$$$$$$$$$$$$$$$$$$$$$$   +$$$$$$$$$$$$*******',,,,,,,,,,:*******/}}}6***$$$$$$$$$$$$$$$%   &$$$$$$$$$$$$$$$$$$$+   ",
"   +$$$$$$$$$$$$$$$$$$$$$$$$$$$   +$$$$$$$$$$$$*******',,,,,,,,,,:*******/}}}6***$$$$$$$$$$$$$$$%   &$$$$$$$$$$$$$$$$$$$+   ",
"   +$$$$$$$$$$$$$$$$$$$$$$$$$$$   +$$$$$$$$$$$$*******',,,,,,,,,,:*******/}}}6***$$$$$$$$$$$$$$$%   &$$$$$$$$$$$$$$$$$$$+   ",
"   +$$$$$$$$$$$$$$$$$$$$$$$$$$$   +$$$$$$$$$$$$*******',,,,,,,,,,:*******_||||$$$$$$$$$$$$$$$$$$%   &$$$$$$$$$$$$$$$$$$$+   ",
"   +$$$$$$$$$$$$$$$$$$$$$$$$$$$   +$$$$$$$$$$$$*******',,,,,,,,,,:***********$$$$$$$$$$$$$$$$$$$%   &$$$$$$$$$$$$$$$$$$$+   ",
"   +$$$$$$$$$$$$$$$$$$$$$$$$$$$   +$$$$$$$$$$$$*******',,,,,,,,,,:***********$$$$$$$$$$$$$$$$$$$%   &$$$$$$$$$$$$$$$$$$$+   ",
"   +$$$$$$$$$$$$$$$$$$$$$$$$$$$   +$$$$$$$$$$$$*******',,,,,,,,,,:***********$$$$$$$$$$$$$$$$$$$%   &$$$$$$$$$$$$$$$$$$$+   ",
"   +$$$$$$$$$$$$$$$$$$$$$$$$$$$   +$$$$$$$$***********0<<<<<<<<<<0***********$$$$$$$$$$$$$$$$$$$%   &$$$$$$$$$$$$$$$$$$$+   ",
"   +$$$$$$$$$$$$$$$$$$$$$$$$$$$   +$$$$$$$$**********************************$$$$$$$$$$$$$$$$$$$%   &$$$$$$$$$$$$$$$$$$$+   ",
"   +$$$$$$$$$$$$$$$$$$$$$$$$$$$   +$$$$$$$$**********************************$$$$$$$$$$$$$$$$$$$%   &$$$$$$$$$$$$$$$$$$$+   ",
"   +$$$$$$$$$$$$$$$$$$$$$$$$$$$   +$$$$$$$$**********************************$$$$$$$$$$$$$$$$$$$%   &$$$$$$$$$$$$$$$$$$$+   ",
"   +$$$$$$$$$$$$$$$$$$$$$$$$$$$   +$$$$***abbbcddddddde***:,,,***fdddddddddddg***$$$$$$$$$$$$$$$%   &$$$$$$$$$$$$$$$$$$$+   ",
"   +$$$$$$$$$$$$$$$$$$$$$$$$$$$   +$$$$***abbbcddddddde***:,,,***fdddddddddddg***$$$$$$$$$$$$$$$%   &$$$$$$$$$$$$$$$$$$$+   ",
"   +$$$$$$$$$$$$$$$$$$$$$$$$$$$   +$$$$***abbbcddddddde***:,,,***fddddddhhhhhg***$$$$$$$$$$$$$$$%   &$$$$$$$$$$$$$$$$$$$+   ",
"   +$$$$$$$$$$$$$$$$$$$$$$$$$$$   +$$$$***ijjjklllmddde***':::***nooopllpphhhg***$$$$$$$$$$$$$$$%   &$$$$$$$$$$$$$$$$$$$+   ",
"   +$$$$$$$$$$$$$$$$$$$$$$$$$$$   +$$$$***qdddg***rddde**********/bbbs***qddhg***$$$$$$$$$$$$$$$%   &$$$$$$$$$$$$$$$$$$$+   ",
"   +$$$$$$$$$$$$$$$$$$$$$$$$$$$   +$$$$***qdddg***rddde**********/bbbs***qddhg***$$$$$$$$$$$$$$$%   &$$$$$$$$$$$$$$$$$$$+   ",
"   +$$$$$$$$$$$$$$$$$$$$$$$$$$$   +$$$$***qdddg***rddde**********/bbbs***qdddg***$$$$$$$$$$$$$$$%   &$$$$$$$$$$$$$$$$$$$+   ",
"   +$$$$$$$$$$$$$$$$$$$$$$$$$$$   +$$$$***qdddg***rdddbeee|***eeetuuub***qdddg***$$$$$$$$$$$$$$$%   &$$$$$$$$$$$$$$$$$$$+   ",
"   +$$$$$$$$$$$$$$$$$$$$$$$$$$$   +$$$$***qdddg***rdddddddf***dddddddv***qdddg***$$$$$$$$$$$$$$$%   &$$$$$$$$$$$$$$$$$$$+   ",
"   +$$$$$$$$$$$$$$$$$$$$$$$$$$$   +$$$$***qdddg***rdddddddn***dddddddv***qdddg***$$$$$$$$$$$$$$$%   &$$$$$$$$$$$$$$$$$$$+   ",
"   +$$$$$$$$$$$$$$$$$$$$$$$$$$$   +$$$$***qdddg***rdddddddn***dddddddv***qdddw***$$$$$$$$$$$$$$$%   &$$$$$$$$$$$$$$$$$$$+   ",
"   +$$$$$$$$$$$$$$$$$$$$$$$$$$$   +$$$$***xrrry***zAAABrrrC***dddddddv***Ddddw***$$$$$$$$$$$$$$$%   &$$$$$$$$$$$$$$$$$$$+   ",
"   +$$$$$$$$$$$$$$$$$$$$$$$$$$$   +$$$$***********Ebbbn*******dddddddv***Ddhdw***$$$$$$$$$$$$$$$%   &$$$$$$$$$$$$$$$$$$$+   ",
"   +$$$$$$$$$$$$$$$$$$$$$$$$$$$   +$$$$***********Ebbbn*******dddddddv***Dhhdw***$$$$$$$$$$$$$$$%   &$$$$$$$$$$$$$$$$$$$+   ",
"   +$$$$$$$$$$$$$$$$$$$$$$$$$$$   +$$$$***********tbbbn*******dddddddv***Ddhhw***$$$$$$$$$$$$$$$%   &$$$$$$$$$$$$$$$$$$$+   ",
"   +$$$$$$$$$$$$$$$$$$$$$$$$$$$   +$$$$***;333-***bcccF***bggzdddddddv***Ddddw***$$$$$$$$$$$$$$$%   &$$$$$$$$$$$$$$$$$$$+   ",
"   +$$$$$$$$$$$$$$$$$$$$$$$$$$$   +$$$$***7,,,3***rdddx***lddddddddddv***qdddw***$$$$$$$$$$$$$$$%   &$$$$$$$$$$$$$$$$$$$+   ",
"   +$$$$$$$$$$$$$$$$$$$$$$$$$$$   +$$$$***7,,,3***rddde***lddddddddddv***qdddw***$$$$$$$$$$$$$$$%   &$$$$$$$$$$$$$$$$$$$+   ",
"   +$$$$$$$$$$$$$$$$$$$$$$$$$$$   +$$$$***7,,,3***rddde***lddddddddddv***qdddg***$$$$$$$$$$$$$$$%   &$$$$$$$$$$$$$$$$$$$+   ",
"   +$$$$$$$$$$$$$$$$$$$$$$$$$$$   +$$$$***=777;***rddde***lddddddmGGGz***Hqqqi***$$$$$$$$$$$$$$$%   &$$$$$$$$$$$$$$$$$$$+   ",
"   +$$$$$$$$$$$$$$$$$$$$$$$$$$$   +$$$$***********rddde***lddddddobbbs***********$$$$$$$$$$$$$$$%   &$$$$$$$$$$$$$$$$$$$+   ",
"   +$$$$$$$$$$$$$$$$$$$$$$$$$$$   +$$$$***********rddde***lddddddobbbs***********$$$$$$$$$$$$$$$%   &$$$$$$$$$$$$$$$$$$$+   ",
"   +$$$$$$$$$$$$$$$$$$$$$$$$$$$   +$$$$***********rddde***lddddddoIbbs***********$$$$$$$$$$$$$$$%   &$$$$$$$$$$$$$$$$$$$+   ",
"   +$$$$$$$$$$$$$$$$$$$$$$$$$$$   +$$$$$$$$$$$****aeeeJ***KeeeeeeKnnnC***9'''7***$$$$$$$$$$$$$$$%   &$$$$$$$$$$$$$$$$$$$+   ",
"   +$$$$$$$$$$$$$$$$$$$$$$$$$$$   +$$$$$$$$$$$$**************************7,,,3***$$$$$$$$$$$$$$$%   &$$$$$$$$$$$$$$$$$$$+   ",
"   +$$$$$$$$$$$$$$$$$$$$$$$$$$$   +$$$$$$$$$$$$**************************7,,,3***$$$$$$$$$$$$$$$%   &$$$$$$$$$$$$$$$$$$$+   ",
"   +$$$$$$$$$$$$$$$$$$$$$$$$$$$   +$$$$$$$$$$$$**************************7,,,3***$$$$$$$$$$$$$$$%   &$$$$$$$$$$$$$$$$$$$+   ",
"   +$$$$$$$$$$$$$$$$$$$$$$$$$$$   +$$$$$$$$$$$$***Cffffffffffffffffff[***_0=0L***$$$$$$$$$$$$$$$%   &$$$$$$$$$$$$$$$$$$$+   ",
"   +$$$$$$$$$$$$$$$$$$$$$$$$$$$   +$$$$$$$$$$$$***[}}}}}}}}}}}}}}}}}}n***********$$$$$$$$$$$$$$$%   &$$$$$$$$$$$$$$$$$$$+   ",
"   +$$$$$$$$$$$$$$$$$$$$$$$$$$$   +$$$$$$$$$$$$***[}}}}}}}}}}}}}}}}}}n***********$$$$$$$$$$$$$$$%   &$$$$$$$$$$$$$$$$$$$+   ",
"   +$$$$$$$$$$$$$$$$$$$$$$$$$$$   +$$$$$$$$$$$$***[}}}}}}}}}}}}}}}}}}M***********$$$$$$$$$$$$$$$%   &$$$$$$$$$$$$$$$$$$$+   ",
"   +$$$$$$$$$$$$$$$$$$$$$$$$$$$   +$$$$$$$$$$$$***[}}}|**********_}}}n****                                                  ",
"   +$$$$$$$$$$$$$$$$$$$$$$$$$$$   +$$$$$$$$$$$$***[}}}|**********_}}}n****                                                  ",
"   +$$$$$$$$$$$$$$$$$$$$$$$$$$$   +$$$$$$$$$$$$***[}}}|**********_}}}n****                                                  ",
"   +$$$$$$$$$$$$$$$$$$$$$$$$$$$   +$$$$$$$$$$$$***[}}}|**********_fff[****++++++++++++++++++++++++++++++++++++++++++++++.   ",
"   +$$$$$$$$$$$$$$$$$$$$$$$$$$$   +$$$$$$$$$$$$***[}}}|***$$$$************$$$$$$$$$$$$$$$$$$$$$$$$$$$$$$$$$$$$$$$$$$$$$$+   ",
"   +$$$$$$$$$$$$$$$$$$$$$$$$$$$   +$$$$$$$$$$$$***[}}}|***$$$$************$$$$$$$$$$$$$$$$$$$$$$$$$$$$$$$$$$$$$$$$$$$$$$+   ",
"   +$$$$$$$$$$$$$$$$$$$$$$$$$$$   +$$$$$$$$$$$$***[}}}|***$$$$************$$$$$$$$$$$$$$$$$$$$$$$$$$$$$$$$$$$$$$$$$$$$$$+   ",
"   +$$$$$$$$$$$$$$$$$$$$$$$$$$$   +$$$$$$$$$$$$***[}}}|***$$$$****---;****$$$$$$$$$$$$$$$$$$$$$$$$$$$$$$$$$$$$$$$$$$$$$$+   ",
"   +$$$$$$$$$$$$$$$$$$$$$$$$$$$   +$$$$$$$$$$$$***[}}}|***$$$$***=,,,'****$$$$$$$$$$$$$$$$$$$$$$$$$$$$$$$$$$$$$$$$$$$$$$+   ",
"   +$$$$$$$$$$$$$$$$$$$$$$$$$$$   +$$$$$$$$$$$$***[}}}|***$$$$***<,,,'****$$$$$$$$$$$$$$$$$$$$$$$$$$$$$$$$$$$$$$$$$$$$$$+   ",
"   +$$$$$$$$$$$$$$$$$$$$$$$$$$$   +$$$$$$$$$$$$***[}}}|***$$$$***<,,,'****$$$$$$$$$$$$$$$$$$$$$$$$$$$$$$$$$$$$$$$$$$$$$$+   ",
"   +$$$$$$$$$$$$$$$$$$$$$$$$$$$   +$$$$$$$$$$$$***([[[_***$$$$***0>>>N****$$$$$$$$$$$$$$$$$$$$$$$$$$$$$$$$$$$$$$$$$$$$$$+   ",
"   +$$$$$$$$$$$$$$$$$$$$$$$$$$$   +$$$$$$$$$$$$***********$$$$************$$$$$$$$$$$$$$$$$$$$$$$$$$$$$$$$$$$$$$$$$$$$$$+   ",
"   +$$$$$$$$$$$$$$$$$$$$$$$$$$$   +$$$$$$$$$$$$***********$$$$************$$$$$$$$$$$$$$$$$$$$$$$$$$$$$$$$$$$$$$$$$$$$$$+   ",
"   +$$$$$$$$$$$$$$$$$$$$$$$$$$$   +$$$$$$$$$$$$***********$$$$************$$$$$$$$$$$$$$$$$$$$$$$$$$$$$$$$$$$$$$$$$$$$$$+   ",
"   +$$$$$$$$$$$$$$$$$$$$$$$$$$$   +$$$$$$$$$$$$***O333<***$$$$$$$%   &$$$$$$$$$$$$$$$$$$$$$$$$$$$$$$$$$$$$$$$$$$$$$$$$$$+   ",
"   +$$$$$$$$$$$$$$$$$$$$$$$$$$$   +$$$$$$$$$$$$***>,,,-***$$$$$$$%   &$$$$$$$$$$$$$$$$$$$$$$$$$$$$$$$$$$$$$$$$$$$$$$$$$$+   ",
"   +$$$$$$$$$$$$$$$$$$$$$$$$$$$   +$$$$$$$$$$$$***>,,,-***$$$$$$$%   &$$$$$$$$$$$$$$$$$$$$$$$$$$$$$$$$$$$$$$$$$$$$$$$$$$+   ",
"   +$$$$$$$$$$$$$$$$$$$$$$$$$$$   +$$$$$$$$$$$$***>,,,-***$$$$$$$%   &$$$$$$$$$$$$$$$$$$$$$$$$$$$$$$$$$$$$$$$$$$$$$$$$$$+   ",
"   +$$$$$$$$$$$$$$$$$$$$$$$$$$$   +$$$$$$$$$$$$***-7770***$$$$$$$%   &$$$$$$$$$$$$$$$$$$$$$$$$$$$$$$$$$$$$$$$$$$$$$$$$$$+   ",
"   +$$$$$$$$$$$$$$$$$$$$$$$$$$$   +$$$$$$$$$$$$***********$$$$$$$%   &$$$$$$$$$$$$$$$$$$$$$$$$$$$$$$$$$$$$$$$$$$$$$$$$$$+   ",
"   +$$$$$$$$$$$$$$$$$$$$$$$$$$$   +$$$$$$$$$$$$***********$$$$$$$%   &$$$$$$$$$$$$$$$$$$$$$$$$$$$$$$$$$$$$$$$$$$$$$$$$$$+   ",
"   +$$$$$$$$$$$$$$$$$$$$$$$$$$$   +$$$$$$$$$$$$***********$$$$$$$%   &$$$$$$$$$$$$$$$$$$$$$$$$$$$$$$$$$$$$$$$$$$$$$$$$$$+   ",
"   +$$$$$$$$$$$$$$$$$$$$$$$$$$$   +$$$$$$$$$$$$$$$$$$$$$$$$$$$$$$%   &$$$$$$$$$$$$$$$$$$$$$$$$$$$$$$$$$$$$$$$$$$$$$$$$$$+   ",
"   +$$$$$$$$$$$$$$$$$$$$$$$$$$$   +$$$$$$$$$$$$$$$$$$$$$$$$$$$$$$%   &$$$$$$$$$$$$$$$$$$$$$$$$$$$$$$$$$$$$$$$$$$$$$$$$$$+   ",
"   +$$$$$$$$$$$$$$$$$$$$$$$$$$$   +$$$$$$$$$$$$$$$$$$$$$$$$$$$$$$%   &$$$$$$$$$$$$$$$$$$$$$$$$$$$$$$$$$$$$$$$$$$$$$$$$$$+   ",
"   +$$$$$$$$$$$$$$$$$$$$$$$$$$$   +$$$$$$$$$$$$$$$$$$$$$$$$$$$$$$%   &$$$$$$$$$$$$$$$$$$$$$$$$$$$$$$$$$$$$$$$$$$$$$$$$$$+   ",
"   .+++++++++++++++++++++++++++   .++++++++++++++++++++++++++++++@   #++++++++++++++++++++++++++++++++++++++++++++++++++.   ",
"                                                                                                                            ",
"                                                                                                                            ",
"                                                                                                                            "};
