/* XPM */
static char * wr1_xpm[] = {
"124 124 81 1",
" 	c #5B3E00",
".	c #5C3F01",
"+	c #644709",
"@	c #634608",
"#	c #5D4002",
"$	c #A28545",
"%	c #997C3C",
"&	c #6D5011",
"*	c #000000",
"=	c #170E0A",
"-	c #190F0A",
";	c #0C0705",
">	c #5C3826",
",	c #2E1C13",
"'	c #614405",
")	c #876A2B",
"!	c #533322",
"~	c #3A2318",
"{	c #452A1D",
"]	c #23150E",
"^	c #0A0604",
"/	c #5F4204",
"(	c #7F6223",
"_	c #050505",
":	c #141313",
"<	c #0F0F0F",
"[	c #352016",
"}	c #513121",
"|	c #2A1911",
"1	c #0A0A0A",
"2	c #282626",
"3	c #191818",
"4	c #101010",
"5	c #131212",
"6	c #4B2E1F",
"7	c #1C110C",
"8	c #1E1D1D",
"9	c #301D14",
"0	c #100A07",
"a	c #181717",
"b	c #232121",
"c	c #040302",
"d	c #BFBFBF",
"e	c #FFFFFF",
"f	c #BABABA",
"g	c #EDEDED",
"h	c #342015",
"i	c #A7A7A7",
"j	c #959595",
"k	c #727272",
"l	c #808080",
"m	c #606060",
"n	c #9F9F9F",
"o	c #FDFDFD",
"p	c #B0B0B0",
"q	c #404040",
"r	c #3F3F3F",
"s	c #303030",
"t	c #8F8F8F",
"u	c #DCDCDC",
"v	c #525252",
"w	c #B9B9B9",
"x	c #2B2B2B",
"y	c #D3D3D3",
"z	c #535353",
"A	c #202020",
"B	c #040404",
"C	c #6C615C",
"D	c #AE9C93",
"E	c #3E2C23",
"F	c #60524B",
"G	c #998377",
"H	c #26211E",
"I	c #393939",
"J	c #20130D",
"K	c #070403",
"L	c #242222",
"M	c #181818",
"N	c #18100C",
"O	c #352B26",
"P	c #2A201B",
"                                                                                                                            ",
"                                                                                                                            ",
"                                                                                                                            ",
"   .+++++++++++++++++++++++++++++++++++++++++++++++++++++++++++++@   #++++++++++++++++++++++++++@   #+++++++++++++++++++.   ",
"   +$$$$$$$$$$$$$$$$$$$$$$$$$$$$$$$$$$$$$$$$$$$$$$$$$$$$$$$$$$$$$%   &$$$$$$$$$$$$$$$$$$$$$$$$$$%   &$$$$$$$$$$$$$$$$$$$+   ",
"   +$$$$$$$$$$$$$$$$$$$$$$$$$$$$$$$$$$$$$$$$$$$$$$$$$$$$$$$$$$$$$%   &$$$$$$$$$$$$$$$$$$$$$$$$$$%   &$$$$$$$$$$$$$$$$$$$+   ",
"   +$$$$$$$$$$$$$$$$$$$$$$$$$$$$$$$$$$$$$$$$$$$$$$$$$$$$$$$$$$$$$%   &$$$$$$$$$$$$$$$$$$$$$$$$$$%   &$$$$$$$$$$$$$$$$$$$+   ",
"   +$$$$$$$$$$$$$$$$$$$$$$$$$$$$$$$$$$$$$$$$$$$$$$$$$$$$$$$$$$$$$%   &$$$$$$$$$$$$$$$$$$$$$$$$$$%   &$$$$$$$$$$$$$$$$$$$+   ",
"   +$$$$$$$$$$$$$$$$$$$$$$$$$$$$$$$$$$$$$$$$$$$$$$$$$$$$$$$$$$$$$%   &$$$$$$$$$$$$$$$$$$$$$$$$$$%   &$$$$$$$$$$$$$$$$$$$+   ",
"   +$$$$$$$$$$$$$$$$$$$$$$$$$$$$$$$$$$$$$$$$$$$$$$$$$$$$$$$$$$$$$%   &$$$$$$$$$$$$$$$$$$$$$$$$$$%   &$$$$$$$$$$$$$$$$$$$+   ",
"   +$$$$$$$$$$$$$$$$$$$$$$$$$$$$$$$$$$$$$$$$$$$$$$$$$$$$$$$$$$$$$%   &$$$$$$$$$$$$$$$$$$$$$$$$$$%   &$$$$$$$$$$$$$$$$$$$+   ",
"   +$$$$$$$$$$$$$$$$$$$$$$$$$$$$$$$$$$$$$$$$$$$$$$$$$$$$$$$$$$$$$%   &$$$$$$$$$$$$$$$$$$$$$$$$$$%   &$$$$$$$$$$$$$$$$$$$+   ",
"   +$$$$$$$$$$$$$$$$$$$$$$$$$$$$$$$$$$$$$$$$$$$$$$$$$$****$$$$$$$%   &$$$$$$$$$$$$$$$$$$$$$$$$$$%   &$$$$$$$$$$$$$$$$$$$+   ",
"   +$$$$$$$$$$$$$$$$$$$$$$$$$$$$$$$$$$$$$$$$$$$$$$$$$$****$$$$$$$%   &$$$$$$$$$$$$$$$$$$$$$$$$$$%   &$$$$$$$$$$$$$$$$$$$+   ",
"   +$$$$$$$$$$$$$$$$$$$$$$$$$$$$$$$$$$$$$$$$$$$$$$$$$$****$$$$$$$%   &$$$$$$$$$$$$$$$$$$$$$$$$$$%   &$$$$$$$$$$$$$$$$$$$+   ",
"   +$$$$$$$$$$$$$$$$$$$$$$$$$$$$$$$$$$$$$$$$$$$$$$$$$$$$$$$$$$$$$%   &$$$$$$$$$$$$$$$$$$$$$$$$$$%   &$$$$$$$$$$$$$$$$$$$+   ",
"   +$$$$$$$$$$$$$$$$$$$$$$$$$$$$$$$$$$$****$$$$$$$$$$$$$$$********   &$$$$***$$$$$$$$$$$$$$$$$$$%   &$$$$$$$$$$$$$$$$$$$+   ",
"   +$$$$$$$$$$$$$$$$$$$$$$$$$$$$$$$$$$$****$$$$$$$$$$$$$$$********   &$$$$***$$$$$$$$$$$$$$$$$$$%   &$$$$$$$$$$$$$$$$$$$+   ",
"   +$$$$$$$$$$$$$$$$$$$$$$$$$$$$$$$$$$$****$$$$$$$$$$$$$$$********   &$$$$***$$$$$$$$$$$$$$$$$$$%   &$$$$$$$$$$$$$$$$$$$+   ",
"   +$$$$$$$$$$$$$$$$$$$$$$$$$$$$$$$$$$$$$$$**************************************$$$$$$$$$$$$$$$%   &$$$$$$$$$$$$$$$$$$$+   ",
"   +$$$$$$$$$$$$$$$$$$$$$$$$$$$$$$$$$$$$$$$**************************************$$$$$$$$$$$$$$$%   &$$$$$$$$$$$$$$$$$$$+   ",
"   +$$$$$$$$$$$$$$$$$$$$$$$$$$$$$$$$$$$$$$$**************************************$$$$$$$$$$$$$$$%   &$$$$$$$$$$$$$$$$$$$+   ",
"   +$$$$$$$$$$$$$$$$$$$$$$$$$$$$$$$$$$$$$$$**************************************$$$$$$$$$$$$$$$%   &$$$$$$$$$$$$$$$$$$$+   ",
"   +$$$$$$$$$$$$$$$$$$$$$$$$$$$$$$$$$$$$$$$$$$***********************************$$$$$$$$$$$$$$$%   &$$$$$$$$$$$$$$$$$$$+   ",
"   +$$$$$$$$$$$$$$$$$$$$$$$$$$$$$$$$$$$$$$$$$$$**********************************$$$$$$$$$$$$$$$%   &$$$$$$$$$$$$$$$$$$$+   ",
"   +$$$$$$$$$$$$$$$$$$$$$$$$$$$$$$$$$$$$$$$$$$$**********************************$$$$$$$$$$$$$$$%   &$$$$$$$$$$$$$$$$$$$+   ",
"   +$$$$$$$$$$$$$$$$$$$$$$$$$$$$$$$$$$$$$$$$$$$**********************************$$$$$$$$$$$$$$$%   &$$$$$$$$$$$$$$$$$$$+   ",
"   +$$$$$$$$$$$$$$$$$$$$$$$$$$$$$$$$$$$$$$$$$$$$$$*******************************$$$$$$$$$$$$$$$%   &$$$$$$$$$$$$$$$$$$$+   ",
"   +$$$$$$$$$$$$$$$$$$$$$$$$$$$$$$$$$$$$$$$$$$$$$$*******************************$$$$$$$$$$$$$$$%   &$$$$$$$$$$$$$$$$$$$+   ",
"   +$$$$$$$$$$$$$$$$$$$$$$$$$$$$$$$$$$$$$$$$$$$$$$*******************************$$$$$$$$$$$$$$$%   &$$$$$$$$$$$$$$$$$$$+   ",
"   +$$$$$$$$$$$$$$$$$$$$$$$$$$$$$$$$$$$$$$$$$$$$$$*******************************$$$$$$$$$$$$$$$%   &$$$$$$$$$$$$$$$$$$$+   ",
"   +$$$$$$$$$$$$$$$$$$$$$$$$$$$$$$$$$$$$$$$$$$$$$$$$$$*******************************$$$$$$$$$$$%   &$$$$$$$$$$$$$$$$$$$+   ",
"   +$$$$$$$$$$$$$$$$$$$$$$$$$$$$$$$$$$$$$$$$$$$$$$$$$$*******************************$$$$$$$$$$$%   &$$$$$$$$$$$$$$$$$$$+   ",
"   +$$$$$$$$$$$$$$$$$$$$$$$$$$$$$$$$$$$$$$$$$$$$$$$$$$*******************************$$$$$$$$$$$%   &$$$$$$$$$$$$$$$$$$$+   ",
"   +$$$$$$$$$$$$$$$$$$$$$$$$$$$$$$$$$$$$$$$$$$$$$$$$$$*******************************$$$$$$$$$$$%   &$$$$$$$$$$$$$$$$$$$+   ",
"   +$$$$$$$$$$$$$$$$$$$$$$$$$$$$$$$$$$$$$$$$$$$$$$$$$$*******************************$$$$$$$$$$$%   &$$$$$$$$$$$$$$$$$$$+   ",
"   +$$$$$$$$$$$$$$$$$$$$$$$$$$$$$$$$$$$$$$$$$$$$$$$$$$*******************************$$$$$$$$$$$%   &$$$$$$$$$$$$$$$$$$$+   ",
"   +$$$$$$$$$$$$$$$$$$$$$$$$$$$$$$$$$$$$$$$$$$$$$$$$$$*******************************$$$$$$$$$$$%   &$$$$$$$$$$$$$$$$$$$+   ",
"   +$$$$$$$$$$$$$$$$$$$$$$$$$$$$$$$$$$$$$$$$$$$$$$$$$$************======--===;*******$$$$$$$$$$$%   &$$$$$$$$$$$$$$$$$$$+   ",
"   +$$$$$$$$$$$$$$$$$$$$$$$$$$$$$$$$$$$$$$$$$$$$$$$$$$***********;>>>>>>>>>>>,*******$$$$$$$$$$$%   &$$$$$$$$$$$$$$$$$$$+   ",
"   +$$$$$$$$$$$$$$$$$$$$$$$$$$$$$$$$$$$$$$$$$$$$$$$$$$***********;>>>>>>>>>>>,*******$$$$$$$$$$$%   &$$$$$$$$$$$$$$$$$$$+   ",
"   +$$$$$$$$$$$$$$$$$$$$$$$$$$$$$$$$$$$$$$$$$$$$$$$$$$***********;>>>>>>>>>>>,*******$$$$$$$$$$$%   &$$$$$$$$$$$$$$$$$$$+   ",
"   '))))))))))))))))))))))))))))))))))))))))))))))))))***********;>>>!~~~{>>>,*******$$$$$$$$$$$%   &$$$$$$$$$$$$$$$$$$$+   ",
"                                   ********           ***********;>>>{***]>>>,***$$$$$$$$$$$$$$$%   &$$$$$$$$$$$$$$$$$$$+   ",
"                                   ********           ***********;>>>{***]>>>,***$$$$$$$$$$$$$$$%   &$$$$$$$$$$$$$$$$$$$+   ",
"                                   ********           ***********^>>>{***]>>>,***$$$$$$$$$$$$$$$%   &$$$$$$$$$$$$$$$$$$$+   ",
"   /(((((((((((((((((((((((((((   /***_:::<(((((((((((((((****,,,[>>>},,|{>>>,***$$$$$$$$$$$$$$$%   &$$$$$$$$$$$$$$$$$$$+   ",
"   +$$$$$$$$$$$$$$$$$$$$$$$$$$$   +***12223***$$$$$$$$$$$$****>>>>>>>>>>>>>>>,***$$$$$$$$$$$$$$$%   &$$$$$$$$$$$$$$$$$$$+   ",
"   +$$$$$$$$$$$$$$$$$$$$$$$$$$$   +***12223***$$$$$$$$$$$$****>>>>>>>>>>>>>>>,***$$$$$$$$$$$$$$$%   &$$$$$$$$$$$$$$$$$$$+   ",
"   +$$$$$$$$$$$$$$$$$$$$$$$$$$$   +***12223***$$$$$$$$$$$$****>>>>>>>>>>>>>>>,***$$$$$$$$$$$$$$$%   &$$$$$$$$$$$$$$$$$$$+   ",
"   +$$$$$$$$$$$$$$$$$$$$$$$$$$$   +$$$^4<<5333<***$$$$$$$$****]]]|>>>>>>>>>>>6~~~7***$$$$$$$$$$$%   &$$$$$$$$$$$$$$$$$$$+   ",
"   +$$$$$$$$$$$$$$$$$$$$$$$$$$$   +$$$$***<222:***$$$$$$$$*******;>>>>>>>>>>>>>>>]***$$$$$$$$$$$%   &$$$$$$$$$$$$$$$$$$$+   ",
"   +$$$$$$$$$$$$$$$$$$$$$$$$$$$   +$$$$***<222:***$$$$$$$$*******;>>>>>>>>>>>>>>>]***$$$$$$$$$$$%   &$$$$$$$$$$$$$$$$$$$+   ",
"   +$$$$$$$$$$$$$$$$$$$$$$$$$$$   +$$$$***<222:***$$$$$$$$*******;>>>>>>>>>>>>>>>]***$$$$$$$$$$$%   &$$$$$$$$$$$$$$$$$$$+   ",
"   +$$$$$$$$$$$$$$$$$$$$$$$$$$$   +$$$$$$$_111:888<***$$$$********====-=-9>>>~-==0$$$$$$$$$$$$$$%   &$$$$$$$$$$$$$$$$$$$+   ",
"   +$$$$$$$$$$$$$$$$$$$$$$$$$$$   +$$$$$$$$***:222<***$$$$***************]>>>,***$$$$$$$$$$$$$$$%   &$$$$$$$$$$$$$$$$$$$+   ",
"   +$$$$$$$$$$$$$$$$$$$$$$$$$$$   +$$$$$$$$***:222<***$$$$***************]>>>,***$$$$$$$$$$$$$$$%   &$$$$$$$$$$$$$$$$$$$+   ",
"   +$$$$$$$$$$$$$$$$$$$$$$$$$$$   +$$$$$$$$***:222<***$$$$***************]>>>,***$$$$$$$$$$$$$$$%   &$$$$$$$$$$$$$$$$$$$+   ",
"   +$$$$$$$$$$$$$$$$$$$$$$$$$$$   +$$$$$$$$$$$____abbb1*******}}}{*******c;;;^$$$$$$$$$$$$$$$$$$%   &$$$$$$$$$$$$$$$$$$$+   ",
"   +$$$$$$$$$$$$$$$$$$$$$$$$$$$   +$$$$$$$$$$$$***32221*******>>>}***********$$$$$$$$$$$$$$$$$$$%   &$$$$$$$$$$$$$$$$$$$+   ",
"   +$$$$$$$$$$$$$$$$$$$$$$$$$$$   +$$$$$$$$$$$$***32221*******>>>}***********$$$$$$$$$$$$$$$$$$$%   &$$$$$$$$$$$$$$$$$$$+   ",
"   +$$$$$$$$$$$$$$$$$$$$$$$$$$$   +$$$$$$$$$$$$***32221*******>>>}***********$$$$$$$$$$$$$$$$$$$%   &$$$$$$$$$$$$$$$$$$$+   ",
"   +$$$$$$$$$$$$$$$$$$$$$$$$$$$   +$$$$$$$$$$$$$$$****deeeeeee***;>>>>>>>~*******$$$$$$$$$$$$$$$%   &$$$$$$$$$$$$$$$$$$$+   ",
"   +$$$$$$$$$$$$$$$$$$$$$$$$$$$   +$$$$$$$$$$$$$$$****deeeeeee***;>>>>>>>~*******$$$$$$$$$$$$$$$%   &$$$$$$$$$$$$$$$$$$$+   ",
"   +$$$$$$$$$$$$$$$$$$$$$$$$$$$   +$$$$$$$$$$$$$$$****deeeeeee***^>>>>>>>~*******$$$$$$$$$$$$$$$%   &$$$$$$$$$$$$$$$$$$$+   ",
"   +$$$$$$$$$$$$$$$$$$$$$$$$$$$   +$$$$$$$$$$$$$$$88b8fgggeeee***^}}}}}}}h***58bb$$$$$$$$$$$$$$$%   &$$$$$$$$$$$$$$$$$$$+   ",
"   +$$$$$$$$$$$$$$$$$$$$$$$$$$$   +$$$$$$$$$$$$***ieeejkkkgeee***************leeem***$$$$$$$$$$$%   &$$$$$$$$$$$$$$$$$$$+   ",
"   +$$$$$$$$$$$$$$$$$$$$$$$$$$$   +$$$$$$$$$$$$***noeejkkkgeee***************leeem***$$$$$$$$$$$%   &$$$$$$$$$$$$$$$$$$$+   ",
"   +$$$$$$$$$$$$$$$$$$$$$$$$$$$   +$$$$$$$$$$$$***neeejkkkgeee**************_keeem***$$$$$$$$$$$%   &$$$$$$$$$$$$$$$$$$$+   ",
"   +$$$$$$$$$$$$$$$$$$$$$$$$$$$   +$$$$$$$$$$$$***neeepjjjfdddqqqqrrqs***3qqqtuuuv***$$$$$$$$$$$%   &$$$$$$$$$$$$$$$$$$$+   ",
"   +$$$$$$$$$$$$$$$$$$$$$$$$$$$   +$$$$$$$$$$$$***neeeeeeeb***eeeeeeow**_meeefkkkx***$$$$$$$$$$$%   &$$$$$$$$$$$$$$$$$$$+   ",
"   +$$$$$$$$$$$$$$$$$$$$$$$$$$$   +$$$$$$$$$$$$***neeeeeee8***eeeeeooy**_zeeefkkkx***$$$$$$$$$$$%   &$$$$$$$$$$$$$$$$$$$+   ",
"   +$$$$$$$$$$$$$$$$$$$$$$$$$$$   +$$$$$$$$$$$$***neeeeeeeb***eeeeeeed***meeefkkkx***$$$$$$$$$$$%   &$$$$$$$$$$$$$$$$$$$+   ",
"   +$$$$$$$$$$$$$$$$$$$$$$$$$$$   +$$$$$$$$$$$$***neeeeeeeb***eeeeeeed***meeeyiiiq****$$$$$$$$$$%   &$$$$$$$$$$$$$$$$$$$+   ",
"   +$$$$$$$$$$$$$$$$$$$$$$$$$$$   +$$$$$$$$$$$$***neeeeeee8***eeeeeeed***meeeeeeem*******$$$$$$$%   &$$$$$$$$$$$$$$$$$$$+   ",
"   +$$$$$$$$$$$$$$$$$$$$$$$$$$$   +$$$$$$$$$$$$***neeeeeeeb***eeeeeeed***meeeeeeem*******$$$$$$$%   &$$$$$$$$$$$$$$$$$$$+   ",
"   +$$$$$$$$$$$$$$$$$$$$$$$$$$$   +$$$$$$$$$$$$***neeeeeeeA***eeeeeeed***meeeeeeem**_B***$$$$$$$%   &$$$$$$$$$$$$$$$$$$$+   ",
"   +$$$$$$$$$$$$$$$$$$$$$$$$$$$   +$$$$$$$$$$$$***CDDDDDDDE,,,lllteeed***meeedllllllkb***$$$$$$$%   &$$$$$$$$$$$$$$$$$$$+   ",
"   +$$$$$$$$$$$$$$$$$$$$$$$$$$$   +$$$$$$$$$$$$***~>>>>>>>>>>>***8eeed***meeel***neeeq***$$$$$$$%   &$$$$$$$$$$$$$$$$$$$+   ",
"   +$$$$$$$$$$$$$$$$$$$$$$$$$$$   +$$$$$$$$$$$$***~>>>>>>>>>>>***beeed***meeel***neeeq***$$$$$$$%   &$$$$$$$$$$$$$$$$$$$+   ",
"   +$$$$$$$$$$$$$$$$$$$$$$$$$$$   +$$$$$$$$$$$$***~>>>>>>>>>>>***8eeed***meeel***neeeq***$$$$$$$%   &$$$$$$$$$$$$$$$$$$$+   ",
"   +$$$$$$$$$$$$$$$$$$$$$$$$$$$   +$$$$$$$$$$$$***~>>>>>>>>>>>***beeed***riiiv***FGGGH***$$$$$$$%   &$$$$$$$$$$$$$$$$$$$+   ",
"   +$$$$$$$$$$$$$$$$$$$$$$$$$$$   +$$$$$$$$$$$$***~>>>>>>>>>>>***beeed***xkkkI***~>>>=***$$$$$$$%   &$$$$$$$$$$$$$$$$$$$+   ",
"   +$$$$$$$$$$$$$$$$$$$$$$$$$$$   +$$$$$$$$$$$$***~>>>>>>>>>>>***Aeeed***xkkkI***~>>>=***$$$$$$$%   &$$$$$$$$$$$$$$$$$$$+   ",
"   +$$$$$$$$$$$$$$$$$$$$$$$$$$$   +$$$$$$$$$$$$***~>>>>>>>>>>>***8eeed***xkkkI***~>>>=***$$$$$$$%   &$$$$$$$$$$$$$$$$$$$+   ",
"   +$$$$$$$$$$$$$$$$$$$$$$$$$$$   +$$$$$$$$$$$$***~>>>>>>>J==-***1qqqs***1888<***~>>>=***$$$$$$$%   &$$$$$$$$$$$$$$$$$$$+   ",
"   +$$$$$$$$$$$$$$$$$$$$$$$$$$$   +$$$$$$$$$$$$***~>>>>>>>;**********************~>>>=***$$$$$$$%   &$$$$$$$$$$$$$$$$$$$+   ",
"   +$$$$$$$$$$$$$$$$$$$$$$$$$$$   +$$$$$$$$$$$$***~>>>>>>>;**********************~>>>=***$$$$$$$%   &$$$$$$$$$$$$$$$$$$$+   ",
"   +$$$$$$$$$$$$$$$$$$$$$$$$$$$   +$$$$$$$$$$$$***~>>>>>>>;**********************~>>>=***$$$$$$$%   &$$$$$$$$$$$$$$$$$$$+   ",
"   +$$$$$$$$$$$$$$$$$$$$$$$$$$$   +$$$$$$$$$$$$$$$^;;;;;;;***************<bbb5***K;;;$$$$$$$$$$$%   &$$$$$$$$$$$$$$$$$$$+   ",
"   +$$$$$$$$$$$$$$$$$$$$$$$$$$$   +$$$$$$$$$$$$$$$***********************<222:*******$$$$$$$$$$$%   &$$$$$$$$$$$$$$$$$$$+   ",
"   +$$$$$$$$$$$$$$$$$$$$$$$$$$$   +$$$$$$$$$$$$$$$***********************<2225*******$$$$$$$$$$$%   &$$$$$$$$$$$$$$$$$$$+   ",
"   +$$$$$$$$$$$$$$$$$$$$$$$$$$$   +$$$$$$$$$$$$$$$***********************<222:*******$$$$$$$$$$$%   &$$$$$$$$$$$$$$$$$$$+   ",
"   +$$$$$$$$$$$$$$$$$$$$$$$$$$$   +$$$$$$$$$$$$$$$$$$$$$$$****22222228***<222:***                                           ",
"   +$$$$$$$$$$$$$$$$$$$$$$$$$$$   +$$$$$$$$$$$$$$$$$$$$$$$****22222228***<222:***                                           ",
"   +$$$$$$$$$$$$$$$$$$$$$$$$$$$   +$$$$$$$$$$$$$$$$$$$$$$$****22222228***<222:***                                           ",
"   +$$$$$$$$$$$$$$$$$$$$$$$$$$$   +$$$$$$$$$$$$$$$$$$$$$$$****bbbL2228___5LLb5***+++++++++++++++++++++++++++++++++++++++.   ",
"   +$$$$$$$$$$$$$$$$$$$$$$$$$$$   +$$$$$$$$$$$$$$$$$$$***********_2222222M*******$$$$$$$$$$$$$$$$$$$$$$$$$$$$$$$$$$$$$$$+   ",
"   +$$$$$$$$$$$$$$$$$$$$$$$$$$$   +$$$$$$$$$$$$$$$$$$$***********_2222222M*******$$$$$$$$$$$$$$$$$$$$$$$$$$$$$$$$$$$$$$$+   ",
"   +$$$$$$$$$$$$$$$$$$$$$$$$$$$   +$$$$$$$$$$$$$$$$$$$***********_2222222M*******$$$$$$$$$$$$$$$$$$$$$$$$$$$$$$$$$$$$$$$+   ",
"   +$$$$$$$$$$$$$$$$$$$$$$$$$$$   +$$$$$$$$$$$$$$$$$$$===========N888HOOOP===;****$$$$$$$$$$$$$$$$$$$$$$$$$$$$$$$$$$$$$$+   ",
"   +$$$$$$$$$$$$$$$$$$$$$$$$$$$   +$$$$$$$$$$$$$$$****{>>>>>>>>>>}***=>>>>>>>,*******$$$$$$$$$$$$$$$$$$$$$$$$$$$$$$$$$$$+   ",
"   +$$$$$$$$$$$$$$$$$$$$$$$$$$$   +$$$$$$$$$$$$$$$****{>>>>>>>>>>}***=>>>>>>>,*******$$$$$$$$$$$$$$$$$$$$$$$$$$$$$$$$$$$+   ",
"   +$$$$$$$$$$$$$$$$$$$$$$$$$$$   +$$$$$$$$$$$$$$$****{>>>>>>>>>>}***=>>>>>>>,*******$$$$$$$$$$$$$$$$$$$$$$$$$$$$$$$$$$$+   ",
"   +$$$$$$$$$$$$$$$$$$$$$$$$$$$   +$$$$$$$$$$$$$$$$***9~~~~~~~~~~[***=~~~{>>>{]]]]]]]0$$$$$$$$$$$$$$$$$$$$$$$$$$$$$$$$$$+   ",
"   +$$$$$$$$$$$$$$$$$$$$$$$$$$$   +$$$$$$$$$$$$$$$$$$$************   &***]>>>>>>>>>>>=***$$$$$$$$$$$$$$$$$$$$$$$$$$$$$$$+   ",
"   +$$$$$$$$$$$$$$$$$$$$$$$$$$$   +$$$$$$$$$$$$$$$$$$$************   &***]>>>>>>>>>>>=***$$$$$$$$$$$$$$$$$$$$$$$$$$$$$$$+   ",
"   +$$$$$$$$$$$$$$$$$$$$$$$$$$$   +$$$$$$$$$$$$$$$$$$$************   &***]>>>>>>>>>>>=***$$$$$$$$$$$$$$$$$$$$$$$$$$$$$$$+   ",
"   +$$$$$$$$$$$$$$$$$$$$$$$$$$$   +$$$$$$$$$$$$$$$$$$$$$$$$$$$$$$%   &$$$-,,|,,,,,,,,;***$$$$$$$$$$$$$$$$$$$$$$$$$$$$$$$+   ",
"   +$$$$$$$$$$$$$$$$$$$$$$$$$$$   +$$$$$$$$$$$$$$$$$$$$$$$$$$$$$$%   &$$$$***************$$$$$$$$$$$$$$$$$$$$$$$$$$$$$$$+   ",
"   +$$$$$$$$$$$$$$$$$$$$$$$$$$$   +$$$$$$$$$$$$$$$$$$$$$$$$$$$$$$%   &$$$$***************$$$$$$$$$$$$$$$$$$$$$$$$$$$$$$$+   ",
"   +$$$$$$$$$$$$$$$$$$$$$$$$$$$   +$$$$$$$$$$$$$$$$$$$$$$$$$$$$$$%   &$$$$***************$$$$$$$$$$$$$$$$$$$$$$$$$$$$$$$+   ",
"   +$$$$$$$$$$$$$$$$$$$$$$$$$$$   +$$$$$$$$$$$$$$$$$$$$$$$$$$$$$$%   &$$$$$$$$$$$$$$$$$$$$$$$$$$$$$$$$$$$$$$$$$$$$$$$$$$+   ",
"   +$$$$$$$$$$$$$$$$$$$$$$$$$$$   +$$$$$$$$$$$$$$$$$$$$$$$$$$$$$$%   &$$$$$$$$$$$$$$$$$$$$$$$$$$$$$$$$$$$$$$$$$$$$$$$$$$+   ",
"   +$$$$$$$$$$$$$$$$$$$$$$$$$$$   +$$$$$$$$$$$$$$$$$$$$$$$$$$$$$$%   &$$$$$$$$$$$$$$$$$$$$$$$$$$$$$$$$$$$$$$$$$$$$$$$$$$+   ",
"   +$$$$$$$$$$$$$$$$$$$$$$$$$$$   +$$$$$$$$$$$$$$$$$$$$$$$$$$$$$$%   &$$$$$$$$$$$$$$$$$$$$$$$$$$$$$$$$$$$$$$$$$$$$$$$$$$+   ",
"   +$$$$$$$$$$$$$$$$$$$$$$$$$$$   +$$$$$$$$$$$$$$$$$$$$$$$$$$$$$$%   &$$$$$$$$$$$$$$$$$$$$$$$$$$$$$$$$$$$$$$$$$$$$$$$$$$+   ",
"   +$$$$$$$$$$$$$$$$$$$$$$$$$$$   +$$$$$$$$$$$$$$$$$$$$$$$$$$$$$$%   &$$$$$$$$$$$$$$$$$$$$$$$$$$$$$$$$$$$$$$$$$$$$$$$$$$+   ",
"   +$$$$$$$$$$$$$$$$$$$$$$$$$$$   +$$$$$$$$$$$$$$$$$$$$$$$$$$$$$$%   &$$$$$$$$$$$$$$$$$$$$$$$$$$$$$$$$$$$$$$$$$$$$$$$$$$+   ",
"   +$$$$$$$$$$$$$$$$$$$$$$$$$$$   +$$$$$$$$$$$$$$$$$$$$$$$$$$$$$$%   &$$$$$$$$$$$$$$$$$$$$$$$$$$$$$$$$$$$$$$$$$$$$$$$$$$+   ",
"   .+++++++++++++++++++++++++++   .++++++++++++++++++++++++++++++@   #++++++++++++++++++++++++++++++++++++++++++++++++++.   ",
"                                                                                                                            ",
"                                                                                                                            ",
"                                                                                                                            "};
