/* XPM */
static char * wr2_xpm[] = {
"124 124 86 1",
" 	c #5B3E00",
".	c #5C3F01",
"+	c #644709",
"@	c #634608",
"#	c #5D4002",
"$	c #A28545",
"%	c #997C3C",
"&	c #6D5011",
"*	c #000000",
"=	c #040302",
"-	c #170E0A",
";	c #0C0705",
">	c #5C3826",
",	c #2E1C13",
"'	c #614405",
")	c #876A2B",
"!	c #513121",
"~	c #3A2318",
"{	c #462B1D",
"]	c #23150E",
"^	c #5F4204",
"/	c #7F6223",
"(	c #050505",
"_	c #141313",
":	c #0F0F0F",
"<	c #2A1911",
"[	c #342015",
"}	c #452A1D",
"|	c #0A0A0A",
"1	c #282626",
"2	c #191818",
"3	c #0A0604",
"4	c #101010",
"5	c #131212",
"6	c #23160F",
"7	c #4B2E1F",
"8	c #1F130D",
"9	c #1E1D1D",
"0	c #311E14",
"a	c #100A07",
"b	c #181717",
"c	c #232121",
"d	c #BFBFBF",
"e	c #FFFFFF",
"f	c #202020",
"g	c #BABABA",
"h	c #EDEDED",
"i	c #A7A7A7",
"j	c #959595",
"k	c #727272",
"l	c #808080",
"m	c #606060",
"n	c #9F9F9F",
"o	c #FDFDFD",
"p	c #B0B0B0",
"q	c #404040",
"r	c #3F3F3F",
"s	c #303030",
"t	c #8F8F8F",
"u	c #DCDCDC",
"v	c #525252",
"w	c #B9B9B9",
"x	c #2B2B2B",
"y	c #D3D3D3",
"z	c #535353",
"A	c #040404",
"B	c #6C615C",
"C	c #AE9C93",
"D	c #3E2C23",
"E	c #60524B",
"F	c #998377",
"G	c #26211E",
"H	c #393939",
"I	c #20130D",
"J	c #242222",
"K	c #161515",
"L	c #070403",
"M	c #261811",
"N	c #1E1E1E",
"O	c #2A2421",
"P	c #352B26",
"Q	c #14100E",
"R	c #382217",
"S	c #010101",
"T	c #443026",
"U	c #3C2D26",
"                                                                                                                            ",
"                                                                                                                            ",
"                                                                                                                            ",
"   .+++++++++++++++++++++++++++++++++++++++++++++++++++++++++++++@   #++++++++++++++++++++++++++@   #+++++++++++++++++++.   ",
"   +$$$$$$$$$$$$$$$$$$$$$$$$$$$$$$$$$$$$$$$$$$$$$$$$$$$$$$$$$$$$$%   &$$$$$$$$$$$$$$$$$$$$$$$$$$%   &$$$$$$$$$$$$$$$$$$$+   ",
"   +$$$$$$$$$$$$$$$$$$$$$$$$$$$$$$$$$$$$$$$$$$$$$$$$$$$$$$$$$$$$$%   &$$$$$$$$$$$$$$$$$$$$$$$$$$%   &$$$$$$$$$$$$$$$$$$$+   ",
"   +$$$$$$$$$$$$$$$$$$$$$$$$$$$$$$$$$$$$$$$$$$$$$$$$$$$$$$$$$$$$$%   &$$$$$$$$$$$$$$$$$$$$$$$$$$%   &$$$$$$$$$$$$$$$$$$$+   ",
"   +$$$$$$$$$$$$$$$$$$$$$$$$$$$$$$$$$$$$$$$$$$$$$$$$$$$$$$$$$$$$$%   &$$$$$$$$$$$$$$$$$$$$$$$$$$%   &$$$$$$$$$$$$$$$$$$$+   ",
"   +$$$$$$$$$$$$$$$$$$$$$$$$$$$$$$$$$$$$$$$$$$$$$$$$$$$$$$$$$$$$$%   &$$$$$$$$$$$$$$$$$$$$$$$$$$%   &$$$$$$$$$$$$$$$$$$$+   ",
"   +$$$$$$$$$$$$$$$$$$$$$$$$$$$$$$$$$$$$$$$$$$$$$$$$$$$$$$$$$$$$$%   &$$$$$$$$$$$$$$$$$$$$$$$$$$%   &$$$$$$$$$$$$$$$$$$$+   ",
"   +$$$$$$$$$$$$$$$$$$$$$$$$$$$$$$$$$$$$$$$$$$$$$$$$$$$$$$$$$$$$$%   &$$$$$$$$$$$$$$$$$$$$$$$$$$%   &$$$$$$$$$$$$$$$$$$$+   ",
"   +$$$$$$$$$$$$$$$$$$$$$$$$$$$$$$$$$$$$$$$$$$$$$$$$$$$$$$$$$$$$$%   &$$$$$$$$$$$$$$$$$$$$$$$$$$%   &$$$$$$$$$$$$$$$$$$$+   ",
"   +$$$$$$$$$$$$$$$$$$$$$$$$$$$$$$$$$$$$$$$$$$$$$$$$$$****$$$$$$$%   &$$$$$$$$$$$$$$$$$$$$$$$$$$%   &$$$$$$$$$$$$$$$$$$$+   ",
"   +$$$$$$$$$$$$$$$$$$$$$$$$$$$$$$$$$$$$$$$$$$$$$$$$$$****$$$$$$$%   &$$$$$$$$$$$$$$$$$$$$$$$$$$%   &$$$$$$$$$$$$$$$$$$$+   ",
"   +$$$$$$$$$$$$$$$$$$$$$$$$$$$$$$$$$$$$$$$$$$$$$$$$$$****$$$$$$$%   &$$$$$$$$$$$$$$$$$$$$$$$$$$%   &$$$$$$$$$$$$$$$$$$$+   ",
"   +$$$$$$$$$$$$$$$$$$$$$$$$$$$$$$$$$$$$$$$$$$$$$$$$$$$$$$$$$$$$$%   &$$$$$$$$$$$$$$$$$$$$$$$$$$%   &$$$$$$$$$$$$$$$$$$$+   ",
"   +$$$$$$$$$$$$$$$$$$$$$$$$$$$$$$$$$$$****$$$$$$$$$$$$$$$********   &$$$$***$$$$$$$$$$$$$$$$$$$%   &$$$$$$$$$$$$$$$$$$$+   ",
"   +$$$$$$$$$$$$$$$$$$$$$$$$$$$$$$$$$$$****$$$$$$$$$$$$$$$********   &$$$$***$$$$$$$$$$$$$$$$$$$%   &$$$$$$$$$$$$$$$$$$$+   ",
"   +$$$$$$$$$$$$$$$$$$$$$$$$$$$$$$$$$$$****$$$$$$$$$$$$$$$********   &$$$$***$$$$$$$$$$$$$$$$$$$%   &$$$$$$$$$$$$$$$$$$$+   ",
"   +$$$$$$$$$$$$$$$$$$$$$$$$$$$$$$$$$$$$$$$**************************************$$$$$$$$$$$$$$$%   &$$$$$$$$$$$$$$$$$$$+   ",
"   +$$$$$$$$$$$$$$$$$$$$$$$$$$$$$$$$$$$$$$$**************************************$$$$$$$$$$$$$$$%   &$$$$$$$$$$$$$$$$$$$+   ",
"   +$$$$$$$$$$$$$$$$$$$$$$$$$$$$$$$$$$$$$$$**************************************$$$$$$$$$$$$$$$%   &$$$$$$$$$$$$$$$$$$$+   ",
"   +$$$$$$$$$$$$$$$$$$$$$$$$$$$$$$$$$$$$$$$**************************************$$$$$$$$$$$$$$$%   &$$$$$$$$$$$$$$$$$$$+   ",
"   +$$$$$$$$$$$$$$$$$$$$$$$$$$$$$$$$$$$$$$$$$$***********************************$$$$$$$$$$$$$$$%   &$$$$$$$$$$$$$$$$$$$+   ",
"   +$$$$$$$$$$$$$$$$$$$$$$$$$$$$$$$$$$$$$$$$$$$**********************************$$$$$$$$$$$$$$$%   &$$$$$$$$$$$$$$$$$$$+   ",
"   +$$$$$$$$$$$$$$$$$$$$$$$$$$$$$$$$$$$$$$$$$$$**********************************$$$$$$$$$$$$$$$%   &$$$$$$$$$$$$$$$$$$$+   ",
"   +$$$$$$$$$$$$$$$$$$$$$$$$$$$$$$$$$$$$$$$$$$$**********************************$$$$$$$$$$$$$$$%   &$$$$$$$$$$$$$$$$$$$+   ",
"   +$$$$$$$$$$$$$$$$$$$$$$$$$$$$$$$$$$$$$$$$$$$$$$*******************************$$$$$$$$$$$$$$$%   &$$$$$$$$$$$$$$$$$$$+   ",
"   +$$$$$$$$$$$$$$$$$$$$$$$$$$$$$$$$$$$$$$$$$$$$$$*******************************$$$$$$$$$$$$$$$%   &$$$$$$$$$$$$$$$$$$$+   ",
"   +$$$$$$$$$$$$$$$$$$$$$$$$$$$$$$$$$$$$$$$$$$$$$$*******************************$$$$$$$$$$$$$$$%   &$$$$$$$$$$$$$$$$$$$+   ",
"   +$$$$$$$$$$$$$$$$$$$$$$$$$$$$$$$$$$$$$$$$$$$$$$*******************************$$$$$$$$$$$$$$$%   &$$$$$$$$$$$$$$$$$$$+   ",
"   +$$$$$$$$$$$$$$$$$$$$$$$$$$$$$$$$$$$$$$$$$$$$$$$$$$*******************************$$$$$$$$$$$%   &$$$$$$$$$$$$$$$$$$$+   ",
"   +$$$$$$$$$$$$$$$$$$$$$$$$$$$$$$$$$$$$$$$$$$$$$$$$$$*******************************$$$$$$$$$$$%   &$$$$$$$$$$$$$$$$$$$+   ",
"   +$$$$$$$$$$$$$$$$$$$$$$$$$$$$$$$$$$$$$$$$$$$$$$$$$$*******************************$$$$$$$$$$$%   &$$$$$$$$$$$$$$$$$$$+   ",
"   +$$$$$$$$$$$$$$$$$$$$$$$$$$$$$$$$$$$$$$$$$$$$$$$$$$*******************************$$$$$$$$$$$%   &$$$$$$$$$$$$$$$$$$$+   ",
"   +$$$$$$$$$$$$$$$$$$$$$$$$$$$$$$$$$$$$$$$$$$$$$$$$$$*******************************$$$$$$$$$$$%   &$$$$$$$$$$$$$$$$$$$+   ",
"   +$$$$$$$$$$$$$$$$$$$$$$$$$$$$$$$$$$$$$$$$$$$$$$$$$$*******************************$$$$$$$$$$$%   &$$$$$$$$$$$$$$$$$$$+   ",
"   +$$$$$$$$$$$$$$$$$$$$$$$$$$$$$$$$$$$$$$$$$$$$$$$$$$*******************************$$$$$$$$$$$%   &$$$$$$$$$$$$$$$$$$$+   ",
"   +$$$$$$$$$$$$$$$$$$$$$$$$$$$$$$$$$$$$$$$$$$$$$$$$$$***********=-----------;*******$$$$$$$$$$$%   &$$$$$$$$$$$$$$$$$$$+   ",
"   +$$$$$$$$$$$$$$$$$$$$$$$$$$$$$$$$$$$$$$$$$$$$$$$$$$***********;>>>>>>>>>>>,*******$$$$$$$$$$$%   &$$$$$$$$$$$$$$$$$$$+   ",
"   +$$$$$$$$$$$$$$$$$$$$$$$$$$$$$$$$$$$$$$$$$$$$$$$$$$***********;>>>>>>>>>>>,*******$$$$$$$$$$$%   &$$$$$$$$$$$$$$$$$$$+   ",
"   +$$$$$$$$$$$$$$$$$$$$$$$$$$$$$$$$$$$$$$$$$$$$$$$$$$***********;>>>>>>>>>>>,*******$$$$$$$$$$$%   &$$$$$$$$$$$$$$$$$$$+   ",
"   '))))))))))))))))))))))))))))))))))))))))))))))))))***********;>>>!~~~{>>>,*******$$$$$$$$$$$%   &$$$$$$$$$$$$$$$$$$$+   ",
"                                   ********           ***********;>>>{***]>>>,***$$$$$$$$$$$$$$$%   &$$$$$$$$$$$$$$$$$$$+   ",
"                                   ********           ***********;>>>{***]>>>,***$$$$$$$$$$$$$$$%   &$$$$$$$$$$$$$$$$$$$+   ",
"                                   ********           ***********;>>>{***]>>>,***$$$$$$$$$$$$$$$%   &$$$$$$$$$$$$$$$$$$$+   ",
"   ^///////////////////////////   ^***(___:///////////////****,,<[>>>!,,<}>>>,***$$$$$$$$$$$$$$$%   &$$$$$$$$$$$$$$$$$$$+   ",
"   +$$$$$$$$$$$$$$$$$$$$$$$$$$$   +***|1112***$$$$$$$$$$$$****>>>>>>>>>>>>>>>,***$$$$$$$$$$$$$$$%   &$$$$$$$$$$$$$$$$$$$+   ",
"   +$$$$$$$$$$$$$$$$$$$$$$$$$$$   +***|1112***$$$$$$$$$$$$****>>>>>>>>>>>>>>>,***$$$$$$$$$$$$$$$%   &$$$$$$$$$$$$$$$$$$$+   ",
"   +$$$$$$$$$$$$$$$$$$$$$$$$$$$   +***|1112***$$$$$$$$$$$$****>>>>>>>>>>>>>>>,***$$$$$$$$$$$$$$$%   &$$$$$$$$$$$$$$$$$$$+   ",
"   +$$$$$$$$$$$$$$$$$$$$$$$$$$$   +$$$34::5222:***$$$$$$$$****]]6<>>>>>>>>>>>7~~~8***$$$$$$$$$$$%   &$$$$$$$$$$$$$$$$$$$+   ",
"   +$$$$$$$$$$$$$$$$$$$$$$$$$$$   +$$$$***:111_***$$$$$$$$*******;>>>>>>>>>>>>>>>]***$$$$$$$$$$$%   &$$$$$$$$$$$$$$$$$$$+   ",
"   +$$$$$$$$$$$$$$$$$$$$$$$$$$$   +$$$$***:111_***$$$$$$$$*******;>>>>>>>>>>>>>>>]***$$$$$$$$$$$%   &$$$$$$$$$$$$$$$$$$$+   ",
"   +$$$$$$$$$$$$$$$$$$$$$$$$$$$   +$$$$***:111_***$$$$$$$$*******;>>>>>>>>>>>>>>>]***$$$$$$$$$$$%   &$$$$$$$$$$$$$$$$$$$+   ",
"   +$$$$$$$$$$$$$$$$$$$$$$$$$$$   +$$$$$$$(|||_999:***$$$$********-------0>>>~---a$$$$$$$$$$$$$$%   &$$$$$$$$$$$$$$$$$$$+   ",
"   +$$$$$$$$$$$$$$$$$$$$$$$$$$$   +$$$$$$$$***_111:***$$$$***************6>>>,***$$$$$$$$$$$$$$$%   &$$$$$$$$$$$$$$$$$$$+   ",
"   +$$$$$$$$$$$$$$$$$$$$$$$$$$$   +$$$$$$$$***_111:***$$$$***************]>>>,***$$$$$$$$$$$$$$$%   &$$$$$$$$$$$$$$$$$$$+   ",
"   +$$$$$$$$$$$$$$$$$$$$$$$$$$$   +$$$$$$$$***_111:***$$$$***************]>>>,***$$$$$$$$$$$$$$$%   &$$$$$$$$$$$$$$$$$$$+   ",
"   +$$$$$$$$$$$$$$$$$$$$$$$$$$$   +$$$$$$$$$$$((((bccc|*******!!!{*******=;;;3$$$$$$$$$$$$$$$$$$%   &$$$$$$$$$$$$$$$$$$$+   ",
"   +$$$$$$$$$$$$$$$$$$$$$$$$$$$   +$$$$$$$$$$$$***2111|*******>>>!***********$$$$$$$$$$$$$$$$$$$%   &$$$$$$$$$$$$$$$$$$$+   ",
"   +$$$$$$$$$$$$$$$$$$$$$$$$$$$   +$$$$$$$$$$$$***2111|*******>>>!***********$$$$$$$$$$$$$$$$$$$%   &$$$$$$$$$$$$$$$$$$$+   ",
"   +$$$$$$$$$$$$$$$$$$$$$$$$$$$   +$$$$$$$$$$$$***2111|*******>>>!***********$$$$$$$$$$$$$$$$$$$%   &$$$$$$$$$$$$$$$$$$$+   ",
"   +$$$$$$$$$$$$$$$$$$$$$$$$$$$   +$$$$$$$$$$$$$$$****deeeeeee***;>>>>>>>~*******$$$$$$$$$$$$$$$%   &$$$$$$$$$$$$$$$$$$$+   ",
"   +$$$$$$$$$$$$$$$$$$$$$$$$$$$   +$$$$$$$$$$$$$$$****deeeeeee***;>>>>>>>~*******$$$$$$$$$$$$$$$%   &$$$$$$$$$$$$$$$$$$$+   ",
"   +$$$$$$$$$$$$$$$$$$$$$$$$$$$   +$$$$$$$$$$$$$$$****deeeeeee***3>>>>>>>~*******$$$$$$$$$$$$$$$%   &$$$$$$$$$$$$$$$$$$$+   ",
"   +$$$$$$$$$$$$$$$$$$$$$$$$$$$   +$$$$$$$$$$$$$$$99cfghhheeee***3!!!!!!![***59cc$$$$$$$$$$$$$$$%   &$$$$$$$$$$$$$$$$$$$+   ",
"   +$$$$$$$$$$$$$$$$$$$$$$$$$$$   +$$$$$$$$$$$$***ieeejkkkheee***************leeem***$$$$$$$$$$$%   &$$$$$$$$$$$$$$$$$$$+   ",
"   +$$$$$$$$$$$$$$$$$$$$$$$$$$$   +$$$$$$$$$$$$***noeejkkkheee***************leeem***$$$$$$$$$$$%   &$$$$$$$$$$$$$$$$$$$+   ",
"   +$$$$$$$$$$$$$$$$$$$$$$$$$$$   +$$$$$$$$$$$$***neeejkkkheee**************(keeem***$$$$$$$$$$$%   &$$$$$$$$$$$$$$$$$$$+   ",
"   +$$$$$$$$$$$$$$$$$$$$$$$$$$$   +$$$$$$$$$$$$***neeepjjjgdddqqqqrrqs***2qqqtuuuv***$$$$$$$$$$$%   &$$$$$$$$$$$$$$$$$$$+   ",
"   +$$$$$$$$$$$$$$$$$$$$$$$$$$$   +$$$$$$$$$$$$***neeeeeeec***eeeeeeow**(meeegkkkx***$$$$$$$$$$$%   &$$$$$$$$$$$$$$$$$$$+   ",
"   +$$$$$$$$$$$$$$$$$$$$$$$$$$$   +$$$$$$$$$$$$***neeeeeee9***eeeeeooy**(zeeegkkkx***$$$$$$$$$$$%   &$$$$$$$$$$$$$$$$$$$+   ",
"   +$$$$$$$$$$$$$$$$$$$$$$$$$$$   +$$$$$$$$$$$$***neeeeeeec***eeeeeeed***meeegkkkx***$$$$$$$$$$$%   &$$$$$$$$$$$$$$$$$$$+   ",
"   +$$$$$$$$$$$$$$$$$$$$$$$$$$$   +$$$$$$$$$$$$***neeeeeeec***eeeeeeed***meeeyiiiq****$$$$$$$$$$%   &$$$$$$$$$$$$$$$$$$$+   ",
"   +$$$$$$$$$$$$$$$$$$$$$$$$$$$   +$$$$$$$$$$$$***neeeeeee9***eeeeeeed***meeeeeeem*******$$$$$$$%   &$$$$$$$$$$$$$$$$$$$+   ",
"   +$$$$$$$$$$$$$$$$$$$$$$$$$$$   +$$$$$$$$$$$$***neeeeeeec***eeeeeeed***meeeeeeem*******$$$$$$$%   &$$$$$$$$$$$$$$$$$$$+   ",
"   +$$$$$$$$$$$$$$$$$$$$$$$$$$$   +$$$$$$$$$$$$***neeeeeeef***eeeeeeed***meeeeeeem**(A***$$$$$$$%   &$$$$$$$$$$$$$$$$$$$+   ",
"   +$$$$$$$$$$$$$$$$$$$$$$$$$$$   +$$$$$$$$$$$$***BCCCCCCCD,,,lllteeed***meeedllllllkc***$$$$$$$%   &$$$$$$$$$$$$$$$$$$$+   ",
"   +$$$$$$$$$$$$$$$$$$$$$$$$$$$   +$$$$$$$$$$$$***~>>>>>>>>>>>***9eeed***meeel***neeeq***$$$$$$$%   &$$$$$$$$$$$$$$$$$$$+   ",
"   +$$$$$$$$$$$$$$$$$$$$$$$$$$$   +$$$$$$$$$$$$***~>>>>>>>>>>>***ceeed***meeel***neeeq***$$$$$$$%   &$$$$$$$$$$$$$$$$$$$+   ",
"   +$$$$$$$$$$$$$$$$$$$$$$$$$$$   +$$$$$$$$$$$$***~>>>>>>>>>>>***9eeed***meeel***neeeq***$$$$$$$%   &$$$$$$$$$$$$$$$$$$$+   ",
"   +$$$$$$$$$$$$$$$$$$$$$$$$$$$   +$$$$$$$$$$$$***~>>>>>>>>>>>***ceeed***riiiv***EFFFG***$$$$$$$%   &$$$$$$$$$$$$$$$$$$$+   ",
"   +$$$$$$$$$$$$$$$$$$$$$$$$$$$   +$$$$$$$$$$$$***~>>>>>>>>>>>***ceeed***xkkkH***~>>>-***$$$$$$$%   &$$$$$$$$$$$$$$$$$$$+   ",
"   +$$$$$$$$$$$$$$$$$$$$$$$$$$$   +$$$$$$$$$$$$***~>>>>>>>>>>>***feeed***xkkkH***~>>>-***$$$$$$$%   &$$$$$$$$$$$$$$$$$$$+   ",
"   +$$$$$$$$$$$$$$$$$$$$$$$$$$$   +$$$$$$$$$$$$***~>>>>>>>>>>>***9eeed***xkkkH***~>>>-***$$$$$$$%   &$$$$$$$$$$$$$$$$$$$+   ",
"   +$$$$$$$$$$$$$$$$$$$$$$$$$$$   +$$$$$$$$$$$$***~>>>>>>>I---***|qqqs***|999:***~>>>-***$$$$$$$%   &$$$$$$$$$$$$$$$$$$$+   ",
"   +$$$$$$$$$$$$$$$$$$$$$$$$$$$   +$$$$$$$$$$$$***~>>>>>>>;**********************~>>>-***$$$$$$$%   &$$$$$$$$$$$$$$$$$$$+   ",
"   +$$$$$$$$$$$$$$$$$$$$$$$$$$$   +$$$$$$$$$$$$***~>>>>>>>;**********************~>>>-***$$$$$$$%   &$$$$$$$$$$$$$$$$$$$+   ",
"   +$$$$$$$$$$$$$$$$$$$$$$$$$$$   +$$$$$$$$$$$$***~>>>>>>>;**********************~>>>-***$$$$$$$%   &$$$$$$$$$$$$$$$$$$$+   ",
"   +$$$$$$$$$$$$$$$$$$$$$$$$$$$   +$$$$$$$$$$$$$$$3;;;;;;;****cJcccccccccK*******L;;;$$$$$$$$$$$%   &$$$$$$$$$$$$$$$$$$$+   ",
"   +$$$$$$$$$$$$$$$$$$$$$$$$$$$   +$$$$$$$$$$$$$$$************111111111112***********$$$$$$$$$$$%   &$$$$$$$$$$$$$$$$$$$+   ",
"   +$$$$$$$$$$$$$$$$$$$$$$$$$$$   +$$$$$$$$$$$$$$$************111111111112***********$$$$$$$$$$$%   &$$$$$$$$$$$$$$$$$$$+   ",
"   +$$$$$$$$$$$$$$$$$$$$$$$$$$$   +$$$$$$$$$$$$$$$************111111111112***********$$$$$$$$$$$%   &$$$$$$$$$$$$$$$$$$$+   ",
"   +$$$$$$$$$$$$$$$$$$$$$$$$$$$   +$$$$$$$$$$$$$$$$$$$****c111111c***|1111111_***                                           ",
"   +$$$$$$$$$$$$$$$$$$$$$$$$$$$   +$$$$$$$$$$$$$$$$$$$****J111111c***|1111111_***                                           ",
"   +$$$$$$$$$$$$$$$$$$$$$$$$$$$   +$$$$$$$$$$$$$$$$$$$****J111111c***|1111111_***                                           ",
"   +$$$$$$$$$$$$$$$$$$$$$$$$$$$   +$$$$$$$$$$$$$$$$$$$((((c111JJc9***|ccc1111K(((+++++++++++++++++++++++++++++++++++++++.   ",
"   +$$$$$$$$$$$$$$$$$$$$$$$$$$$   +$$$$$$$$$$$$$$$****91111111****   &***:1111111:***$$$$$$$$$$$$$$$$$$$$$$$$$$$$$$$$$$$+   ",
"   +$$$$$$$$$$$$$$$$$$$$$$$$$$$   +$$$$$$$$$$$$$$$****91111111****   &***:1111111:***$$$$$$$$$$$$$$$$$$$$$$$$$$$$$$$$$$$+   ",
"   +$$$$$$$$$$$$$$$$$$$$$$$$$$$   +$$$$$$$$$$$$$$$****91111111****   &***:1111111:***$$$$$$$$$$$$$$$$$$$$$$$$$$$$$$$$$$$+   ",
"   +$$$$$$$$$$$$$$$$$$$$$$$$$$$   +$$$$$$$$$$$$$$$----c111MfNN****   &***:999OPPPQ***$$$$$$$$$$$$$$$$$$$$$$$$$$$$$$$$$$$+   ",
"   +$$$$$$$$$$$$$$$$$$$$$$$$$$$   +$$$$$$$$$$$$***R>>>P111(*SS$$$%   &$$$$***,>>>]*******$$$$$$$$$$$$$$$$$$$$$$$$$$$$$$$+   ",
"   +$$$$$$$$$$$$$$$$$$$$$$$$$$$   +$$$$$$$$$$$$***~>>>P111(***$$$%   &$$$$***,>>>]*******$$$$$$$$$$$$$$$$$$$$$$$$$$$$$$$+   ",
"   +$$$$$$$$$$$$$$$$$$$$$$$$$$$   +$$$$$$$$$$$$***~>>>P111(***$$$%   &$$$$***,>>>]*******$$$$$$$$$$$$$$$$$$$$$$$$$$$$$$$+   ",
"   +$$$$$$$$$$$$$$$$$$$$$$$$$$$   +$$$$$$$$$$$$***~>>>TUUUM]]]$$$%   &$$$$***,>>>R]]]]]]]$$$$$$$$$$$$$$$$$$$$$$$$$$$$$$$+   ",
"   +$$$$$$$$$$$$$$$$$$$$$$$$$$$   +$$$$$$$$$$$$***~>>>>>>>>>>>****   &$$$$***,>>>>>>>>>>>;***$$$$$$$$$$$$$$$$$$$$$$$$$$$+   ",
"   +$$$$$$$$$$$$$$$$$$$$$$$$$$$   +$$$$$$$$$$$$***~>>>>>>>>>>>****   &$$$$***,>>>>>>>>>>>;***$$$$$$$$$$$$$$$$$$$$$$$$$$$+   ",
"   +$$$$$$$$$$$$$$$$$$$$$$$$$$$   +$$$$$$$$$$$$***~>>>>>>>>>>>****   &$$$$***,>>>>>>>>>>>;***$$$$$$$$$$$$$$$$$$$$$$$$$$$+   ",
"   +$$$$$$$$$$$$$$$$$$$$$$$$$$$   +$$$$$$$$$$$$$$$6,,,,,,,,,,,****   &$$$$$$$8,,,,,,,,,,,L***$$$$$$$$$$$$$$$$$$$$$$$$$$$+   ",
"   +$$$$$$$$$$$$$$$$$$$$$$$$$$$   +$$$$$$$$$$$$$$$****************   &$$$$$$$$***************$$$$$$$$$$$$$$$$$$$$$$$$$$$+   ",
"   +$$$$$$$$$$$$$$$$$$$$$$$$$$$   +$$$$$$$$$$$$$$$****************   &$$$$$$$$***************$$$$$$$$$$$$$$$$$$$$$$$$$$$+   ",
"   +$$$$$$$$$$$$$$$$$$$$$$$$$$$   +$$$$$$$$$$$$$$$****************   &$$$$$$$$***************$$$$$$$$$$$$$$$$$$$$$$$$$$$+   ",
"   +$$$$$$$$$$$$$$$$$$$$$$$$$$$   +$$$$$$$$$$$$$$$$$$$$$$$$$$$$$$%   &$$$$$$$$$$$$$$$$$$$$$$$$$$$$$$$$$$$$$$$$$$$$$$$$$$+   ",
"   +$$$$$$$$$$$$$$$$$$$$$$$$$$$   +$$$$$$$$$$$$$$$$$$$$$$$$$$$$$$%   &$$$$$$$$$$$$$$$$$$$$$$$$$$$$$$$$$$$$$$$$$$$$$$$$$$+   ",
"   +$$$$$$$$$$$$$$$$$$$$$$$$$$$   +$$$$$$$$$$$$$$$$$$$$$$$$$$$$$$%   &$$$$$$$$$$$$$$$$$$$$$$$$$$$$$$$$$$$$$$$$$$$$$$$$$$+   ",
"   +$$$$$$$$$$$$$$$$$$$$$$$$$$$   +$$$$$$$$$$$$$$$$$$$$$$$$$$$$$$%   &$$$$$$$$$$$$$$$$$$$$$$$$$$$$$$$$$$$$$$$$$$$$$$$$$$+   ",
"   +$$$$$$$$$$$$$$$$$$$$$$$$$$$   +$$$$$$$$$$$$$$$$$$$$$$$$$$$$$$%   &$$$$$$$$$$$$$$$$$$$$$$$$$$$$$$$$$$$$$$$$$$$$$$$$$$+   ",
"   +$$$$$$$$$$$$$$$$$$$$$$$$$$$   +$$$$$$$$$$$$$$$$$$$$$$$$$$$$$$%   &$$$$$$$$$$$$$$$$$$$$$$$$$$$$$$$$$$$$$$$$$$$$$$$$$$+   ",
"   +$$$$$$$$$$$$$$$$$$$$$$$$$$$   +$$$$$$$$$$$$$$$$$$$$$$$$$$$$$$%   &$$$$$$$$$$$$$$$$$$$$$$$$$$$$$$$$$$$$$$$$$$$$$$$$$$+   ",
"   +$$$$$$$$$$$$$$$$$$$$$$$$$$$   +$$$$$$$$$$$$$$$$$$$$$$$$$$$$$$%   &$$$$$$$$$$$$$$$$$$$$$$$$$$$$$$$$$$$$$$$$$$$$$$$$$$+   ",
"   .+++++++++++++++++++++++++++   .++++++++++++++++++++++++++++++@   #++++++++++++++++++++++++++++++++++++++++++++++++++.   ",
"                                                                                                                            ",
"                                                                                                                            ",
"                                                                                                                            "};
