/* XPM */
static char *wallright_0[] = {
/* columns rows colors chars-per-pixel */
"124 124 49 1 ",
"  c black",
". c #080808",
"X c #0C0C0C",
"o c #101010",
"O c #141414",
"+ c #181818",
"@ c #1C1C1C",
"# c #2E1F00",
"$ c #362809",
"% c #202020",
"& c #282828",
"* c #503600",
"= c #5B3E00",
"- c #5C3F01",
"; c #4D3E1E",
": c #5D4002",
"> c #5F4204",
", c #614405",
"< c #634608",
"1 c #644709",
"2 c #6D5011",
"3 c #514323",
"4 c #65532B",
"5 c #765D26",
"6 c #7F6223",
"7 c #404040",
"8 c #505050",
"9 c #606060",
"0 c #707070",
"q c #876A2B",
"w c #846C38",
"e c #8E743C",
"r c #997C3C",
"t c #987D41",
"y c #A28545",
"u c #808080",
"i c #8F8F8F",
"p c #9B9B9B",
"a c #9F9F9F",
"s c #B7B7B7",
"d c #BFBFBF",
"f c #C3C3C3",
"g c #D7D7D7",
"h c #DFDFDF",
"j c #E3E3E3",
"k c #E7E7E7",
"l c #EFEFEF",
"z c #F3F3F3",
"x c white",
/* pixels */
"============================================================================================================================",
"============================================================================================================================",
"============================================================================================================================",
"===-1111111111111111111111111111111111111111111111111111111111111<===:11111111111111111111111111<===:1111111111111111111-===",
"===1yyyyyyyyyyyyyyyyyyyyyyyyyyyyyyyyyyyyyyyyyyyyyyyyyyyyyyyyyyyyyr===2yyyyyyyyyyyyyyyyyyyyyyyyyyr===2yyyyyyyyyyyyyyyyyyy1===",
"===1yyyyyyyyyyyyyyyyyyyyyyyyyyyyyyyyyyyyyyyyyyyyyyyyyyyyyyyyyyyyyr===2yyyyyyyyyyyyyyyyyyyyyyyyyyr===2yyyyyyyyyyyyyyyyyyy1===",
"===1yyyyyyyyyyyyyyyyyyyyyyyyyyyyyyyyyyyyyyyyyyyyyyyyyyyyyyyyyyyyyr===2yyyyyyyyyyyyyyyyyyyyyyyyyyr===2yyyyyyyyyyyyyyyyyyy1===",
"===1yyyyyyyyyyyyyyyyyyyyyyyyyyyyyyyyyyyyyyyyyyyyyyyyyyyyyyyyyyyyyr===2yyyyyyyyyyyyyyyyyyyyyyyyyyr===2yyyyyyyyyyyyyyyyyyy1===",
"===1yyyyyyyyyyyyyyyyyyyyyyyyyyyyyyyyyyyyyyyyyyyyyyyyyyyyyyyyyyyyyr===2yyyyyyyyyyyyyyyyyyyyyyyyyyr===2yyyyyyyyyyyyyyyyyyy1===",
"===1yyyyyyyyyyyyyyyyyyyyyyyyyyyyyyyyyyyyyyyyyyyyyyyyyyyyyyyyyyyyyr===2yyyyyyyyyyyyyyyyyyyyyyyyyyr===2yyyyyyyyyyyyyyyyyyy1===",
"===1yyyyyyyyyyyyyyyyyyyyyyyyyyyyyyyyyyyyyyyyyyyyyyyyyyyyyyyyyyyyyr===2yyyyyyyyyyyyyyyyyyyyyyyyyyr===2yyyyyyyyyyyyyyyyyyy1===",
"===1yyyyyyyyyyyyyyyyyyyyyyyyyyyyyyyyyyyyyyyyyyyyyyyyyyyyyyyyyyyyyr===2yyyyyyyyyyyyyyyyyyyyyyyyyyr===2yyyyyyyyyyyyyyyyyyy1===",
"===1yyyyyyyyyyyyyyyyyyyyyyyyyyyyyyyyyyyyyyyyyyyyyyyyyyyyyyyyyyyyyr===2yyyyyyyyyyyyyyyyyyyyyyyyyyr===2yyyyyyyyyyyyyyyyyyy1===",
"===1yyyyyyyyyyyyyyyyyyyyyyyyyyyyyyyyyyyyyyyyyyyyyyyyyyyyyyyyyyyyyr===2yyyyyyyyyyyyyyyyyyyyyyyyyyr===2yyyyyyyyyyyyyyyyyyy1===",
"===1yyyyyyyyyyyyyyyyyyyyyyyyyyyyyyyyyyyyyyyyyyyyyyyyyyyyyyyyyyyyyr===2yyyyyyyyyyyyyyyyyyyyyyyyyyr===2yyyyyyyyyyyyyyyyyyy1===",
"===1yyyyyyyyyyyyyyyyyyyyyyyyyyyyyyt333333333333333333333333333333;###$33333333333wyyyyyyyyyyyyyyr===2yyyyyyyyyyyyyyyyyyy1===",
"===1yyyyyyyyyyyyyyyyyyyyyyyyyyyyyye                                              4yyyyyyyyyyyyyyr===2yyyyyyyyyyyyyyyyyyy1===",
"===1yyyyyyyyyyyyyyyyyyyyyyyyyyyyyye                                              4yyyyyyyyyyyyyyr===2yyyyyyyyyyyyyyyyyyy1===",
"===1yyyyyyyyyyyyyyyyyyyyyyyyyyyyyye                                              4yyyyyyyyyyyyyyr===2yyyyyyyyyyyyyyyyyyy1===",
"===1yyyyyyyyyyyyyyyyyyyyyyyyyyyyyye   &aaaaaaaaaaaaaaaaaaaaaaaaaaaaaaaaaaaaaa8   4yyyyyyyyyyyyyyr===2yyyyyyyyyyyyyyyyyyy1===",
"===1yyyyyyyyyyyyyyyyyyyyyyyyyyyyyye   7xxxxxxxxxxxxxxxxxxxxxxxxxxxxxxxxxxxxxxu   4yyyyyyyyyyyyyyr===2yyyyyyyyyyyyyyyyyyy1===",
"===1yyyyyyyyyyyyyyyyyyyyyyyyyyyyyye   7xxxxxxxxxxxxxxxxxxxxxxxxxxxxxxxxxxxxxxu   4yyyyyyyyyyyyyyr===2yyyyyyyyyyyyyyyyyyy1===",
"===1yyyyyyyyyyyyyyyyyyyyyyyyyyyyyye   7xxxxxxxxxxxxxxxxxxxxxxxxxxxxxxxxxxxxxxu   4yyyyyyyyyyyyyyr===2yyyyyyyyyyyyyyyyyyy1===",
"===1yyyyyyyyyyyyyyyyyyyyyyyyyyyyyye   7xxxxxxxxxxxxxxxxxxxxxxxxxxxxxxxxxxxxxxu   4yyyyyyyyyyyyyyr===2yyyyyyyyyyyyyyyyyyy1===",
"===1yyyyyyyyyyyyyyyyyyyyyyyyyyyyyye   7xxxxxxxxxxxxxxxxxxxxxxxxxxxxxxxxxxxxxxu   4yyyyyyyyyyyyyyr===2yyyyyyyyyyyyyyyyyyy1===",
"===1yyyyyyyyyyyyyyyyyyyyyyyyyyyyyye   7xxxxxxxxxxxxxxxxxxxxxxxxxxxxxxxxxxxxxxu   4yyyyyyyyyyyyyyr===2yyyyyyyyyyyyyyyyyyy1===",
"===1yyyyyyyyyyyyyyyyyyyyyyyyyyyyyye   7xxxxxxxxxxxxxxxxxxxxxxxxxxxxxxxxxxxxxxu   4yyyyyyyyyyyyyyr===2yyyyyyyyyyyyyyyyyyy1===",
"===1yyyyyyyyyyyyyyyyyyyyyyyyyyyyyye   7xxxxxxxxxxxxxxxxxxxxxxxxxxxxxxxxxxxxxxu   4yyyyyyyyyyyyyyr===2yyyyyyyyyyyyyyyyyyy1===",
"===1yyyyyyyyyyyyyyyyyyyyyyyyyyyyyye   7xxxxxxxxxxxxxxxxxxxxxxxxxxxxxxxxxxxxxxu   4yyyyyyyyyyyyyyr===2yyyyyyyyyyyyyyyyyyy1===",
"===1yyyyyyyyyyyyyyyyyyyyyyyyyyyyyye   7xxxxxxxxxxxxxxxxxxxxxxxxxxxxxxxxxxxxxxu   4yyyyyyyyyyyyyyr===2yyyyyyyyyyyyyyyyyyy1===",
"===1yyyyyyyyyyyyyyyyyyyyyyyyyyyyyye   7xxxxxxxxxxxxxxxxxxxxxxxxxxxxxxxxxxxxxxu   4yyyyyyyyyyyyyyr===2yyyyyyyyyyyyyyyyyyy1===",
"===1yyyyyyyyyyyyyyyyyyyyyyyyyyyyyye   7xxxxxxxxxxxxxxxxxxxxxxxxxxxxxxxxxxxxxxu   4yyyyyyyyyyyyyyr===2yyyyyyyyyyyyyyyyyyy1===",
"===1yyyyyyyyyyyyyyyyyyyyyyyyyyyyyye   7xxxxxxxxxxxxxxxxxxxxxxxxxxxxxxxxxxxxxxu   4yyyyyyyyyyyyyyr===2yyyyyyyyyyyyyyyyyyy1===",
"===1yyyyyyyyyyyyyyyyyyyyyyyyyyyyyye   7xxxxxxxxxxxxxxxxxxxxxxxxxxxxxxxxxxxxxxu   4yyyyyyyyyyyyyyr===2yyyyyyyyyyyyyyyyyyy1===",
"===1yyyyyyyyyyyyyyyyyyyyyyyyyyyyyye   7xxxxxxxxxxxxxxxxxxxjhhhxxxxxxxxxxxxxxxu   4yyyyyyyyyyyyyyr===2yyyyyyyyyyyyyyyyyyy1===",
"===1yyyyyyyyyyyyyyyyyyyyyyyyyyyyyye   7xxxxxxxxxxxxxxxxxxx%   xxxxxxxxxxxxxxxu   4yyyyyyyyyyyyyyr===2yyyyyyyyyyyyyyyyyyy1===",
"===1yyyyyyyyyyyyyyyyyyyyyyyyyyyyyye   7xxxxxxxxxxxxxxxxxxx%   xxxxxxxxxxxxxxxu   4yyyyyyyyyyyyyyr===2yyyyyyyyyyyyyyyyyyy1===",
"===1yyyyyyyyyyyyyyyyyyyyyyyyyyyyyye   7xxxxxxxxxxxxxxxxxxx%   xxxxxxxxxxxxxxxu   4yyyyyyyyyyyyyyr===2yyyyyyyyyyyyyyyyyyy1===",
"===1yyyyyyyyyyyyyyyyyyyyyyyyyyyyyye   7xxxkddddddddddddddd+   dddddddddddgxxxu   4yyyyyyyyyyyyyyr===2yyyyyyyyyyyyyyyyyyy1===",
"===1yyyyyyyyyyyyyyyyyyyyyyyyyyyyyye   7xxxa                              9xxxu   4yyyyyyyyyyyyyyr===2yyyyyyyyyyyyyyyyyyy1===",
"===1yyyyyyyyyyyyyyyyyyyyyyyyyyyyyye   7xxxa                              9xxxu   4yyyyyyyyyyyyyyr===2yyyyyyyyyyyyyyyyyyy1===",
"===1yyyyyyyyyyyyyyyyyyyyyyyyyyyyyye   7xxxa                              9xxxu   4yyyyyyyyyyyyyyr===2yyyyyyyyyyyyyyyyyyy1===",
"===,qqqqqqqqqqqqqqqqqqqqqqqqqqqqqq5   7xxxf999999999999999X   99999999999pxxxu   4yyyyyyyyyyyyyyr===2yyyyyyyyyyyyyyyyyyy1===",
"==================================*   7xxxxxxxxxxxxxxxxxxx%   xxxxxxxxxxxxxxxu   4yyyyyyyyyyyyyyr===2yyyyyyyyyyyyyyyyyyy1===",
"==================================*   7xxxxxxxxxxxxxxxxxxx%   xxxxxxxxxxxxxxxu   4yyyyyyyyyyyyyyr===2yyyyyyyyyyyyyyyyyyy1===",
"==================================*   7xxxxxxxxxxxxxxxxxxx%   xxxxxxxxxxxxxxxu   4yyyyyyyyyyyyyyr===2yyyyyyyyyyyyyyyyyyy1===",
"===>666666666666666666666666666===*   7xxxxxxxxxxxxxxxauuuo   xxxxxxxxxxxxxxxu   4yyyyyyyyyyyyyyr===2yyyyyyyyyyyyyyyyyyy1===",
"===1yyyyyyyyyyyyyyyyyyyyyyyyyyy===*   7xxxxxxxxxxxxxxx7       xxxxxxxxxxxxxxxu   4yyyyyyyyyyyyyyr===2yyyyyyyyyyyyyyyyyyy1===",
"===1yyyyyyyyyyyyyyyyyyyyyyyyyyy===*   7xxxxxxxxxxxxxxx7       xxxxxxxxxxxxxxxu   4yyyyyyyyyyyyyyr===2yyyyyyyyyyyyyyyyyyy1===",
"===1yyyyyyyyyyyyyyyyyyyyyyyyyyy===*   7xxxxxxxxxxxxxxx7       xxxxxxxxxxxxxxxu   4yyyyyyyyyyyyyyr===2yyyyyyyyyyyyyyyyyyy1===",
"===1yyyyyyyyyyyyyyyyyyyyyyyyyyy===*   7xxxxxxxxxxxp999iaaaO   xxxxxxxxxxxxxxxu   4yyyyyyyyyyyyyyr===2yyyyyyyyyyyyyyyyyyy1===",
"===1yyyyyyyyyyyyyyyyyyyyyyyyyyy===*   7xxxxxxxxxxx9   dxxx%   xxxxxxxxxxxxxxxu   4yyyyyyyyyyyyyyr===2yyyyyyyyyyyyyyyyyyy1===",
"===1yyyyyyyyyyyyyyyyyyyyyyyyyyy===*   7xxxxxxxxxxx9   dxxx%   xxxxxxxxxxxxxxxu   4yyyyyyyyyyyyyyr===2yyyyyyyyyyyyyyyyyyy1===",
"===1yyyyyyyyyyyyyyyyyyyyyyyyyyy===*   7xxxxxxxxxxx9   dxxx%   xxxxxxxxxxxxxxxu   4yyyyyyyyyyyyyyr===2yyyyyyyyyyyyyyyyyyy1===",
"===1yyyyyyyyyyyyyyyyyyyyyyyyyyy===*   7xxxs7777777idddlxxx%   xxxxxxxxxxxxxxxu   4yyyyyyyyyyyyyyr===2yyyyyyyyyyyyyyyyyyy1===",
"===1yyyyyyyyyyyyyyyyyyyyyyyyyyy===*   7xxxa       axxxxxxx%   xxxxxxxxxxxxxxxu   4yyyyyyyyyyyyyyr===2yyyyyyyyyyyyyyyyyyy1===",
"===1yyyyyyyyyyyyyyyyyyyyyyyyyyy===*   7xxxa       axxxxxxx%   xxxxxxxxxxxxxxxu   4yyyyyyyyyyyyyyr===2yyyyyyyyyyyyyyyyyyy1===",
"===1yyyyyyyyyyyyyyyyyyyyyyyyyyy===*   7xxxa       axxxxxxx%   xxxxxxxxxxxxxxxu   4yyyyyyyyyyyyyyr===2yyyyyyyyyyyyyyyyyyy1===",
"===1yyyyyyyyyyyyyyyyyyyyyyyyyyy===*   7xxxzhhhhhhhzxxxxxxx%   xxxxxxxxxxxxxxxu   4yyyyyyyyyyyyyyr===2yyyyyyyyyyyyyyyyyyy1===",
"===1yyyyyyyyyyyyyyyyyyyyyyyyyyy===*   7xxxxxxxxxxxxxxxxxxx%   xxxxxxxxxxxxxxxu   4yyyyyyyyyyyyyyr===2yyyyyyyyyyyyyyyyyyy1===",
"===1yyyyyyyyyyyyyyyyyyyyyyyyyyy===*   7xxxxxxxxxxxxxxxxxxx%   xxxxxxxxxxxxxxxu   4yyyyyyyyyyyyyyr===2yyyyyyyyyyyyyyyyyyy1===",
"===1yyyyyyyyyyyyyyyyyyyyyyyyyyy===*   7xxxxxxxxxxxxxxxxxxx%   xxxxxxxxxxxxxxxu   4yyyyyyyyyyyyyyr===2yyyyyyyyyyyyyyyyyyy1===",
"===1yyyyyyyyyyyyyyyyyyyyyyyyyyy===*   7xxxxxxxxxxxxxxxxxxx%   xxxxxxxxxxxxxxxu   4yyyyyyyyyyyyyyr===2yyyyyyyyyyyyyyyyyyy1===",
"===1yyyyyyyyyyyyyyyyyyyyyyyyyyy===*   7xxxxxxxxxxxxxxxxxxx%   xxxxxxxxxxxxxxxu   4yyyyyyyyyyyyyyr===2yyyyyyyyyyyyyyyyyyy1===",
"===1yyyyyyyyyyyyyyyyyyyyyyyyyyy===*   7xxxxxxxxxxxxxxxxxxx%   xxxxxxxxxxxxxxxu   4yyyyyyyyyyyyyyr===2yyyyyyyyyyyyyyyyyyy1===",
"===1yyyyyyyyyyyyyyyyyyyyyyyyyyy===*   7xxxxxxxxxxxxxxxkhhh@   xxxxxxxxxxxxxxxu   4yyyyyyyyyyyyyyr===2yyyyyyyyyyyyyyyyyyy1===",
"===1yyyyyyyyyyyyyyyyyyyyyyyyyyy===*   7xxxxxxxxxxxxxxx7       xxxxxxxxxxxxxxxu   4yyyyyyyyyyyyyyr===2yyyyyyyyyyyyyyyyyyy1===",
"===1yyyyyyyyyyyyyyyyyyyyyyyyyyy===*   7xxxxxxxxxxxxxxx7       xxxxxxxxxxxxxxxu   4yyyyyyyyyyyyyyr===2yyyyyyyyyyyyyyyyyyy1===",
"===1yyyyyyyyyyyyyyyyyyyyyyyyyyy===*   7xxxxxxxxxxxxxxx7       xxxxxxxxxxxxxxxu   4yyyyyyyyyyyyyyr===2yyyyyyyyyyyyyyyyyyy1===",
"===1yyyyyyyyyyyyyyyyyyyyyyyyyyy===*   7xxxxxxxxxxxxxxx07777777xxxxxxxxxxxxxxxu   4yyyyyyyyyyyyyyr===2yyyyyyyyyyyyyyyyyyy1===",
"===1yyyyyyyyyyyyyyyyyyyyyyyyyyy===*   7xxxxxxxxxxxxxxxxxxxxxxxxxxxxxxxxxxxxxxu   4yyyyyyyyyyyyyyr===2yyyyyyyyyyyyyyyyyyy1===",
"===1yyyyyyyyyyyyyyyyyyyyyyyyyyy===*   7xxxxxxxxxxxxxxxxxxxxxxxxxxxxxxxxxxxxxxu   4yyyyyyyyyyyyyyr===2yyyyyyyyyyyyyyyyyyy1===",
"===1yyyyyyyyyyyyyyyyyyyyyyyyyyy===*   7xxxxxxxxxxxxxxxxxxxxxxxxxxxxxxxxxxxxxxu   4yyyyyyyyyyyyyyr===2yyyyyyyyyyyyyyyyyyy1===",
"===1yyyyyyyyyyyyyyyyyyyyyyyyyyy===*   7xxxxxxxxxxxxxxxxxxxxxxxxxxxxxxxxxxxxxxu   4yyyyyyyyyyyyyyr===2yyyyyyyyyyyyyyyyyyy1===",
"===1yyyyyyyyyyyyyyyyyyyyyyyyyyy===*   7xxxxxxxxxxxxxxxxxxxxxxxxxxxxxxxxxxxxxxu   4yyyyyyyyyyyyyyr===2yyyyyyyyyyyyyyyyyyy1===",
"===1yyyyyyyyyyyyyyyyyyyyyyyyyyy===*   7xxxxxxxxxxxxxxxxxxxxxxxxxxxxxxxxxxxxxxu   4yyyyyyyyyyyyyyr===2yyyyyyyyyyyyyyyyyyy1===",
"===1yyyyyyyyyyyyyyyyyyyyyyyyyyy===*   7xxxxxxxxxxxxxxxxxxxxxxxxxxxxxxxxxxxxxxu   4yyyyyyyyyyyyyyr===2yyyyyyyyyyyyyyyyyyy1===",
"===1yyyyyyyyyyyyyyyyyyyyyyyyyyy===*   7xxxxxxxxxxxxxxxxxxxxxxxxxxxxxxxxxxxxxxu   4yyyyyyyyyyyyyyr===2yyyyyyyyyyyyyyyyyyy1===",
"===1yyyyyyyyyyyyyyyyyyyyyyyyyyy===*   7xxxxxxxxxxxxxxxxxxxxxxxxxxxxxxxxxxxxxxu   4yyyyyyyyyyyyyyr===2yyyyyyyyyyyyyyyyyyy1===",
"===1yyyyyyyyyyyyyyyyyyyyyyyyyyy===*   7xxxxxxxxxxxxxxxxxxxxxxxxxxxxxxxxxxxxxxu   4yyyyyyyyyyyyyyr===2yyyyyyyyyyyyyyyyyyy1===",
"===1yyyyyyyyyyyyyyyyyyyyyyyyyyy===*   7xxxxxxxxxxxxxxxxxxxxxxxxxxxxxxxxxxxxxxu   4yyyyyyyyyyyyyyr===2yyyyyyyyyyyyyyyyyyy1===",
"===1yyyyyyyyyyyyyyyyyyyyyyyyyyy===*   7xxxxxxxxxxxxxxxxxxxxxxxxxxxxxxxxxxxxxxu   4yyyyyyyyyyyyyyr===2yyyyyyyyyyyyyyyyyyy1===",
"===1yyyyyyyyyyyyyyyyyyyyyyyyyyy===*   7xxxxxxxxxxxxxxxxxxxxxxxxxxxxxxxxxxxxxxu   4yyyyyyyyyyyyyyr===2yyyyyyyyyyyyyyyyyyy1===",
"===1yyyyyyyyyyyyyyyyyyyyyyyyyyy===*   7xxxxxxxxxxxxxxxxxxxxxxxxxxxxxxxxxxxxxxu   4yyyyyyyyyyyyyyr===2yyyyyyyyyyyyyyyyyyy1===",
"===1yyyyyyyyyyyyyyyyyyyyyyyyyyy===*   7xxxxxxxxxxxxxxxxxxxxxxxxxxxxxxxxxxxxxxu   4yyyyyyyyyyyyyyr===2yyyyyyyyyyyyyyyyyyy1===",
"===1yyyyyyyyyyyyyyyyyyyyyyyyyyy===*   7xxxxxxxxxxxxxxxxxxxxxxxxxxxxxxxxxxxxxxu   4yyyyyyyyyyyyyyr===2yyyyyyyyyyyyyyyyyyy1===",
"===1yyyyyyyyyyyyyyyyyyyyyyyyyyy===*   7xxxxxxxxxxxxxxxxxxxxxxxxxxxxxxxxxxxxxxu   4yyyyyyyyyyyyyyr===2yyyyyyyyyyyyyyyyyyy1===",
"===1yyyyyyyyyyyyyyyyyyyyyyyyyyy===*   7xxxxxxxxxxxxxxxxxxxxxxxxxxxxxxxxxxxxxxu   4yyyyyyyyyyyyyyr===2yyyyyyyyyyyyyyyyyyy1===",
"===1yyyyyyyyyyyyyyyyyyyyyyyyyyy===*   7xxxxxxxxxxxxxxxxxxxxxxxxxxxxxxxxxxxxxxu   4yyyyyyyyyyyyyyr===2yyyyyyyyyyyyyyyyyyy1===",
"===1yyyyyyyyyyyyyyyyyyyyyyyyyyy===*   .%%%%%%%%%%%%%%%%%%%%%%%%%%%%%%%%%%%%%%o   4yyyyyyyyyyyyyyr===2yyyyyyyyyyyyyyyyyyy1===",
"===1yyyyyyyyyyyyyyyyyyyyyyyyyyy===*                                              4yyyyyyyyyyyyyyr===2yyyyyyyyyyyyyyyyyyy1===",
"===1yyyyyyyyyyyyyyyyyyyyyyyyyyy===*                                              4yyyyyyyyyyyyyyr===2yyyyyyyyyyyyyyyyyyy1===",
"===1yyyyyyyyyyyyyyyyyyyyyyyyyyy===*                                              4yyyyyyyyyyyyyyr===2yyyyyyyyyyyyyyyyyyy1===",
"===1yyyyyyyyyyyyyyyyyyyyyyyyyyy===1yyyyyyyyyyyyyyyyyyyyyyyyyyyyyyr==========================================================",
"===1yyyyyyyyyyyyyyyyyyyyyyyyyyy===1yyyyyyyyyyyyyyyyyyyyyyyyyyyyyyr==========================================================",
"===1yyyyyyyyyyyyyyyyyyyyyyyyyyy===1yyyyyyyyyyyyyyyyyyyyyyyyyyyyyyr==========================================================",
"===1yyyyyyyyyyyyyyyyyyyyyyyyyyy===1yyyyyyyyyyyyyyyyyyyyyyyyyyyyyyr===:11111111111111111111111111111111111111111111111111-===",
"===1yyyyyyyyyyyyyyyyyyyyyyyyyyy===1yyyyyyyyyyyyyyyyyyyyyyyyyyyyyyr===2yyyyyyyyyyyyyyyyyyyyyyyyyyyyyyyyyyyyyyyyyyyyyyyyyy1===",
"===1yyyyyyyyyyyyyyyyyyyyyyyyyyy===1yyyyyyyyyyyyyyyyyyyyyyyyyyyyyyr===2yyyyyyyyyyyyyyyyyyyyyyyyyyyyyyyyyyyyyyyyyyyyyyyyyy1===",
"===1yyyyyyyyyyyyyyyyyyyyyyyyyyy===1yyyyyyyyyyyyyyyyyyyyyyyyyyyyyyr===2yyyyyyyyyyyyyyyyyyyyyyyyyyyyyyyyyyyyyyyyyyyyyyyyyy1===",
"===1yyyyyyyyyyyyyyyyyyyyyyyyyyy===1yyyyyyyyyyyyyyyyyyyyyyyyyyyyyyr===2yyyyyyyyyyyyyyyyyyyyyyyyyyyyyyyyyyyyyyyyyyyyyyyyyy1===",
"===1yyyyyyyyyyyyyyyyyyyyyyyyyyy===1yyyyyyyyyyyyyyyyyyyyyyyyyyyyyyr===2yyyyyyyyyyyyyyyyyyyyyyyyyyyyyyyyyyyyyyyyyyyyyyyyyy1===",
"===1yyyyyyyyyyyyyyyyyyyyyyyyyyy===1yyyyyyyyyyyyyyyyyyyyyyyyyyyyyyr===2yyyyyyyyyyyyyyyyyyyyyyyyyyyyyyyyyyyyyyyyyyyyyyyyyy1===",
"===1yyyyyyyyyyyyyyyyyyyyyyyyyyy===1yyyyyyyyyyyyyyyyyyyyyyyyyyyyyyr===2yyyyyyyyyyyyyyyyyyyyyyyyyyyyyyyyyyyyyyyyyyyyyyyyyy1===",
"===1yyyyyyyyyyyyyyyyyyyyyyyyyyy===1yyyyyyyyyyyyyyyyyyyyyyyyyyyyyyr===2yyyyyyyyyyyyyyyyyyyyyyyyyyyyyyyyyyyyyyyyyyyyyyyyyy1===",
"===1yyyyyyyyyyyyyyyyyyyyyyyyyyy===1yyyyyyyyyyyyyyyyyyyyyyyyyyyyyyr===2yyyyyyyyyyyyyyyyyyyyyyyyyyyyyyyyyyyyyyyyyyyyyyyyyy1===",
"===1yyyyyyyyyyyyyyyyyyyyyyyyyyy===1yyyyyyyyyyyyyyyyyyyyyyyyyyyyyyr===2yyyyyyyyyyyyyyyyyyyyyyyyyyyyyyyyyyyyyyyyyyyyyyyyyy1===",
"===1yyyyyyyyyyyyyyyyyyyyyyyyyyy===1yyyyyyyyyyyyyyyyyyyyyyyyyyyyyyr===2yyyyyyyyyyyyyyyyyyyyyyyyyyyyyyyyyyyyyyyyyyyyyyyyyy1===",
"===1yyyyyyyyyyyyyyyyyyyyyyyyyyy===1yyyyyyyyyyyyyyyyyyyyyyyyyyyyyyr===2yyyyyyyyyyyyyyyyyyyyyyyyyyyyyyyyyyyyyyyyyyyyyyyyyy1===",
"===1yyyyyyyyyyyyyyyyyyyyyyyyyyy===1yyyyyyyyyyyyyyyyyyyyyyyyyyyyyyr===2yyyyyyyyyyyyyyyyyyyyyyyyyyyyyyyyyyyyyyyyyyyyyyyyyy1===",
"===1yyyyyyyyyyyyyyyyyyyyyyyyyyy===1yyyyyyyyyyyyyyyyyyyyyyyyyyyyyyr===2yyyyyyyyyyyyyyyyyyyyyyyyyyyyyyyyyyyyyyyyyyyyyyyyyy1===",
"===1yyyyyyyyyyyyyyyyyyyyyyyyyyy===1yyyyyyyyyyyyyyyyyyyyyyyyyyyyyyr===2yyyyyyyyyyyyyyyyyyyyyyyyyyyyyyyyyyyyyyyyyyyyyyyyyy1===",
"===1yyyyyyyyyyyyyyyyyyyyyyyyyyy===1yyyyyyyyyyyyyyyyyyyyyyyyyyyyyyr===2yyyyyyyyyyyyyyyyyyyyyyyyyyyyyyyyyyyyyyyyyyyyyyyyyy1===",
"===1yyyyyyyyyyyyyyyyyyyyyyyyyyy===1yyyyyyyyyyyyyyyyyyyyyyyyyyyyyyr===2yyyyyyyyyyyyyyyyyyyyyyyyyyyyyyyyyyyyyyyyyyyyyyyyyy1===",
"===1yyyyyyyyyyyyyyyyyyyyyyyyyyy===1yyyyyyyyyyyyyyyyyyyyyyyyyyyyyyr===2yyyyyyyyyyyyyyyyyyyyyyyyyyyyyyyyyyyyyyyyyyyyyyyyyy1===",
"===1yyyyyyyyyyyyyyyyyyyyyyyyyyy===1yyyyyyyyyyyyyyyyyyyyyyyyyyyyyyr===2yyyyyyyyyyyyyyyyyyyyyyyyyyyyyyyyyyyyyyyyyyyyyyyyyy1===",
"===1yyyyyyyyyyyyyyyyyyyyyyyyyyy===1yyyyyyyyyyyyyyyyyyyyyyyyyyyyyyr===2yyyyyyyyyyyyyyyyyyyyyyyyyyyyyyyyyyyyyyyyyyyyyyyyyy1===",
"===1yyyyyyyyyyyyyyyyyyyyyyyyyyy===1yyyyyyyyyyyyyyyyyyyyyyyyyyyyyyr===2yyyyyyyyyyyyyyyyyyyyyyyyyyyyyyyyyyyyyyyyyyyyyyyyyy1===",
"===1yyyyyyyyyyyyyyyyyyyyyyyyyyy===1yyyyyyyyyyyyyyyyyyyyyyyyyyyyyyr===2yyyyyyyyyyyyyyyyyyyyyyyyyyyyyyyyyyyyyyyyyyyyyyyyyy1===",
"===1yyyyyyyyyyyyyyyyyyyyyyyyyyy===1yyyyyyyyyyyyyyyyyyyyyyyyyyyyyyr===2yyyyyyyyyyyyyyyyyyyyyyyyyyyyyyyyyyyyyyyyyyyyyyyyyy1===",
"===-111111111111111111111111111===-111111111111111111111111111111<===:11111111111111111111111111111111111111111111111111-===",
"============================================================================================================================",
"============================================================================================================================",
"============================================================================================================================"
};
