/* XPM */
static char * wallmid_xpm[] = {
"124 124 16 1",
" 	c #5B3E00",
".	c #000000",
"+	c #5C3F01",
"@	c #644709",
"#	c #634608",
"$	c #5D4002",
"%	c #A28545",
"&	c #006F13",
"*	c #997C3C",
"=	c #6D5011",
"-	c #614405",
";	c #876A2B",
">	c #826526",
",	c #5F4204",
"'	c #7F6223",
")	c #7A5D1E",
"                                           .......                                                                          ",
"                                           .......                                                                          ",
"                                           .......                                                                          ",
"   +@@@@@@@@@@@@@@@@@@@@@@@@@@@@@@@@@@@@@@@.......@@@@@@@@@@@@@@@#   $@@@@@@@@@@@@@@@@@@@@@@@@@@#   $@@@@@@@@@@@@@@@@@@@+   ",
"   @%%%%%%%%%%%%%%%%%%%%%%%%%%%%%%%%%%%....&&&&&&&....%%%%%%%%%%%*   =%%%%%%%%%%%%%%%%%%%%%%%%%%*   =%%%%%%%%%%%%%%%%%%%@   ",
"   @%%%%%%%%%%%%%%%%%%%%%%%%%%%%%%%%%%%....&&&&&&&....%%%%%%%%%%%*   =%%%%%%%%%%%%%%%%%%%%%%%%%%*   =%%%%%%%%%%%%%%%%%%%@   ",
"   @%%%%%%%%%%%%%%%%%%%%%%%%%%%%%%%%%%%....&&&&&&&....%%%%%%%%%%%*   =%%%%%%%%%%%%%%%%%%%%%%%%%%*   =%%%%%%%%%%%%%%%%%%%@   ",
"   @%%%%%%%%%%%%%%%%%%%%%%%%%%%%%%%%%%%....&&&&&&&....%%%%%%%%%%%*   =%%%%%%%%%%%%%%%%%%%%%%%%%%*   =%%%%%%%%%%%%%%%%%%%@   ",
"   @%%%%%%%%%%%%%%%%%%%%%%%%%%%%%%%%%%%...............%%%%%%%%%%%*   =%%%%%%%%%%%%%%%%%%%%%%%%%%*   =%%%%%%%%%%%%%%%%%%%@   ",
"   @%%%%%%%%%%%%%%%%%%%%%%%%%%%%%%%%%%%...............%%%%%%%%%%%*   =%%%%%%%%%%%%%%%%%%%%%%%%%%*   =%%%%%%%%%%%%%%%%%%%@   ",
"   @%%%%%%%%%%%%%%%%%%%%%%%%%%%%%%%%%%%...............%%%%%%%%%%%*   =%%%%%%%%%%%%%%%%%%%%%%%%%%*   =%%%%%%%%%%%%%%%%%%%@   ",
"   @%%%%%%%%%%%%%%%%%%%%%%%%%%%%%%%%%%%...............%%%%%%%%%%%*   =%%%%%%%%%%%%%%%%%%%%%%%%%%*   =%%%%%%%%%%%%%%%%%%%@   ",
"   @%%%%%%%%%%%%%%%%%%%%%%%%%%%%%%%%%%%....&&&&&&&....%%%%%%%%%%%*   =%%%%%%%%%%%%%%%%%%%%%%%%%%*   =%%%%%%%%%%%%%%%%%%%@   ",
"   @%%%%%%%%%%%%%%%%%%%%%%%%%%%%%%%%%%%....&&&&&&&....%%%%%%%%%%%*   =%%%%%%%%%%%%%%%%%%%%%%%%%%*   =%%%%%%%%%%%%%%%%%%%@   ",
"   @%%%%%%%%%%%%%%%%%%%%%%%%%%%%%%%%%%%....&&&&&&&....%%%%%%%%%%%*   =%%%%%%%%%%%%%%%%%%%%%%%%%%*   =%%%%%%%%%%%%%%%%%%%@   ",
"   @%%%%%%%%%%%%%%%%%%%%%%%%%%%%%%%%%%%....&&&&&&&....%%%%%%%%%%%*   =%%%%%%%%%%%%%%%%%%%%%%%%%%*   =%%%%%%%%%%%%%%%%%%%@   ",
"   @%%%%%%%%%%%%%%%%%%%%%%%%%%%%%%%%%%%....&&&&&&&....%%%%%%%%%%%*   =%%%%%%%%%%%%%%%%%%%%%%%%%%*   =%%%%%%%%%%%%%%%%%%%@   ",
"   @%%%%%%%%%%%%%%%%%%%%%%%%%%%%%%%%%%%....&&&&&&&....%%%%%%%%%%%*   =%%%%%%%%%%%%%%%%%%%%%%%%%%*   =%%%%%%%%%%%%%%%%%%%@   ",
"   @%%%%%%%%%%%%%%%%%%%%%%%%%%%%%%%%%%%....&&&&&&&....%%%%%%%%%%%*   =%%%%%%%%%%%%%%%%%%%%%%%%%%*   =%%%%%%%%%%%%%%%%%%%@   ",
"   @%%%%%%%%%%%%%%%%%%%%%%%%%%%%%%%%%%%....&&&&&&&....%%%%%%%%%%%*   =%%%%%%%%%%%%%%%%%%%%%%%%%%*   =%%%%%%%%%%%%%%%%%%%@   ",
"   @%%%%%%%%%%%%%%%%%%%%%%%%%%%%%%%%%%%....&&&&&&&....%%%%%%%%%%%*   =%%%%%%%%%%%%%%%%%%%%%%%%%%*   =%%%%%%%%%%%%%%%%%%%@   ",
"   @%%%%%%%%%%%%%%%%%%%%%%%%%%%%%%%%%%%....&&&&&&&....%%%%%%%%%%%*   =%%%%%%%%%%%%%%%%%%%%%%%%%%*   =%%%%%%%%%%%%%%%%%%%@   ",
"   @%%%%%%%%%%%%%%%%%%%%%%%%%%%%%%%%%%%....&&&&&&&....%%%%%%%%%%%*   =%%%%%%%%%%%%%%%%%%%%%%%%%%*   =%%%%%%%%%%%%%%%%%%%@   ",
"   @%%%%%%%%%%%%%%%%%%%%%%%%%%%%%%%%%%%....&&&&&&&....%%%%............%%%%%%%%%%%%%%%%%%%%%%%%%%*   =%%%%%%%%%%%%%%%%%%%@   ",
"   @%%%%%%%%%%%%%%%%%%%%%%%%%%%%%%%%%%%....&&&&&&&....%%%%............%%%%%%%%%%%%%%%%%%%%%%%%%%*   =%%%%%%%%%%%%%%%%%%%@   ",
"   @%%%%%%%%%%%%%%%%%%%%%%%%%%%%%%%%%%%....&&&&&&&....%%%%............%%%%%%%%%%%%%%%%%%%%%%%%%%*   =%%%%%%%%%%%%%%%%%%%@   ",
"   @%%%%%%%%%%%%%%%%%%%%%%%%%%%%%%%%%%%....&&&&&&&....%%%%............%%%%%%%%%%%%%%%%%%%%%%%%%%*   =%%%%%%%%%%%%%%%%%%%@   ",
"   @%%%%%%%%%%%%%%%%%%%%%%%%%%%%%%%%%%%....&&&&&&&........&&&&....   =%%%%%%%%%%%%%%%%%%%%%%%%%%*   =%%%%%%%%%%%%%%%%%%%@   ",
"   @%%%%%%%%%%%%%%%%%%%%%%%%%%%%%%%%%%%....&&&&&&&........&&&&....   =%%%%%%%%%%%%%%%%%%%%%%%%%%*   =%%%%%%%%%%%%%%%%%%%@   ",
"   @%%%%%%%%%%%%%%%%%%%%%%%%%%%%%%%%%%%....&&&&&&&........&&&&....   =%%%%%%%%%%%%%%%%%%%%%%%%%%*   =%%%%%%%%%%%%%%%%%%%@   ",
"   @%%%%%%%%%%%%%%%%%%%%%%%%%%%%%%%%%%%....&&&&&&&........&&&&....   =%%%%%%%%%%%%%%%%%%%%%%%%%%*   =%%%%%%%%%%%%%%%%%%%@   ",
"   @%%%%%%%%%%%%%%%%%%%%%%%%%%%%%%%%%%%....&&&&&&&....&&&&&&&&....   =%%%%%%%%%%%........%%%%%%%*   =%%%%%%%%%%%%%%%%%%%@   ",
"   @%%%%%%%%%%%%%%%%%%%%%%%%%%%%%%%%%%%....&&&&&&&....&&&&&&&&....   =%%%%%%%%%%%........%%%%%%%*   =%%%%%%%%%%%%%%%%%%%@   ",
"   @%%%%%%%%%%%%%%%%%%%%%%%%%%%%%%%%%%%....&&&&&&&....&&&&&&&&....   =%%%%%%%%%%%........%%%%%%%*   =%%%%%%%%%%%%%%%%%%%@   ",
"   @%%%%%%%%%%%%%%%%%%%%%%%%%%%%%%%%%%%....&&&&&&&....&&&&&&&&....   =%%%%%%%%%%%........%%%%%%%*   =%%%%%%%%%%%%%%%%%%%@   ",
"   @%%%%%%%%%%%%%%%%%%%%%%%%%%%%%%%%%%%....&&&&&&&............%%%*   =%%%%%%%%...&&&&&&&&....%%%*   =%%%%%%%%%%%%%%%%%%%@   ",
"   @%%%%%%%%%%%%%%%%%%%%%%%%%%%%%%%%%%%....&&&&&&&............%%%*   =%%%%%%%%...&&&&&&&&....%%%*   =%%%%%%%%%%%%%%%%%%%@   ",
"   @%%%%%%%%%%%%%%%%%%%%%%%%%%%%%%%%%%%....&&&&&&&............%%%*   =%%%%%%%%...&&&&&&&&....%%%*   =%%%%%%%%%%%%%%%%%%%@   ",
"   @%%%%%%%%%%%%%%%%%%%%%%%%%%%%%%%%%%%....&&&&&&&............%%%*   =%%%%%%%%...&&&&&&&&....%%%*   =%%%%%%%%%%%%%%%%%%%@   ",
"   @%%%%%%%%%%%%%%%%%%%%%%%%%%%%%%%%%%%....&&&&&&&....%%%%%%%%%%%*   =%%%%%%%%...............%%%*   =%%%%%%%%%%%%%%%%%%%@   ",
"   @%%%%%%%%%%%%%%%%%%%%%%%%%%%%%%%%%%%....&&&&&&&....%%%%%%%%%%%*   =%%%%%%%%...............%%%*   =%%%%%%%%%%%%%%%%%%%@   ",
"   @%%%%%%%%%%%%%%%%%%%%%%%%%%%%%%%%%%%....&&&&&&&....%%%%%%%%%%%*   =%%%%%%%%...............%%%*   =%%%%%%%%%%%%%%%%%%%@   ",
"   -;;;;;;;;;;;;;;;;;;;;;;;;;;;;;;;;;;;....&&&&&&&....;;;;;;;;;;;>   =%%%%%%%%...............%%%*   =%%%%%%%%%%%%%%%%%%%@   ",
"                                       ....&&&&&&&....               =%%%%%%%%...&&&&&&&&....%%%*   =%%%%%%%%%%%%%%%%%%%@   ",
"                                       ....&&&&&&&....               =%%%%%%%%...&&&&&&&&....%%%*   =%%%%%%%%%%%%%%%%%%%@   ",
"                                       ....&&&&&&&....               =%%%%%%%%...&&&&&&&&....%%%*   =%%%%%%%%%%%%%%%%%%%@   ",
"   ,'''''''''''''''''''''''''''   ,''''....&&&&&&&....''''''''''')   =%%%%%%%%...&&&&&&&&....%%%*   =%%%%%%%%%%%%%%%%%%%@   ",
"   @%%%%%%%%%%%%%%%%%%%%%%%........%%%%....&&&&&&&....%%%%%%%%%%%*........%%%%...&&&&&&&&....%%%*   =%%%%%%%%%%%%%%%%%%%@   ",
"   @%%%%%%%%%%%%%%%%%%%%%%%........%%%%....&&&&&&&....%%%%%%%%%%%*........%%%%...&&&&&&&&....%%%*   =%%%%%%%%%%%%%%%%%%%@   ",
"   @%%%%%%%%%%%%%%%%%%%%%%%........%%%%....&&&&&&&....%%%%%%%%%%%*........%%%%...&&&&&&&&....%%%*   =%%%%%%%%%%%%%%%%%%%@   ",
"   @%%%%%%%%%%%%%%%%%%%%%%%....&&&&........&&&&&&&....%%%%%%%%%%%*....&&&&.......&&&&&&&&....%%%*   =%%%%%%%%%%%%%%%%%%%@   ",
"   @%%%%%%%%%%%%%%%%%%%%%%%....&&&&........&&&&&&&....%%%%%%%%%%%*....&&&&.......&&&&&&&&....%%%*   =%%%%%%%%%%%%%%%%%%%@   ",
"   @%%%%%%%%%%%%%%%%%%%%%%%....&&&&........&&&&&&&....%%%%%%%%%%%*....&&&&.......&&&&&&&&....%%%*   =%%%%%%%%%%%%%%%%%%%@   ",
"   @%%%%%%%%%%%%%%%%%%%%%%%....&&&&........&&&&&&&....%%%%%%%%%%%*....&&&&.......&&&&&&&&....%%%*   =%%%%%%%%%%%%%%%%%%%@   ",
"   @%%%%%%%%%%%%%%%%%%%%%%%....&&&&........&&&&&&&....%%%%%%%%%%%*   =....%%%%...&&&&&&&&....%%%*   =%%%%%%%%%%%%%%%%%%%@   ",
"   @%%%%%%%%%%%%%%%%%%%%%%%....&&&&........&&&&&&&....%%%%%%%%%%%*   =....%%%%...&&&&&&&&....%%%*   =%%%%%%%%%%%%%%%%%%%@   ",
"   @%%%%%%%%%%%%%%%%%%%%%%%....&&&&........&&&&&&&....%%%%%%%%%%%*   =....%%%%...&&&&&&&&....%%%*   =%%%%%%%%%%%%%%%%%%%@   ",
"   @%%%%%%%%%%%%%%%%%%%%%%%....&&&&........&&&&&&&....%%%%%%%%%%%*   =....%%%%...&&&&&&&&....%%%*   =%%%%%%%%%%%%%%%%%%%@   ",
"   @%%%%%%%%%%%%%%%%%%%%%%%%%%%....%%%%....&&&&&&&....%%%%%%%%%%%*   =%%%%%%%%...&&&&&&&&....%%%*   =%%%%%%%%%%%%%%%%%%%@   ",
"   @%%%%%%%%%%%%%%%%%%%%%%%%%%%....%%%%....&&&&&&&....%%%%%%%%%%%*   =%%%%%%%%...&&&&&&&&....%%%*   =%%%%%%%%%%%%%%%%%%%@   ",
"   @%%%%%%%%%%%%%%%%%%%%%%%%%%%....%%%%....&&&&&&&....%%%%%%%%%%%*   =%%%%%%%%...&&&&&&&&....%%%*   =%%%%%%%%%%%%%%%%%%%@   ",
"   @%%%%%%%%%%%%%%%%%%%%%%%%%%%....%%%%....&&&&&&&....%%%%%%%%%%%*   =%%%%%%%%...&&&&&&&&....%%%*   =%%%%%%%%%%%%%%%%%%%@   ",
"   @%%%%%%%%%%%%%%%%%%%%%%%%%%%   @%%%%....&&&&&&&....%%%%%%%%%%%*   =%%%%%%%%...&&&&&&&&....%%%*........%%%%%%%%%%%%%%%@   ",
"   @%%%%%%%%%%%%%%%%%%%%%%%%%%%   @%%%%....&&&&&&&....%%%%%%%%%%%*   =%%%%%%%%...&&&&&&&&....%%%*........%%%%%%%%%%%%%%%@   ",
"   @%%%%%%%%%%%%%%%%%%%%%%%%%%%   @%%%%....&&&&&&&....%%%%%%%%%%%*   =%%%%%%%%...&&&&&&&&....%%%*........%%%%%%%%%%%%%%%@   ",
"   @%%%%%%%%%%%%%%%%%%%%%%%%%%%   @%%%%....&&&&&&&....%%%%%%%%%%%*   =%%%%%%%%...&&&&&&&&....%%%*........%%%%%%%%%%%%%%%@   ",
"   @%%%%%%%%%%%%%%%%%%%%%%%%%%%   @%%%%....&&&&&&&....%%%%%%%%%%%*   =%%%%%%%%...&&&&&&&&........&&&&....%%%%%%%%%%%%%%%@   ",
"   @%%%%%%%%%%%%%%%%%%%%%%%%%%%   @%%%%....&&&&&&&....%%%%%%%%%%%*   =%%%%%%%%...&&&&&&&&........&&&&....%%%%%%%%%%%%%%%@   ",
"   @%%%%%%%%%%%%%%%%%%%%%%%%%%%   @%%%%....&&&&&&&....%%%%%%%%%%%*   =%%%%%%%%...&&&&&&&&........&&&&....%%%%%%%%%%%%%%%@   ",
"   @%%%%%%%%%%%%%%%%%%%%%%%%%%%   @%%%%....&&&&&&&....%%%%%%%%%%%*   =%%%%%%%%...&&&&&&&&........&&&&....%%%%%%%%%%%%%%%@   ",
"   @%%%%%%%%%%%%%%%%%%%%%%%%%%%   @%%%%....&&&&&&&....%%%%%%%%%%%*   =%%%%%%%%...&&&&&&&&....&&&&&&&&....%%%%%%%%%%%%%%%@   ",
"   @%%%%%%%%%%%%%%%%%%%%%%%%%%%   @%%%%....&&&&&&&....%%%%%%%%%%%*   =%%%%%%%%...&&&&&&&&....&&&&&&&&....%%%%%%%%%%%%%%%@   ",
"   @%%%%%%%%%%%%%%%%%%%%%%%%%%%   @%%%%....&&&&&&&....%%%%%%%%%%%*   =%%%%%%%%...&&&&&&&&....&&&&&&&&....%%%%%%%%%%%%%%%@   ",
"   @%%%%%%%%%%%%%%%%%%%%%%%%%%%   @%%%%....&&&&&&&....%%%%%%%%%%%*   =%%%%%%%%...&&&&&&&&....&&&&&&&&....%%%%%%%%%%%%%%%@   ",
"   @%%%%%%%%%%%%%%%%%%%%%%%%%%%   @%%%%....&&&&&&&....%%%%%%%%%%%*   =%%%%%%%%...&&&&&&&&............%%%%%%%%%%%%%%%%%%%@   ",
"   @%%%%%%%%%%%%%%%%%%%%%%%%%%%   @%%%%....&&&&&&&....%%%%%%%%%%%*   =%%%%%%%%...&&&&&&&&............%%%%%%%%%%%%%%%%%%%@   ",
"   @%%%%%%%%%%%%%%%%%%%%%%%%%%%   @%%%%....&&&&&&&....%%%%%%%%%%%*   =%%%%%%%%...&&&&&&&&............%%%%%%%%%%%%%%%%%%%@   ",
"   @%%%%%%%%%%%%%%%%%%%%%%%%%%%   @%%%%....&&&&&&&....%%%%%%%%%%%*   =%%%%%%%%...&&&&&&&&............%%%%%%%%%%%%%%%%%%%@   ",
"   @%%%%%%%%%%%%%%%%%%%%%%%%%%%   @%%%%....&&&&&&&....%%%%%%%%%%%*   =%%%%%%%%...&&&&&&&&....%%%*   =%%%%%%%%%%%%%%%%%%%@   ",
"   @%%%%%%%%%%%%%%%%%%%%%%%%%%%   @%%%%....&&&&&&&....%%%%%%%%%%%*   =%%%%%%%%...&&&&&&&&....%%%*   =%%%%%%%%%%%%%%%%%%%@   ",
"   @%%%%%%%%%%%%%%%%%%%%%%%%%%%   @%%%%....&&&&&&&....%%%%%%%%%%%*   =%%%%%%%%...&&&&&&&&....%%%*   =%%%%%%%%%%%%%%%%%%%@   ",
"   @%%%%%%%%%%%%%%%%%%%%%%%%%%%   @%%%%....&&&&&&&....%%%%%%%%%%%*   =%%%%%%%%...&&&&&&&&....%%%*   =%%%%%%%%%%%%%%%%%%%@   ",
"   @%%%%%%%%%%%%%%%%%%%%%%%%%%%   @%%%%....&&&&&&&....%%%%%%%%%%%*   =%%%%%%%%...&&&&&&&&....%%%*   =%%%%%%%%%%%%%%%%%%%@   ",
"   @%%%%%%%%%%%%%%%%%%%%%%%%%%%   @%%%%....&&&&&&&....%%%%%%%%%%%*   =%%%%%%%%...&&&&&&&&....%%%*   =%%%%%%%%%%%%%%%%%%%@   ",
"   @%%%%%%%%%%%%%%%%%%%%%%%%%%%   @%%%%....&&&&&&&....%%%%%%%%%%%*   =%%%%%%%%...&&&&&&&&....%%%*   =%%%%%%%%%%%%%%%%%%%@   ",
"   @%%%%%%%%%%%%%%%%%%%%%%%%%%%   @%%%%....&&&&&&&....%%%%%%%%%%%*   =%%%%%%%%...&&&&&&&&....%%%*   =%%%%%%%%%%%%%%%%%%%@   ",
"   @%%%%%%%%%%%%%%%%%%%%%%%%%%%   @%%%%....&&&&&&&....%%%%%%%%%%%*   =%%%%%%%%...&&&&&&&&....%%%*   =%%%%%%%%%%%%%%%%%%%@   ",
"   @%%%%%%%%%%%%%%%%%%%%%%%%%%%   @%%%%....&&&&&&&....%%%%%%%%%%%*   =%%%%%%%%...&&&&&&&&....%%%*   =%%%%%%%%%%%%%%%%%%%@   ",
"   @%%%%%%%%%%%%%%%%%%%%%%%%%%%   @%%%%....&&&&&&&....%%%%%%%%%%%*   =%%%%%%%%...&&&&&&&&....%%%*   =%%%%%%%%%%%%%%%%%%%@   ",
"   @%%%%%%%%%%%%%%%%%%%%%%%%%%%   @%%%%....&&&&&&&....%%%%%%%%%%%*   =%%%%%%%%...&&&&&&&&....%%%*   =%%%%%%%%%%%%%%%%%%%@   ",
"   @%%%%%%%%%%%%%%%%%%%%%%%%%%%   @%%%%....&&&&&&&....%%%%%%%%%%%*   =%%%%%%%%...&&&&&&&&....%%%*   =%%%%%%%%%%%%%%%%%%%@   ",
"   @%%%%%%%%%%%%%%%%%%%%%%%%%%%   @%%%%....&&&&&&&....%%%%%%%%%%%*   =%%%%%%%%...&&&&&&&&....%%%*   =%%%%%%%%%%%%%%%%%%%@   ",
"   @%%%%%%%%%%%%%%%%%%%%%%%%%%%   @%%%%....&&&&&&&....%%%%%%%%%%%*   =%%%%%%%%...&&&&&&&&....%%%*   =%%%%%%%%%%%%%%%%%%%@   ",
"   @%%%%%%%%%%%%%%%%%%%%%%%%%%%   @....&&&&&&&&&&&&&&&....%%%%%%%*            ...&&&&&&&&....                               ",
"   @%%%%%%%%%%%%%%%%%%%%%%%%%%%   @....&&&&&&&&&&&&&&&....%%%%%%%*            ...&&&&&&&&....                               ",
"   @%%%%%%%%%%%%%%%%%%%%%%%%%%%   @....&&&&&&&&&&&&&&&....%%%%%%%*            ...&&&&&&&&....                               ",
"   @%%%%%%%%%%%%%%%%%%%%%%%%%%%   @....&&&&&&&&&&&&&&&....%%%%%%%*   $@@@@@@@@...&&&&&&&&....@@@@@@@@@@@@@@@@@@@@@@@@@@@+   ",
"   @%%%%%%%%%%%%%%%%%%%%%%%%%%%   @.......................%%%%%%%*   =%%%%%%%%...&&&&&&&&....%%%%%%%%%%%%%%%%%%%%%%%%%%%@   ",
"   @%%%%%%%%%%%%%%%%%%%%%%%%%%%   @.......................%%%%%%%*   =%%%%%%%%...&&&&&&&&....%%%%%%%%%%%%%%%%%%%%%%%%%%%@   ",
"   @%%%%%%%%%%%%%%%%%%%%%%%%%%%   @.......................%%%%%%%*   =%%%%%%%%...&&&&&&&&....%%%%%%%%%%%%%%%%%%%%%%%%%%%@   ",
"   @%%%%%%%%%%%%%%%%%%%%%%%%%%%   @.......................%%%%%%%*   =%%%%%%%%...&&&&&&&&....%%%%%%%%%%%%%%%%%%%%%%%%%%%@   ",
"   @%%%%%%%%%%%%%%%%%%%%%%%%%%%   @%%%%%%%%%%%%%%%%%%%%%%%%%%%%%%*   =%%%%%%%%...&&&&&&&&....%%%%%%%%%%%%%%%%%%%%%%%%%%%@   ",
"   @%%%%%%%%%%%%%%%%%%%%%%%%%%%   @%%%%%%%%%%%%%%%%%%%%%%%%%%%%%%*   =%%%%%%%%...&&&&&&&&....%%%%%%%%%%%%%%%%%%%%%%%%%%%@   ",
"   @%%%%%%%%%%%%%%%%%%%%%%%%%%%   @%%%%%%%%%%%%%%%%%%%%%%%%%%%%%%*   =%%%%%%%%...&&&&&&&&....%%%%%%%%%%%%%%%%%%%%%%%%%%%@   ",
"   @%%%%%%%%%%%%%%%%%%%%%%%%%%%   @%%%%%%%%%%%%%%%%%%%%%%%%%%%%%%*   =%%%%%%%%...&&&&&&&&....%%%%%%%%%%%%%%%%%%%%%%%%%%%@   ",
"   @%%%%%%%%%%%%%%%%%%%%%%%%%%%   @%%%%%%%%%%%%%%%%%%%%%%%%%%%%%%*   =%%%%%%%%...&&&&&&&&....%%%%%%%%%%%%%%%%%%%%%%%%%%%@   ",
"   @%%%%%%%%%%%%%%%%%%%%%%%%%%%   @%%%%%%%%%%%%%%%%%%%%%%%%%%%%%%*   =%%%%%%%%...&&&&&&&&....%%%%%%%%%%%%%%%%%%%%%%%%%%%@   ",
"   @%%%%%%%%%%%%%%%%%%%%%%%%%%%   @%%%%%%%%%%%%%%%%%%%%%%%%%%%%%%*   =%%%%%%%%...&&&&&&&&....%%%%%%%%%%%%%%%%%%%%%%%%%%%@   ",
"   @%%%%%%%%%%%%%%%%%%%%%%%%%%%   @%%%%%%%%%%%%%%%%%%%%%%%%%%%%%%*   =%%%%%%%%...&&&&&&&&....%%%%%%%%%%%%%%%%%%%%%%%%%%%@   ",
"   @%%%%%%%%%%%%%%%%%%%%%%%%%%%   @%%%%%%%%%%%%%%%%%%%%%%%%%%%%%%*   =%%%%%%%%...&&&&&&&&....%%%%%%%%%%%%%%%%%%%%%%%%%%%@   ",
"   @%%%%%%%%%%%%%%%%%%%%%%%%%%%   @%%%%%%%%%%%%%%%%%%%%%%%%%%%%%%*   =%%%%%%%%...&&&&&&&&....%%%%%%%%%%%%%%%%%%%%%%%%%%%@   ",
"   @%%%%%%%%%%%%%%%%%%%%%%%%%%%   @%%%%%%%%%%%%%%%%%%%%%%%%%%%%%%*   =%%%%%%%%...&&&&&&&&....%%%%%%%%%%%%%%%%%%%%%%%%%%%@   ",
"   @%%%%%%%%%%%%%%%%%%%%%%%%%%%   @%%%%%%%%%%%%%%%%%%%%%%%%%%%%%%*   =%%%%....&&&&&&&&&&&&&&&....%%%%%%%%%%%%%%%%%%%%%%%@   ",
"   @%%%%%%%%%%%%%%%%%%%%%%%%%%%   @%%%%%%%%%%%%%%%%%%%%%%%%%%%%%%*   =%%%%....&&&&&&&&&&&&&&&....%%%%%%%%%%%%%%%%%%%%%%%@   ",
"   @%%%%%%%%%%%%%%%%%%%%%%%%%%%   @%%%%%%%%%%%%%%%%%%%%%%%%%%%%%%*   =%%%%....&&&&&&&&&&&&&&&....%%%%%%%%%%%%%%%%%%%%%%%@   ",
"   @%%%%%%%%%%%%%%%%%%%%%%%%%%%   @%%%%%%%%%%%%%%%%%%%%%%%%%%%%%%*   =%%%%....&&&&&&&&&&&&&&&....%%%%%%%%%%%%%%%%%%%%%%%@   ",
"   @%%%%%%%%%%%%%%%%%%%%%%%%%%%   @%%%%%%%%%%%%%%%%%%%%%%%%%%%%%%*   =%%%%.......................%%%%%%%%%%%%%%%%%%%%%%%@   ",
"   @%%%%%%%%%%%%%%%%%%%%%%%%%%%   @%%%%%%%%%%%%%%%%%%%%%%%%%%%%%%*   =%%%%.......................%%%%%%%%%%%%%%%%%%%%%%%@   ",
"   @%%%%%%%%%%%%%%%%%%%%%%%%%%%   @%%%%%%%%%%%%%%%%%%%%%%%%%%%%%%*   =%%%%.......................%%%%%%%%%%%%%%%%%%%%%%%@   ",
"   @%%%%%%%%%%%%%%%%%%%%%%%%%%%   @%%%%%%%%%%%%%%%%%%%%%%%%%%%%%%*   =%%%%.......................%%%%%%%%%%%%%%%%%%%%%%%@   ",
"   +@@@@@@@@@@@@@@@@@@@@@@@@@@@   +@@@@@@@@@@@@@@@@@@@@@@@@@@@@@@#   $@@@@@@@@@@@@@@@@@@@@@@@@@@@@@@@@@@@@@@@@@@@@@@@@@@+   ",
"                                                                                                                            ",
"                                                                                                                            ",
"                                                                                                                            "};
