/* XPM */
static char * wallmid2_xpm[] = {
"124 124 14 1",
" 	c #5B3E00",
".	c #000000",
"+	c #5C3F01",
"@	c #644709",
"#	c #634608",
"$	c #5D4002",
"%	c #A28545",
"&	c #006F13",
"*	c #997C3C",
"=	c #6D5011",
"-	c #614405",
";	c #876A2B",
">	c #5F4204",
",	c #7F6223",
"                .......                                                                                                     ",
"                .......                                                                                                     ",
"                .......                                                                                                     ",
"   +@@@@@@@@@@@@.......@@@@@@@@@@@@@@@@@@@@@@@@@@@@@@@@@@@@@@@@@@#   $@@@@@@@@@@@@@@@@@@@@@@@@@@#   $@@@@@@@@@@@@@@@@@@@+   ",
"   @%%%%%%%%....&&&&&&&....%%%%%%%%%%%%%%%%%%%%%%%%%%%%%%%%%%%%%%*   =%%%%%%%%%%%%%%%%%%%%%%%%%%*........%%%%%%%%%%%%%%%@   ",
"   @%%%%%%%%....&&&&&&&....%%%%%%%%%%%%%%%%%%%%%%%%%%%%%%%%%%%%%%*   =%%%%%%%%%%%%%%%%%%%%%%%%%%*........%%%%%%%%%%%%%%%@   ",
"   @%%%%%%%%....&&&&&&&....%%%%%%%%%%%%%%%%%%%%%%%%%%%%%%%%%%%%%%*   =%%%%%%%%%%%%%%%%%%%%%%%%%%*........%%%%%%%%%%%%%%%@   ",
"   @%%%%%%%%....&&&&&&&....%%%%%%%%%%%%%%%%%%%%%%%%%%%%%%%%%%%%%%*   =%%%%%%%%%%%%%%%%%%%%%%%%%%*........%%%%%%%%%%%%%%%@   ",
"   @%%%%%%%%...............%%%%%%%%%%%%%%%%%%%%%%%%%%%%%%%%%%%%%%*   =%%%%%%%%%%%%%%%%%%%%%%%....&&&&&&&&....%%%%%%%%%%%@   ",
"   @%%%%%%%%...............%%%%%%%%%%%%%%%%%%%%%%%%%%%%%%%%%%%%%%*   =%%%%%%%%%%%%%%%%%%%%%%%....&&&&&&&&....%%%%%%%%%%%@   ",
"   @%%%%%%%%...............%%%%%%%%%%%%%%%%%%%%%%%%%%%%%%%%%%%%%%*   =%%%%%%%%%%%%%%%%%%%%%%%....&&&&&&&&....%%%%%%%%%%%@   ",
"   @%%%%%%%%...............%%%%%%%%%%%%%%%%%%%%%%%%%%%%%%%%%%%%%%*   =%%%%%%%%%%%%%%%%%%%%%%%....&&&&&&&&....%%%%%%%%%%%@   ",
"   @%%%%%%%%....&&&&&&&....%%%%%%%%%%%%%%%%%%%%%%%%%%%%%%%%%%%%%%*   =%%%%%%%%%%%%%%%%%%%%%%%................%%%%%%%%%%%@   ",
"   @%%%%%%%%....&&&&&&&....%%%%%%%%%%%%%%%%%%%%%%%%%%%%%%%%%%%%%%*   =%%%%%%%%%%%%%%%%%%%%%%%................%%%%%%%%%%%@   ",
"   @%%%%%%%%....&&&&&&&....%%%%%%%%%%%%%%%%%%%%%%%%%%%%%%%%%%%%%%*   =%%%%%%%%%%%%%%%%%%%%%%%................%%%%%%%%%%%@   ",
"   @%%%%%%%%....&&&&&&&....%%%%%%%%%%%%%%%%%%%%%%%%%%%%%%%%%%%%%%*   =%%%%%%%%%%%%%%%%%%%%%%%................%%%%%%%%%%%@   ",
"   @%%%%%%%%....&&&&&&&....%%%%%%%%%%%%%%%%%%%%%%%%%%%%%%%%%%%%%%*   =%%%%%%%%%%%%%%%%%%%%%%%....&&&&&&&&....%%%%%%%%%%%@   ",
"   @%%%%%%%%....&&&&&&&....%%%%%%%%%%%%%%%%%%%%%%%%%%%%%%%%%%%%%%*   =%%%%%%%%%%%%%%%%%%%%%%%....&&&&&&&&....%%%%%%%%%%%@   ",
"   @%%%%%%%%....&&&&&&&....%%%%%%%%%%%%%%%%%%%%%%%%%%%%%%%%%%%%%%*   =%%%%%%%%%%%%%%%%%%%%%%%....&&&&&&&&....%%%%%%%%%%%@   ",
"   @%%%%%%%%....&&&&&&&....%%%%%%%%%%%%%%%%%%%%%%%%%%%%%%%%%%%%%%*   =%%%%%%%%%%%%%%%%%%%%%%%....&&&&&&&&....%%%%%%%%%%%@   ",
"   @%%%%%%%%....&&&&&&&....%%%%%%%%%%%%%%%%%%%%%%%%%%%%%%%%%%%%%%*   =%%%%%%%%%%%%%%%%%%%%%%%....&&&&&&&&....%%%%%%%%%%%@   ",
"   @%%%%%%%%....&&&&&&&....%%%%%%%%%%%%%%%%%%%%%%%%%%%%%%%%%%%%%%*   =%%%%%%%%%%%%%%%%%%%%%%%....&&&&&&&&....%%%%%%%%%%%@   ",
"   @%%%%%%%%....&&&&&&&....%%%%%%%%%%%%%%%%%%%%%%%%%%%%%%%%%%%%%%*   =%%%%%%%%%%%%%%%%%%%%%%%....&&&&&&&&....%%%%%%%%%%%@   ",
"   @%%%%%%%%....&&&&&&&....%%%%............%%%%%%%%%%%%%%%%%%%%%%*   =%%%%%%%%%%%%%%%%%%%%%%%....&&&&&&&&....%%%%%%%%%%%@   ",
"   @%%%%%%%%....&&&&&&&....%%%%............%%%%%%%%%%%%%%%%%%%%%%*   =%%%%%%%%%%%%%%%%%%%%%%%....&&&&&&&&....%%%%%%%%%%%@   ",
"   @%%%%%%%%....&&&&&&&....%%%%............%%%%%%%%%%%%%%%%%%%%%%*   =%%%%%%%%%%%%%%%%%%%%%%%....&&&&&&&&....%%%%%%%%%%%@   ",
"   @%%%%%%%%....&&&&&&&....%%%%............%%%%%%%%%%%%%%%%%%%%%%*   =%%%%%%%%%%%%%%%%%%%%%%%....&&&&&&&&....%%%%%%%%%%%@   ",
"   @%%%%%%%%....&&&&&&&........&&&&....%%%%%%%%%%%%%%%%%%%%%%%%%%*   =%%%%%%%%%%%%%%%%%%%%%%%....&&&&&&&&....%%%%%%%%%%%@   ",
"   @%%%%%%%%....&&&&&&&........&&&&....%%%%%%%%%%%%%%%%%%%%%%%%%%*   =%%%%%%%%%%%%%%%%%%%%%%%....&&&&&&&&....%%%%%%%%%%%@   ",
"   @%%%%%%%%....&&&&&&&........&&&&....%%%%%%%%%%%%%%%%%%%%%%%%%%*   =%%%%%%%%%%%%%%%%%%%%%%%....&&&&&&&&....%%%%%%%%%%%@   ",
"   @%%%%%%%%....&&&&&&&........&&&&....%%%%%%%%%%%%%%%%%%%%%%%%%%*   =%%%%%%%%%%%%%%%%%%%%%%%....&&&&&&&&....%%%%%%%%%%%@   ",
"   @%%%%%%%%....&&&&&&&....&&&&&&&&....%%%%%%%%%%%%%%%........%%%*   =%%%%%%%%%%%%%%%%%%%%%%%....&&&&&&&&....%%%%%%%%%%%@   ",
"   @%%%%%%%%....&&&&&&&....&&&&&&&&....%%%%%%%%%%%%%%%........%%%*   =%%%%%%%%%%%%%%%%%%%%%%%....&&&&&&&&....%%%%%%%%%%%@   ",
"   @%%%%%%%%....&&&&&&&....&&&&&&&&....%%%%%%%%%%%%%%%........%%%*   =%%%%%%%%%%%%%%%%%%%%%%%....&&&&&&&&....%%%%%%%%%%%@   ",
"   @%%%%%%%%....&&&&&&&....&&&&&&&&....%%%%%%%%%%%%%%%........%%%*   =%%%%%%%%%%%%%%%%%%%%%%%....&&&&&&&&....%%%%%%%%%%%@   ",
"   @%%%%%%%%....&&&&&&&............%%%%%%%%%%%%%%%....&&&&&&&&....   =%%%%%%%%%%%%%%%%%%%%%%%....&&&&&&&&....%%%........@   ",
"   @%%%%%%%%....&&&&&&&............%%%%%%%%%%%%%%%....&&&&&&&&....   =%%%%%%%%%%%%%%%%%%%%%%%....&&&&&&&&....%%%........@   ",
"   @%%%%%%%%....&&&&&&&............%%%%%%%%%%%%%%%....&&&&&&&&....   =%%%%%%%%%%%%%%%%%%%%%%%....&&&&&&&&....%%%........@   ",
"   @%%%%%%%%....&&&&&&&............%%%%%%%%%%%%%%%....&&&&&&&&....   =%%%%%%%%%%%%%%%%%%%%%%%....&&&&&&&&....%%%........@   ",
"   @%%%%%%%%....&&&&&&&....%%%%%%%%%%%%%%%%%%%%%%%................   =%%%%%%%%%%%%%%%%%%%%%%%....&&&&&&&&.......&&&&....@   ",
"   @%%%%%%%%....&&&&&&&....%%%%%%%%%%%%%%%%%%%%%%%................   =%%%%%%%%%%%%%%%%%%%%%%%....&&&&&&&&.......&&&&....@   ",
"   @%%%%%%%%....&&&&&&&....%%%%%%%%%%%%%%%%%%%%%%%................   =%%%%%%%%%%%%%%%%%%%%%%%....&&&&&&&&.......&&&&....@   ",
"   -;;;;;;;;....&&&&&&&....;;;;;;;;;;;;;;;;;;;;;;;................   =%%%%%%%%%%%%%%%%%%%%%%%....&&&&&&&&.......&&&&....@   ",
"            ....&&&&&&&....                       ....&&&&&&&&....   =%%%%%%%%%%%%%%%%%%%%%%%....&&&&&&&&....&&&&&&&....@   ",
"            ....&&&&&&&....                       ....&&&&&&&&....   =%%%%%%%%%%%%%%%%%%%%%%%....&&&&&&&&....&&&&&&&....@   ",
"            ....&&&&&&&....                       ....&&&&&&&&....   =%%%%%%%%%%%%%%%%%%%%%%%....&&&&&&&&....&&&&&&&....@   ",
"   >,,,,,,,,....&&&&&&&....,,,,   >,,,,,,,,,,,,,,,....&&&&&&&&....   =%%%%%%%%%%%%%%%%%%%%%%%....&&&&&&&&....&&&&&&&....@   ",
"........%%%%....&&&&&&&....%%%%   @%%%%........%%%....&&&&&&&&....   =%%%%%%%%%%%%%%%%%%%%%%%....&&&&&&&&...........%%%%@   ",
"........%%%%....&&&&&&&....%%%%   @%%%%........%%%....&&&&&&&&....   =%%%%%%%%%%%%%%%%%%%%%%%....&&&&&&&&...........%%%%@   ",
"........%%%%....&&&&&&&....%%%%   @%%%%........%%%....&&&&&&&&....   =%%%%%%%%%%%%%%%%%%%%%%%....&&&&&&&&...........%%%%@   ",
"....&&&&........&&&&&&&....%%%%   @%%%%....&&&&.......&&&&&&&&....   =%%%%%%%%%%%%%%%%%%%%%%%....&&&&&&&&....%%%%%%%%%%%@   ",
"....&&&&........&&&&&&&....%%%%   @%%%%....&&&&.......&&&&&&&&....   =%%%%%%%%%%%%%%%%%%%%%%%....&&&&&&&&....%%%%%%%%%%%@   ",
"....&&&&........&&&&&&&....%%%%   @%%%%....&&&&.......&&&&&&&&....   =%%%%%%%%%%%%%%%%%%%%%%%....&&&&&&&&....%%%%%%%%%%%@   ",
"....&&&&........&&&&&&&....%%%%   @%%%%....&&&&.......&&&&&&&&....   =%%%%%%%%%%%%%%%%%%%%%%%....&&&&&&&&....%%%%%%%%%%%@   ",
"....&&&&........&&&&&&&....%%%%   @%%%%%%%%....%%%....&&&&&&&&....   =%%%%%%%%%%%%%%%%%%%%%%%....&&&&&&&&....%%%%%%%%%%%@   ",
"....&&&&........&&&&&&&....%%%%   @%%%%%%%%....%%%....&&&&&&&&....   =%%%%%%%%%%%%%%%%%%%%%%%....&&&&&&&&....%%%%%%%%%%%@   ",
"....&&&&........&&&&&&&....%%%%   @%%%%%%%%....%%%....&&&&&&&&....   =%%%%%%%%%%%%%%%%%%%%%%%....&&&&&&&&....%%%%%%%%%%%@   ",
"....&&&&........&&&&&&&....%%%%   @%%%%%%%%....%%%....&&&&&&&&....   =%%%%%%%%%%%%%%%%%%%%%%%....&&&&&&&&....%%%%%%%%%%%@   ",
"   @....%%%%....&&&&&&&....%%%%   @%%%%%%%%%%%%%%%....&&&&&&&&....   =%%%%%%%%%%%%%%%%%%%%%%%....&&&&&&&&....%%%%%%%%%%%@   ",
"   @....%%%%....&&&&&&&....%%%%   @%%%%%%%%%%%%%%%....&&&&&&&&....   =%%%%%%%%%%%%%%%%%%%%%%%....&&&&&&&&....%%%%%%%%%%%@   ",
"   @....%%%%....&&&&&&&....%%%%   @%%%%%%%%%%%%%%%....&&&&&&&&....   =%%%%%%%%%%%%%%%%%%%%%%%....&&&&&&&&....%%%%%%%%%%%@   ",
"   @....%%%%....&&&&&&&....%%%%   @%%%%%%%%%%%%%%%....&&&&&&&&....   =%%%%%%%%%%%%%%%%%%%%%%%....&&&&&&&&....%%%%%%%%%%%@   ",
"   @%%%%%%%%....&&&&&&&....%%%%   @%%%%%%%%%%%%%%%....&&&&&&&&....   =........%%%%%%%%%%%%%%%....&&&&&&&&....%%%%%%%%%%%@   ",
"   @%%%%%%%%....&&&&&&&....%%%%   @%%%%%%%%%%%%%%%....&&&&&&&&....   =........%%%%%%%%%%%%%%%....&&&&&&&&....%%%%%%%%%%%@   ",
"   @%%%%%%%%....&&&&&&&....%%%%   @%%%%%%%%%%%%%%%....&&&&&&&&....   =........%%%%%%%%%%%%%%%....&&&&&&&&....%%%%%%%%%%%@   ",
"   @%%%%%%%%....&&&&&&&....%%%%   @%%%%%%%%%%%%%%%....&&&&&&&&....   =........%%%%%%%%%%%%%%%....&&&&&&&&....%%%%%%%%%%%@   ",
"   @%%%%%%%%....&&&&&&&....%%%%   @%%%%%%%%%%%%%%%....&&&&&&&&........&&&&....%%%%%%%%%%%%%%%....&&&&&&&&....%%%%%%%%%%%@   ",
"   @%%%%%%%%....&&&&&&&....%%%%   @%%%%%%%%%%%%%%%....&&&&&&&&........&&&&....%%%%%%%%%%%%%%%....&&&&&&&&....%%%%%%%%%%%@   ",
"   @%%%%%%%%....&&&&&&&....%%%%   @%%%%%%%%%%%%%%%....&&&&&&&&........&&&&....%%%%%%%%%%%%%%%....&&&&&&&&....%%%%%%%%%%%@   ",
"   @%%%%%%%%....&&&&&&&....%%%%   @%%%%%%%%%%%%%%%....&&&&&&&&........&&&&....%%%%%%%%%%%%%%%....&&&&&&&&....%%%%%%%%%%%@   ",
"   @%%%%%%%%....&&&&&&&....%%%%   @%%%%%%%%%%%%%%%....&&&&&&&&....&&&&&&&&....%%%%%%%%%%%%%%%....&&&&&&&&....%%%%%%%%%%%@   ",
"   @%%%%%%%%....&&&&&&&....%%%%   @%%%%%%%%%%%%%%%....&&&&&&&&....&&&&&&&&....%%%%%%%%%%%%%%%....&&&&&&&&....%%%%%%%%%%%@   ",
"   @%%%%%%%%....&&&&&&&....%%%%   @%%%%%%%%%%%%%%%....&&&&&&&&....&&&&&&&&....%%%%%%%%%%%%%%%....&&&&&&&&....%%%%%%%%%%%@   ",
"   @%%%%%%%%....&&&&&&&....%%%%   @%%%%%%%%%%%%%%%....&&&&&&&&....&&&&&&&&....%%%%%%%%%%%%%%%....&&&&&&&&....%%%%%%%%%%%@   ",
"   @%%%%%%%%....&&&&&&&....%%%%   @%%%%%%%%%%%%%%%....&&&&&&&&............%%%%%%%%%%%%%%%%%%%....&&&&&&&&....%%%%%%%%%%%@   ",
"   @%%%%%%%%....&&&&&&&....%%%%   @%%%%%%%%%%%%%%%....&&&&&&&&............%%%%%%%%%%%%%%%%%%%....&&&&&&&&....%%%%%%%%%%%@   ",
"   @%%%%%%%%....&&&&&&&....%%%%   @%%%%%%%%%%%%%%%....&&&&&&&&............%%%%%%%%%%%%%%%%%%%....&&&&&&&&....%%%%%%%%%%%@   ",
"   @%%%%%%%%....&&&&&&&....%%%%   @%%%%%%%%%%%%%%%....&&&&&&&&............%%%%%%%%%%%%%%%%%%%....&&&&&&&&....%%%%%%%%%%%@   ",
"   @%%%%%%%%....&&&&&&&....%%%%   @%%%%%%%%%%%%%%%....&&&&&&&&....   =%%%%%%%%%%%%%%%%%%%%%%%....&&&&&&&&....%%%%%%%%%%%@   ",
"   @%%%%%%%%....&&&&&&&....%%%%   @%%%%%%%%%%%%%%%....&&&&&&&&....   =%%%%%%%%%%%%%%%%%%%%%%%....&&&&&&&&....%%%%%%%%%%%@   ",
"   @%%%%%%%%....&&&&&&&....%%%%   @%%%%%%%%%%%%%%%....&&&&&&&&....   =%%%%%%%%%%%%%%%%%%%%%%%....&&&&&&&&....%%%%%%%%%%%@   ",
"   @%%%%%%%%....&&&&&&&....%%%%   @%%%%%%%%%%%%%%%....&&&&&&&&....   =%%%%%%%%%%%%%%%%%%%%%%%....&&&&&&&&....%%%%%%%%%%%@   ",
"   @%%%%%%%%....&&&&&&&....%%%%   @%%%%%%%%%%%%%%%....&&&&&&&&....   =%%%%%%%%%%%%%%%%%%%%%%%....&&&&&&&&....%%%%%%%%%%%@   ",
"   @%%%%%%%%....&&&&&&&....%%%%   @%%%%%%%%%%%%%%%....&&&&&&&&....   =%%%%%%%%%%%%%%%%%%%%%%%....&&&&&&&&....%%%%%%%%%%%@   ",
"   @%%%%%%%%....&&&&&&&....%%%%   @%%%%%%%%%%%%%%%....&&&&&&&&....   =%%%%%%%%%%%%%%%%%%%%%%%....&&&&&&&&....%%%%%%%%%%%@   ",
"   @%%%%%%%%....&&&&&&&....%%%%   @%%%%%%%%%%%%%%%....&&&&&&&&....   =%%%%%%%%%%%........%%%%....&&&&&&&&....%%%%%%%%%%%@   ",
"   @%%%%%%%%....&&&&&&&....%%%%   @%%%%%%%%%%%%%%%....&&&&&&&&....   =%%%%%%%%%%%........%%%%....&&&&&&&&....%%%%%%%%%%%@   ",
"   @%%%%%%%%....&&&&&&&....%%%%   @%%%%%%%%%%%%%%%....&&&&&&&&....   =%%%%%%%%%%%........%%%%....&&&&&&&&....%%%%%%%%%%%@   ",
"   @%%%%%%%%....&&&&&&&....%%%%   @%%%%%%%%%%%%%%%....&&&&&&&&....   =%%%%%%%%%%%........%%%%....&&&&&&&&....%%%%%%%%%%%@   ",
"   @%%%%%%%%....&&&&&&&....%%%%   @%%%%%%%%%%%%%%%....&&&&&&&&....   =%%%%%%%%%%%....&&&&........&&&&&&&&....%%%%%%%%%%%@   ",
"   @%%%%%%%%....&&&&&&&....%%%%   @%%%%%%%%%%%%%%%....&&&&&&&&....   =%%%%%%%%%%%....&&&&........&&&&&&&&....%%%%%%%%%%%@   ",
"   @%%%%%%%%....&&&&&&&....%%%%   @%%%%%%%%%%%%%%%....&&&&&&&&....   =%%%%%%%%%%%....&&&&........&&&&&&&&....%%%%%%%%%%%@   ",
"   @%%%%%%%%....&&&&&&&....%%%%   @%%%%%%%%%%%%%%%....&&&&&&&&....   =%%%%%%%%%%%....&&&&........&&&&&&&&....%%%%%%%%%%%@   ",
"   @%%%%....&&&&&&&&&&&&&&&....   @%%%%%%%%%%%%%%%....&&&&&&&&....               ....&&&&........&&&&&&&&....               ",
"   @%%%%....&&&&&&&&&&&&&&&....   @%%%%%%%%%%%%%%%....&&&&&&&&....               ....&&&&........&&&&&&&&....               ",
"   @%%%%....&&&&&&&&&&&&&&&....   @%%%%%%%%%%%%%%%....&&&&&&&&....               ....&&&&........&&&&&&&&....               ",
"   @%%%%....&&&&&&&&&&&&&&&....   @%%%%%%%%%%%%%%%....&&&&&&&&....   $@@@@@@@@@@@....&&&&........&&&&&&&&....@@@@@@@@@@@+   ",
"   @%%%%.......................   @%%%%%%%%%%%%%%%....&&&&&&&&....   =%%%%%%%%%%%%%%%....%%%%....&&&&&&&&....%%%%%%%%%%%@   ",
"   @%%%%.......................   @%%%%%%%%%%%%%%%....&&&&&&&&....   =%%%%%%%%%%%%%%%....%%%%....&&&&&&&&....%%%%%%%%%%%@   ",
"   @%%%%.......................   @%%%%%%%%%%%%%%%....&&&&&&&&....   =%%%%%%%%%%%%%%%....%%%%....&&&&&&&&....%%%%%%%%%%%@   ",
"   @%%%%.......................   @%%%%%%%%%%%%%%%....&&&&&&&&....   =%%%%%%%%%%%%%%%....%%%%....&&&&&&&&....%%%%%%%%%%%@   ",
"   @%%%%%%%%%%%%%%%%%%%%%%%%%%%   @%%%%%%%%%%%%%%%....&&&&&&&&....   =%%%%%%%%%%%%%%%%%%%%%%%....&&&&&&&&....%%%%%%%%%%%@   ",
"   @%%%%%%%%%%%%%%%%%%%%%%%%%%%   @%%%%%%%%%%%%%%%....&&&&&&&&....   =%%%%%%%%%%%%%%%%%%%%%%%....&&&&&&&&....%%%%%%%%%%%@   ",
"   @%%%%%%%%%%%%%%%%%%%%%%%%%%%   @%%%%%%%%%%%%%%%....&&&&&&&&....   =%%%%%%%%%%%%%%%%%%%%%%%....&&&&&&&&....%%%%%%%%%%%@   ",
"   @%%%%%%%%%%%%%%%%%%%%%%%%%%%   @%%%%%%%%%%%%%%%....&&&&&&&&....   =%%%%%%%%%%%%%%%%%%%%%%%....&&&&&&&&....%%%%%%%%%%%@   ",
"   @%%%%%%%%%%%%%%%%%%%%%%%%%%%   @%%%%%%%%%%%%%%%....&&&&&&&&....   =%%%%%%%%%%%%%%%%%%%%%%%....&&&&&&&&....%%%%%%%%%%%@   ",
"   @%%%%%%%%%%%%%%%%%%%%%%%%%%%   @%%%%%%%%%%%%%%%....&&&&&&&&....   =%%%%%%%%%%%%%%%%%%%%%%%....&&&&&&&&....%%%%%%%%%%%@   ",
"   @%%%%%%%%%%%%%%%%%%%%%%%%%%%   @%%%%%%%%%%%%%%%....&&&&&&&&....   =%%%%%%%%%%%%%%%%%%%%%%%....&&&&&&&&....%%%%%%%%%%%@   ",
"   @%%%%%%%%%%%%%%%%%%%%%%%%%%%   @%%%%%%%%%%%%%%%....&&&&&&&&....   =%%%%%%%%%%%%%%%%%%%%%%%....&&&&&&&&....%%%%%%%%%%%@   ",
"   @%%%%%%%%%%%%%%%%%%%%%%%%%%%   @%%%%%%%%%%%%%%%....&&&&&&&&....   =%%%%%%%%%%%%%%%%%%%....&&&&&&&&&&&&&&&&...%%%%%%%%@   ",
"   @%%%%%%%%%%%%%%%%%%%%%%%%%%%   @%%%%%%%%%%%%%%%....&&&&&&&&....   =%%%%%%%%%%%%%%%%%%%....&&&&&&&&&&&&&&&&...%%%%%%%%@   ",
"   @%%%%%%%%%%%%%%%%%%%%%%%%%%%   @%%%%%%%%%%%%%%%....&&&&&&&&....   =%%%%%%%%%%%%%%%%%%%....&&&&&&&&&&&&&&&&...%%%%%%%%@   ",
"   @%%%%%%%%%%%%%%%%%%%%%%%%%%%   @%%%%%%%%%%%%...&&&&&&&&&&&&&&&&....%%%%%%%%%%%%%%%%%%%.......................%%%%%%%%@   ",
"   @%%%%%%%%%%%%%%%%%%%%%%%%%%%   @%%%%%%%%%%%%...&&&&&&&&&&&&&&&&....%%%%%%%%%%%%%%%%%%%.......................%%%%%%%%@   ",
"   @%%%%%%%%%%%%%%%%%%%%%%%%%%%   @%%%%%%%%%%%%...&&&&&&&&&&&&&&&&....%%%%%%%%%%%%%%%%%%%.......................%%%%%%%%@   ",
"   @%%%%%%%%%%%%%%%%%%%%%%%%%%%   @%%%%%%%%%%%%...&&&&&&&&&&&&&&&&....%%%%%%%%%%%%%%%%%%%.......................%%%%%%%%@   ",
"   @%%%%%%%%%%%%%%%%%%%%%%%%%%%   @%%%%%%%%%%%%.......................%%%%%%%%%%%%%%%%%%%%%%%%%%%%%%%%%%%%%%%%%%%%%%%%%%@   ",
"   @%%%%%%%%%%%%%%%%%%%%%%%%%%%   @%%%%%%%%%%%%.......................%%%%%%%%%%%%%%%%%%%%%%%%%%%%%%%%%%%%%%%%%%%%%%%%%%@   ",
"   @%%%%%%%%%%%%%%%%%%%%%%%%%%%   @%%%%%%%%%%%%.......................%%%%%%%%%%%%%%%%%%%%%%%%%%%%%%%%%%%%%%%%%%%%%%%%%%@   ",
"   @%%%%%%%%%%%%%%%%%%%%%%%%%%%   @%%%%%%%%%%%%.......................%%%%%%%%%%%%%%%%%%%%%%%%%%%%%%%%%%%%%%%%%%%%%%%%%%@   ",
"   +@@@@@@@@@@@@@@@@@@@@@@@@@@@   +@@@@@@@@@@@@@@@@@@@@@@@@@@@@@@#   $@@@@@@@@@@@@@@@@@@@@@@@@@@@@@@@@@@@@@@@@@@@@@@@@@@+   ",
"                                                                                                                            ",
"                                                                                                                            ",
"                                                                                                                            "};
