/* XPM */
static char * wl2_xpm[] = {
"124 124 86 1",
" 	c #5B3E00",
".	c #5C3F01",
"+	c #644709",
"@	c #634608",
"#	c #5D4002",
"$	c #A28545",
"%	c #997C3C",
"&	c #6D5011",
"*	c #000000",
"=	c #0C0705",
"-	c #170E0A",
";	c #2E1C13",
">	c #5C3826",
",	c #614405",
"'	c #876A2B",
")	c #462B1D",
"!	c #3A2318",
"~	c #513121",
"{	c #23160F",
"]	c #452A1D",
"^	c #5F4204",
"/	c #7F6223",
"(	c #3F271A",
"_	c #342015",
":	c #311E14",
"<	c #101010",
"[	c #141313",
"}	c #050505",
"|	c #191818",
"1	c #282626",
"2	c #0B0B0B",
"3	c #0A0909",
"4	c #181717",
"5	c #1C110C",
"6	c #4B2E1F",
"7	c #2A1911",
"8	c #140C08",
"9	c #131212",
"0	c #0F0E0E",
"a	c #0B0704",
"b	c #171515",
"c	c #1E1E1E",
"d	c #1E1D1D",
"e	c #040302",
"f	c #232121",
"g	c #FFFFFF",
"h	c #FDFDFD",
"i	c #D3D3D3",
"j	c #B9B9B9",
"k	c #BFBFBF",
"l	c #EDEDED",
"m	c #535353",
"n	c #808080",
"o	c #727272",
"p	c #959595",
"q	c #9F9F9F",
"r	c #606060",
"s	c #DCDCDC",
"t	c #8E8E8E",
"u	c #404040",
"v	c #303030",
"w	c #B0B0B0",
"x	c #2B2B2B",
"y	c #202020",
"z	c #3F3F3F",
"A	c #A7A7A7",
"B	c #8F8F8F",
"C	c #3E2C23",
"D	c #AE9C93",
"E	c #6C615C",
"F	c #26211E",
"G	c #998377",
"H	c #60524B",
"I	c #393939",
"J	c #20130D",
"K	c #252323",
"L	c #040404",
"M	c #352B26",
"N	c #2A2421",
"O	c #0D0D0D",
"P	c #23150E",
"Q	c #382217",
"R	c #261811",
"S	c #3C2D26",
"T	c #443026",
"U	c #060402",
"                                                                                                                            ",
"                                                                                                                            ",
"                                                                                                                            ",
"   .+++++++++++++++++++++++++++++++++++++++++++++++++++++++++++++@   #++++++++++++++++++++++++++@   #+++++++++++++++++++.   ",
"   +$$$$$$$$$$$$$$$$$$$$$$$$$$$$$$$$$$$$$$$$$$$$$$$$$$$$$$$$$$$$$%   &$$$$$$$$$$$$$$$$$$$$$$$$$$%   &$$$$$$$$$$$$$$$$$$$+   ",
"   +$$$$$$$$$$$$$$$$$$$$$$$$$$$$$$$$$$$$$$$$$$$$$$$$$$$$$$$$$$$$$%   &$$$$$$$$$$$$$$$$$$$$$$$$$$%   &$$$$$$$$$$$$$$$$$$$+   ",
"   +$$$$$$$$$$$$$$$$$$$$$$$$$$$$$$$$$$$$$$$$$$$$$$$$$$$$$$$$$$$$$%   &$$$$$$$$$$$$$$$$$$$$$$$$$$%   &$$$$$$$$$$$$$$$$$$$+   ",
"   +$$$$$$$$$$$$$$$$$$$$$$$$$$$$$$$$$$$$$$$$$$$$$$$$$$$$$$$$$$$$$%   &$$$$$$$$$$$$$$$$$$$$$$$$$$%   &$$$$$$$$$$$$$$$$$$$+   ",
"   +$$$$$$$$$$$$$$$$$$$$$$$$$$$$$$$$$$$$$$$$$$$$$$$$$$$$$$$$$$$$$%   &$$$$$$$$$$$$$$$$$$$$$$$$$$%   &$$$$$$$$$$$$$$$$$$$+   ",
"   +$$$$$$$$$$$$$$$$$$$$$$$$$$$$$$$$$$$$$$$$$$$$$$$$$$$$$$$$$$$$$%   &$$$$$$$$$$$$$$$$$$$$$$$$$$%   &$$$$$$$$$$$$$$$$$$$+   ",
"   +$$$$$$$$$$$$$$$$$$$$$$$$$$$$$$$$$$$$$$$$$$$$$$$$$$$$$$$$$$$$$%   &$$$$$$$$$$$$$$$$$$$$$$$$$$%   &$$$$$$$$$$$$$$$$$$$+   ",
"   +$$$$$$$$$$$$$$$$$$$$$$$$$$$$$$$$$$$$$$$$$$$$$$$$$$$$$$$$$$$$$%   &$$$$$$$$$$$$$$$$$$$$$$$$$$%   &$$$$$$$$$$$$$$$$$$$+   ",
"   +$$$$$$$$$$$$$$$$$$$$$$$$$$$$$$$$$$$$$$$$$$$$$$$$$$$$$$$$$$$$$%****$$$$$$$$$$$$$$$$$$$$$$$$$$%   &$$$$$$$$$$$$$$$$$$$+   ",
"   +$$$$$$$$$$$$$$$$$$$$$$$$$$$$$$$$$$$$$$$$$$$$$$$$$$$$$$$$$$$$$%****$$$$$$$$$$$$$$$$$$$$$$$$$$%   &$$$$$$$$$$$$$$$$$$$+   ",
"   +$$$$$$$$$$$$$$$$$$$$$$$$$$$$$$$$$$$$$$$$$$$$$$$$$$$$$$$$$$$$$%****$$$$$$$$$$$$$$$$$$$$$$$$$$%   &$$$$$$$$$$$$$$$$$$$+   ",
"   +$$$$$$$$$$$$$$$$$$$$$$$$$$$$$$$$$$$$$$$$$$$$$$$$$$$$$$$$$$$$$%   &$$$$$$$$$$$$$$$$$$$$$$$$$$%   &$$$$$$$$$$$$$$$$$$$+   ",
"   +$$$$$$$$$$$$$$$$$$$$$$$$$$$$$$$$$$$$$$$$$$$***$$$$$$$$********   &$$$$$$$$$$$****$$$$$$$$$$$%   &$$$$$$$$$$$$$$$$$$$+   ",
"   +$$$$$$$$$$$$$$$$$$$$$$$$$$$$$$$$$$$$$$$$$$$***$$$$$$$$********   &$$$$$$$$$$$****$$$$$$$$$$$%   &$$$$$$$$$$$$$$$$$$$+   ",
"   +$$$$$$$$$$$$$$$$$$$$$$$$$$$$$$$$$$$$$$$$$$$***$$$$$$$$********   &$$$$$$$$$$$****$$$$$$$$$$$%   &$$$$$$$$$$$$$$$$$$$+   ",
"   +$$$$$$$$$$$$$$$$$$$$$$$$$$$$$$$$$$$$$$$**************************************$$$$$$$$$$$$$$$%   &$$$$$$$$$$$$$$$$$$$+   ",
"   +$$$$$$$$$$$$$$$$$$$$$$$$$$$$$$$$$$$$$$$**************************************$$$$$$$$$$$$$$$%   &$$$$$$$$$$$$$$$$$$$+   ",
"   +$$$$$$$$$$$$$$$$$$$$$$$$$$$$$$$$$$$$$$$**************************************$$$$$$$$$$$$$$$%   &$$$$$$$$$$$$$$$$$$$+   ",
"   +$$$$$$$$$$$$$$$$$$$$$$$$$$$$$$$$$$$$$$$**************************************$$$$$$$$$$$$$$$%   &$$$$$$$$$$$$$$$$$$$+   ",
"   +$$$$$$$$$$$$$$$$$$$$$$$$$$$$$$$$$$$$$$$***********************************$$$$$$$$$$$$$$$$$$%   &$$$$$$$$$$$$$$$$$$$+   ",
"   +$$$$$$$$$$$$$$$$$$$$$$$$$$$$$$$$$$$$$$$**********************************$$$$$$$$$$$$$$$$$$$%   &$$$$$$$$$$$$$$$$$$$+   ",
"   +$$$$$$$$$$$$$$$$$$$$$$$$$$$$$$$$$$$$$$$**********************************$$$$$$$$$$$$$$$$$$$%   &$$$$$$$$$$$$$$$$$$$+   ",
"   +$$$$$$$$$$$$$$$$$$$$$$$$$$$$$$$$$$$$$$$**********************************$$$$$$$$$$$$$$$$$$$%   &$$$$$$$$$$$$$$$$$$$+   ",
"   +$$$$$$$$$$$$$$$$$$$$$$$$$$$$$$$$$$$$$$$*******************************$$$$$$$$$$$$$$$$$$$$$$%   &$$$$$$$$$$$$$$$$$$$+   ",
"   +$$$$$$$$$$$$$$$$$$$$$$$$$$$$$$$$$$$$$$$*******************************$$$$$$$$$$$$$$$$$$$$$$%   &$$$$$$$$$$$$$$$$$$$+   ",
"   +$$$$$$$$$$$$$$$$$$$$$$$$$$$$$$$$$$$$$$$*******************************$$$$$$$$$$$$$$$$$$$$$$%   &$$$$$$$$$$$$$$$$$$$+   ",
"   +$$$$$$$$$$$$$$$$$$$$$$$$$$$$$$$$$$$$$$$*******************************$$$$$$$$$$$$$$$$$$$$$$%   &$$$$$$$$$$$$$$$$$$$+   ",
"   +$$$$$$$$$$$$$$$$$$$$$$$$$$$$$$$$$$$*******************************$$$$$$$$$$$$$$$$$$$$$$$$$$%   &$$$$$$$$$$$$$$$$$$$+   ",
"   +$$$$$$$$$$$$$$$$$$$$$$$$$$$$$$$$$$$*******************************$$$$$$$$$$$$$$$$$$$$$$$$$$%   &$$$$$$$$$$$$$$$$$$$+   ",
"   +$$$$$$$$$$$$$$$$$$$$$$$$$$$$$$$$$$$*******************************$$$$$$$$$$$$$$$$$$$$$$$$$$%   &$$$$$$$$$$$$$$$$$$$+   ",
"   +$$$$$$$$$$$$$$$$$$$$$$$$$$$$$$$$$$$*******************************$$$$$$$$$$$$$$$$$$$$$$$$$$%   &$$$$$$$$$$$$$$$$$$$+   ",
"   +$$$$$$$$$$$$$$$$$$$$$$$$$$$$$$$$$$$*******************************$$$$$$$$$$$$$$$$$$$$$$$$$$%   &$$$$$$$$$$$$$$$$$$$+   ",
"   +$$$$$$$$$$$$$$$$$$$$$$$$$$$$$$$$$$$*******************************$$$$$$$$$$$$$$$$$$$$$$$$$$%   &$$$$$$$$$$$$$$$$$$$+   ",
"   +$$$$$$$$$$$$$$$$$$$$$$$$$$$$$$$$$$$*******************************$$$$$$$$$$$$$$$$$$$$$$$$$$%   &$$$$$$$$$$$$$$$$$$$+   ",
"   +$$$$$$$$$$$$$$$$$$$$$$$$$$$$$$$$$$$*******=-----------************$$$$$$$$$$$$$$$$$$$$$$$$$$%   &$$$$$$$$$$$$$$$$$$$+   ",
"   +$$$$$$$$$$$$$$$$$$$$$$$$$$$$$$$$$$$*******;>>>>>>>>>>>=***********$$$$$$$$$$$$$$$$$$$$$$$$$$%   &$$$$$$$$$$$$$$$$$$$+   ",
"   +$$$$$$$$$$$$$$$$$$$$$$$$$$$$$$$$$$$*******;>>>>>>>>>>>=***********$$$$$$$$$$$$$$$$$$$$$$$$$$%   &$$$$$$$$$$$$$$$$$$$+   ",
"   +$$$$$$$$$$$$$$$$$$$$$$$$$$$$$$$$$$$*******;>>>>>>>>>>>=***********$$$$$$$$$$$$$$$$$$$$$$$$$$%   &$$$$$$$$$$$$$$$$$$$+   ",
"   ,'''''''''''''''''''''''''''''''''''*******;>>>)!!!~>>>=***********$$$$$$$$$$$$$$$$$$$$$$$$$$%   &$$$$$$$$$$$$$$$$$$$+   ",
"                                           ***;>>>{***]>>>=***********$$$$$$$$$$$********$$$$$$$%   &$$$$$$$$$$$$$$$$$$$+   ",
"                                           ***;>>>{***]>>>=***********$$$$$$$$$$$********$$$$$$$%   &$$$$$$$$$$$$$$$$$$$+   ",
"                                           ***;>>>{***]>>>=***********$$$$$$$$$$$********$$$$$$$%   &$$$$$$$$$$$$$$$$$$$+   ",
"   ^///////////////////////////   ^////////***;>>>(;;;~>>>_;;:****   &$$$$$$$$$$$<[[[}***$$$$$$$%   &$$$$$$$$$$$$$$$$$$$+   ",
"   +$$$$$$$$$$$$$$$$$$$$$$$$$$$   +$$$$$$$$***;>>>>>>>>>>>>>>>****   &$$$$$$$$***|1112***$$$$$$$%   &$$$$$$$$$$$$$$$$$$$+   ",
"   +$$$$$$$$$$$$$$$$$$$$$$$$$$$   +$$$$$$$$***;>>>>>>>>>>>>>>>****   &$$$$$$$$***|1113***$$$$$$$%   &$$$$$$$$$$$$$$$$$$$+   ",
"   +$$$$$$$$$$$$$$$$$$$$$$$$$$$   +$$$$$$$$***;>>>>>>>>>>>>>>>****   &$$$$$$$$***41113***$$$$$$$%   &$$$$$$$$$$$$$$$$$$$+   ",
"   +$$$$$$$$$$$$$$$$$$$$$$$$$$$   +$$$$***5!!!6>>>>>>>>>>>7{{{****   &$$$$***8|||9900}$$$$$$$$$$%   &$$$$$$$$$$$$$$$$$$$+   ",
"   +$$$$$$$$$$$$$$$$$$$$$$$$$$$   +$$$$***{>>>>>>>>>>>>>>>a*******   &$$$$***b1110***$$$$$$$$$$$%   &$$$$$$$$$$$$$$$$$$$+   ",
"   +$$$$$$$$$$$$$$$$$$$$$$$$$$$   +$$$$***{>>>>>>>>>>>>>>>=*******   &$$$$***91110***$$$$$$$$$$$%   &$$$$$$$$$$$$$$$$$$$+   ",
"   +$$$$$$$$$$$$$$$$$$$$$$$$$$$   +$$$$***{>>>>>>>>>>>>>>>=*******   &$$$$***b1110***$$$$$$$$$$$%   &$$$$$$$$$$$$$$$$$$$+   ",
"   +$$$$$$$$$$$$$$$$$$$$$$$$$$$   +$$$$$$$=---!>>>:-------********   &***0cdc9333}$$$$$$$$$$$$$$%   &$$$$$$$$$$$$$$$$$$$+   ",
"   +$$$$$$$$$$$$$$$$$$$$$$$$$$$   +$$$$$$$$***;>>>{***************   &***01119***$$$$$$$$$$$$$$$%   &$$$$$$$$$$$$$$$$$$$+   ",
"   +$$$$$$$$$$$$$$$$$$$$$$$$$$$   +$$$$$$$$***;>>>{***************   &***01119***$$$$$$$$$$$$$$$%   &$$$$$$$$$$$$$$$$$$$+   ",
"   +$$$$$$$$$$$$$$$$$$$$$$$$$$$   +$$$$$$$$***;>>>{***************   &***0111b***$$$$$$$$$$$$$$$%   &$$$$$$$$$$$$$$$$$$$+   ",
"   +$$$$$$$$$$$$$$$$$$$$$$$$$$$   +$$$$$$$$$$$aaaae*******6~~~*******3fff4}}}}$$$$$$$$$$$$$$$$$$%   &$$$$$$$$$$$$$$$$$$$+   ",
"   +$$$$$$$$$$$$$$$$$$$$$$$$$$$   +$$$$$$$$$$$$***********~>>>*******3111|***$$$$$$$$$$$$$$$$$$$%   &$$$$$$$$$$$$$$$$$$$+   ",
"   +$$$$$$$$$$$$$$$$$$$$$$$$$$$   +$$$$$$$$$$$$***********~>>>*******3111|***$$$$$$$$$$$$$$$$$$$%   &$$$$$$$$$$$$$$$$$$$+   ",
"   +$$$$$$$$$$$$$$$$$$$$$$$$$$$   +$$$$$$$$$$$$***********~>>>*******3111|***$$$$$$$$$$$$$$$$$$$%   &$$$$$$$$$$$$$$$$$$$+   ",
"   +$$$$$$$$$$$$$$$$$$$$$$$$$$$   +$$$$$$$$*******!>>>>>>>=***ggggghgi****$$$$$$$$$$$$$$$$$$$$$$%   &$$$$$$$$$$$$$$$$$$$+   ",
"   +$$$$$$$$$$$$$$$$$$$$$$$$$$$   +$$$$$$$$*******!>>>>>>>=***ggggghhj****$$$$$$$$$$$$$$$$$$$$$$%   &$$$$$$$$$$$$$$$$$$$+   ",
"   +$$$$$$$$$$$$$$$$$$$$$$$$$$$   +$$$$$$$$*******!>>>>>>>=***gggggggk****$$$$$$$$$$$$$$$$$$$$$$%   &$$$$$$$$$$$$$$$$$$$+   ",
"   +$$$$$$$$$$$$$$$$$$$$$$$$$$$   +$$$$$$$$fcf9***:~~~~~~~a***ggggllljcffc$$$$$$$$$$$$$$$$$$$$$$%   &$$$$$$$$$$$$$$$$$$$+   ",
"   +$$$$$$$$$$$$$$$$$$$$$$$$$$$   +$$$$***mgggn***************ggglooopgggq***$$$$$$$$$$$$$$$$$$$%   &$$$$$$$$$$$$$$$$$$$+   ",
"   +$$$$$$$$$$$$$$$$$$$$$$$$$$$   +$$$$***rgggn***************ggglooopgggq***$$$$$$$$$$$$$$$$$$$%   &$$$$$$$$$$$$$$$$$$$+   ",
"   +$$$$$$$$$$$$$$$$$$$$$$$$$$$   +$$$$***rgggn***************ggglooopgggq***$$$$$$$$$$$$$$$$$$$%   &$$$$$$$$$$$$$$$$$$$+   ",
"   +$$$$$$$$$$$$$$$$$$$$$$$$$$$   +$$$$***mssstuuu|***vuuuuuuukkkjpppwgggq***$$$$$$$$$$$$$$$$$$$%   &$$$$$$$$$$$$$$$$$$$+   ",
"   +$$$$$$$$$$$$$$$$$$$$$$$$$$$   +$$$$***xooojgggr***ihgggggg***fgggggggq***$$$$$$$$$$$$$$$$$$$%   &$$$$$$$$$$$$$$$$$$$+   ",
"   +$$$$$$$$$$$$$$$$$$$$$$$$$$$   +$$$$***xooojgggr***jhgggggg***ygggggggq***$$$$$$$$$$$$$$$$$$$%   &$$$$$$$$$$$$$$$$$$$+   ",
"   +$$$$$$$$$$$$$$$$$$$$$$$$$$$   +$$$$***xooojgggr***kggggggg***cgggggggq***$$$$$$$$$$$$$$$$$$$%   &$$$$$$$$$$$$$$$$$$$+   ",
"   +$$$$$$$$$$$$$$$$$$$$$$$$$$$   +$$$****zAAAigggr***kggggggg***fgggggggq***$$$$$$$$$$$$$$$$$$$%   &$$$$$$$$$$$$$$$$$$$+   ",
"   +$$$$$$$$$$$$$$$$$$$$$$$$$$$   +*******rgggggggr***kggggggg***ygggggggq***$$$$$$$$$$$$$$$$$$$%   &$$$$$$$$$$$$$$$$$$$+   ",
"   +$$$$$$$$$$$$$$$$$$$$$$$$$$$   +*******rgggggggr***kggggggg***ygggggggq***$$$$$$$$$$$$$$$$$$$%   &$$$$$$$$$$$$$$$$$$$+   ",
"   +$$$$$$$$$$$$$$$$$$$$$$$$$$$   +*******rgggggggr***kggggggg***fgggggggq***$$$$$$$$$$$$$$$$$$$%   &$$$$$$$$$$$$$$$$$$$+   ",
"   +$$$$$$$$$$$$$$$$$$$$$$$$$$$   +***fnnnnnnnkgggr***kgggBnnn;;;CDDDDDDDE***$$$$$$$$$$$$$$$$$$$%   &$$$$$$$$$$$$$$$$$$$+   ",
"   +$$$$$$$$$$$$$$$$$$$$$$$$$$$   +***ugggq***ngggr***kgggf***>>>>>>>>>>>!***$$$$$$$$$$$$$$$$$$$%   &$$$$$$$$$$$$$$$$$$$+   ",
"   +$$$$$$$$$$$$$$$$$$$$$$$$$$$   +***ugggq***ngggr***kgggc***>>>>>>>>>>>!***$$$$$$$$$$$$$$$$$$$%   &$$$$$$$$$$$$$$$$$$$+   ",
"   +$$$$$$$$$$$$$$$$$$$$$$$$$$$   +***ugggq***ngggr***kgggf***>>>>>>>>>>>!***$$$$$$$$$$$$$$$$$$$%   &$$$$$$$$$$$$$$$$$$$+   ",
"   +$$$$$$$$$$$$$$$$$$$$$$$$$$$   +***FGGGH***mAAAz***kgggy***>>>>>>>>>>>!***$$$$$$$$$$$$$$$$$$$%   &$$$$$$$$$$$$$$$$$$$+   ",
"   +$$$$$$$$$$$$$$$$$$$$$$$$$$$   +***->>>!***Iooox***kgggc***>>>>>>>>>>>!***$$$$$$$$$$$$$$$$$$$%   &$$$$$$$$$$$$$$$$$$$+   ",
"   +$$$$$$$$$$$$$$$$$$$$$$$$$$$   +***->>>!***Iooox***kgggf***>>>>>>>>>>>!***$$$$$$$$$$$$$$$$$$$%   &$$$$$$$$$$$$$$$$$$$+   ",
"   +$$$$$$$$$$$$$$$$$$$$$$$$$$$   +***->>>!***Iooox***kgggy***>>>>>>>>>>>!***$$$$$$$$$$$$$$$$$$$%   &$$$$$$$$$$$$$$$$$$$+   ",
"   +$$$$$$$$$$$$$$$$$$$$$$$$$$$   +***->>>!***0ccc3***vuzu3***---J>>>>>>>!***$$$$$$$$$$$$$$$$$$$%   &$$$$$$$$$$$$$$$$$$$+   ",
"   +$$$$$$$$$$$$$$$$$$$$$$$$$$$   +***->>>!**********************=>>>>>>>!***$$$$$$$$$$$$$$$$$$$%   &$$$$$$$$$$$$$$$$$$$+   ",
"   +$$$$$$$$$$$$$$$$$$$$$$$$$$$   +***->>>!**********************=>>>>>>>!***$$$$$$$$$$$$$$$$$$$%   &$$$$$$$$$$$$$$$$$$$+   ",
"   +$$$$$$$$$$$$$$$$$$$$$$$$$$$   +***->>>!**********************=>>>>>>>!***$$$$$$$$$$$$$$$$$$$%   &$$$$$$$$$$$$$$$$$$$+   ",
"   +$$$$$$$$$$$$$$$$$$$$$$$$$$$   +$$$$=aaa*******bfffffffffff****=======a$$$$$$$$$$$$$$$$$$$$$$%   &$$$$$$$$$$$$$$$$$$$+   ",
"   +$$$$$$$$$$$$$$$$$$$$$$$$$$$   +$$$$***********|11111111111************$$$$$$$$$$$$$$$$$$$$$$%   &$$$$$$$$$$$$$$$$$$$+   ",
"   +$$$$$$$$$$$$$$$$$$$$$$$$$$$   +$$$$***********|11111111111************$$$$$$$$$$$$$$$$$$$$$$%   &$$$$$$$$$$$$$$$$$$$+   ",
"   +$$$$$$$$$$$$$$$$$$$$$$$$$$$   +$$$$***********|11111111111************$$$$$$$$$$$$$$$$$$$$$$%   &$$$$$$$$$$$$$$$$$$$+   ",
"   +$$$$$$$$$$$$$$$$$$$$$$$$$$$   +$$$$$$$$***911111113***f111111K****                                                      ",
"   +$$$$$$$$$$$$$$$$$$$$$$$$$$$   +$$$$$$$$***b11111113***f111111f****                                                      ",
"   +$$$$$$$$$$$$$$$$$$$$$$$$$$$   +$$$$$$$$***911111113***f111111f****                                                      ",
"   +$$$$$$$$$$$$$$$$$$$$$$$$$$$   +$$$$$$$$}}}b111Kfff3***cKKf111K}}}L++++++++++++++++++++++++++++++++++++++++++++++++++.   ",
"   +$$$$$$$$$$$$$$$$$$$$$$$$$$$   +$$$$***<11111110***$$$$****1111111d****$$$$$$$$$$$$$$$$$$$$$$$$$$$$$$$$$$$$$$$$$$$$$$+   ",
"   +$$$$$$$$$$$$$$$$$$$$$$$$$$$   +$$$$***811111110***$$$$****1111111c****$$$$$$$$$$$$$$$$$$$$$$$$$$$$$$$$$$$$$$$$$$$$$$+   ",
"   +$$$$$$$$$$$$$$$$$$$$$$$$$$$   +$$$$***<11111110***$$$$****1111111c****$$$$$$$$$$$$$$$$$$$$$$$$$$$$$$$$$$$$$$$$$$$$$$+   ",
"   +$$$$$$$$$$$$$$$$$$$$$$$$$$$   +$$$$***9MMMNcccO***$$$$****cccc111F----$$$$$$$$$$$$$$$$$$$$$$$$$$$$$$$$$$$$$$$$$$$$$$+   ",
"   +$$$$$$$$$$$$$$$$$$$$$$$$$$$   +*******{>>>;***$$$$$$$$$$$$***e111M>>>!***$$$$$$$$$$$$$$$$$$$$$$$$$$$$$$$$$$$$$$$$$$$+   ",
"   +$$$$$$$$$$$$$$$$$$$$$$$$$$$   +*******P>>>;***$$$$$$$$$$$$***}111M>>>Q***$$$$$$$$$$$$$$$$$$$$$$$$$$$$$$$$$$$$$$$$$$$+   ",
"   +$$$$$$$$$$$$$$$$$$$$$$$$$$$   +*******P>>>;***$$$$$$$$$$$$***}111M>>>Q***$$$$$$$$$$$$$$$$$$$$$$$$$$$$$$$$$$$$$$$$$$$+   ",
"   +$$$$$$$$$$$$$$$$$$$$$$$$$$$   +{{{{{{{_>>>;***$$$$$$$$$$$${{{RSSST>>>!***$$$$$$$$$$$$$$$$$$$$$$$$$$$$$$$$$$$$$$$$$$$+   ",
"   +$$$$$$$$$$$$$$$$$$$$$$$$$$$***a>>>>>>>>>>>;***$$$$$$$$****>>>>>>>>>>>!***$$$$$$$$$$$$$$$$$$$$$$$$$$$$$$$$$$$$$$$$$$$+   ",
"   +$$$$$$$$$$$$$$$$$$$$$$$$$$$***a>>>>>>>>>>>;***$$$$$$$$****>>>>>>>>>>>!***$$$$$$$$$$$$$$$$$$$$$$$$$$$$$$$$$$$$$$$$$$$+   ",
"   +$$$$$$$$$$$$$$$$$$$$$$$$$$$***a>>>>>>>>>>>;***$$$$$$$$****>>>>>>>>>>>!***$$$$$$$$$$$$$$$$$$$$$$$$$$$$$$$$$$$$$$$$$$$+   ",
"   +$$$$$$$$$$$$$$$$$$$$$$$$$$$***U;;;;;;;;;;;J$$$$$$$$$$$****;;;;;;;;;;;{$$$$$$$$$$$$$$$$$$$$$$$$$$$$$$$$$$$$$$$$$$$$$$+   ",
"   +$$$$$$$$$$$$$$$$$$$$$$$$$$$***************$$$$$$$$$$$$****************$$$$$$$$$$$$$$$$$$$$$$$$$$$$$$$$$$$$$$$$$$$$$$+   ",
"   +$$$$$$$$$$$$$$$$$$$$$$$$$$$***************$$$$$$$$$$$$****************$$$$$$$$$$$$$$$$$$$$$$$$$$$$$$$$$$$$$$$$$$$$$$+   ",
"   +$$$$$$$$$$$$$$$$$$$$$$$$$$$***************$$$$$$$$$$$$****************$$$$$$$$$$$$$$$$$$$$$$$$$$$$$$$$$$$$$$$$$$$$$$+   ",
"   +$$$$$$$$$$$$$$$$$$$$$$$$$$$   +$$$$$$$$$$$$$$$$$$$$$$$$$$$$$$%   &$$$$$$$$$$$$$$$$$$$$$$$$$$$$$$$$$$$$$$$$$$$$$$$$$$+   ",
"   +$$$$$$$$$$$$$$$$$$$$$$$$$$$   +$$$$$$$$$$$$$$$$$$$$$$$$$$$$$$%   &$$$$$$$$$$$$$$$$$$$$$$$$$$$$$$$$$$$$$$$$$$$$$$$$$$+   ",
"   +$$$$$$$$$$$$$$$$$$$$$$$$$$$   +$$$$$$$$$$$$$$$$$$$$$$$$$$$$$$%   &$$$$$$$$$$$$$$$$$$$$$$$$$$$$$$$$$$$$$$$$$$$$$$$$$$+   ",
"   +$$$$$$$$$$$$$$$$$$$$$$$$$$$   +$$$$$$$$$$$$$$$$$$$$$$$$$$$$$$%   &$$$$$$$$$$$$$$$$$$$$$$$$$$$$$$$$$$$$$$$$$$$$$$$$$$+   ",
"   +$$$$$$$$$$$$$$$$$$$$$$$$$$$   +$$$$$$$$$$$$$$$$$$$$$$$$$$$$$$%   &$$$$$$$$$$$$$$$$$$$$$$$$$$$$$$$$$$$$$$$$$$$$$$$$$$+   ",
"   +$$$$$$$$$$$$$$$$$$$$$$$$$$$   +$$$$$$$$$$$$$$$$$$$$$$$$$$$$$$%   &$$$$$$$$$$$$$$$$$$$$$$$$$$$$$$$$$$$$$$$$$$$$$$$$$$+   ",
"   +$$$$$$$$$$$$$$$$$$$$$$$$$$$   +$$$$$$$$$$$$$$$$$$$$$$$$$$$$$$%   &$$$$$$$$$$$$$$$$$$$$$$$$$$$$$$$$$$$$$$$$$$$$$$$$$$+   ",
"   +$$$$$$$$$$$$$$$$$$$$$$$$$$$   +$$$$$$$$$$$$$$$$$$$$$$$$$$$$$$%   &$$$$$$$$$$$$$$$$$$$$$$$$$$$$$$$$$$$$$$$$$$$$$$$$$$+   ",
"   .+++++++++++++++++++++++++++   .++++++++++++++++++++++++++++++@   #++++++++++++++++++++++++++++++++++++++++++++++++++.   ",
"                                                                                                                            ",
"                                                                                                                            ",
"                                                                                                                            "};
